<svg xmlns="http://www.w3.org/2000/svg" version="1.1"
     viewBox="0 0 9.713270448702342 1.8138438063962918"><g transform="matrix(1,0,0,1,1.8584337941292564,0.3519219031981461)"><g><path d=" M 0.45 1.1249999999999998 Q 0.34500000000000003 1.1249999999999998 0.261 1.09875 Q 0.177 1.0724999999999998 0.1005 1.0065 Q 0.081 0.9899999999999999 0.07050000000000001 0.9689999999999999 Q 0.06 0.9479999999999998 0.06 0.9269999999999998 Q 0.06 0.8924999999999998 0.08475 0.8662499999999999 Q 0.1095 0.8399999999999999 0.147 0.8399999999999999 Q 0.17550000000000002 0.8399999999999999 0.198 0.8579999999999999 Q 0.255 0.9044999999999999 0.31125 0.9284999999999999 Q 0.3675 0.9524999999999999 0.45 0.9524999999999999 Q 0.5055000000000001 0.9524999999999999 0.552 0.9352499999999999 Q 0.5985 0.9179999999999999 0.627 0.8887499999999999 Q 0.6555 0.8594999999999999 0.6555 0.8219999999999998 Q 0.6555 0.7769999999999999 0.6285000000000001 0.7454999999999998 Q 0.6015 0.7139999999999999 0.546 0.6922499999999998 Q 0.4905 0.6704999999999999 0.405 0.6584999999999999 Q 0.324 0.6464999999999999 0.2625 0.6217499999999998 Q 0.201 0.5969999999999999 0.15975 0.5587499999999999 Q 0.11850000000000001 0.5204999999999999 0.0975 0.4687499999999999 Q 0.0765 0.4169999999999998 0.0765 0.3524999999999998 Q 0.0765 0.2549999999999999 0.12675 0.18599999999999983 Q 0.177 0.11699999999999988 0.2625 0.08099999999999996 Q 0.34800000000000003 0.04499999999999993 0.4515 0.04499999999999993 Q 0.549 0.04499999999999993 0.63225 0.07424999999999993 Q 0.7155 0.10349999999999993 0.768 0.14849999999999985 Q 0.8115 0.18299999999999983 0.8115 0.22799999999999987 Q 0.8115 0.2609999999999999 0.786 0.2879999999999998 Q 0.7605000000000001 0.31499999999999984 0.726 0.31499999999999984 Q 0.7035 0.31499999999999984 0.6855 0.3014999999999999 Q 0.6615 0.28049999999999986 0.621 0.2617499999999998 Q 0.5805 0.24299999999999988 0.5355 0.23024999999999984 Q 0.4905 0.2174999999999998 0.4515 0.2174999999999998 Q 0.387 0.2174999999999998 0.34275 0.23399999999999987 Q 0.2985 0.25049999999999983 0.276 0.2789999999999998 Q 0.2535 0.3074999999999999 0.2535 0.34499999999999986 Q 0.2535 0.3899999999999999 0.27975 0.4192499999999999 Q 0.306 0.4484999999999999 0.3555 0.4657499999999999 Q 0.405 0.4829999999999999 0.47400000000000003 0.49649999999999983 Q 0.5640000000000001 0.5129999999999999 0.63225 0.5354999999999999 Q 0.7005 0.5579999999999998 0.7455 0.5932499999999998 Q 0.7905 0.6284999999999998 0.8130000000000001 0.6817499999999999 Q 0.8355 0.7349999999999999 0.8355 0.8114999999999999 Q 0.8355 0.9089999999999998 0.7815 0.9794999999999998 Q 0.7275 1.0499999999999998 0.63975 1.0875 Q 0.552 1.1249999999999998 0.45 1.1249999999999998 M 1.016977294921875 0.3224999999999999 L 1.372477294921875 0.3224999999999999 Q 1.408477294921875 0.3224999999999999 1.432477294921875 0.3464999999999998 Q 1.456477294921875 0.37049999999999983 1.456477294921875 0.40649999999999986 Q 1.456477294921875 0.44099999999999984 1.432477294921875 0.46424999999999983 Q 1.408477294921875 0.4874999999999998 1.372477294921875 0.4874999999999998 L 1.016977294921875 0.4874999999999998 Q 0.980977294921875 0.4874999999999998 0.956977294921875 0.4634999999999999 Q 0.932977294921875 0.4394999999999999 0.932977294921875 0.40349999999999986 Q 0.932977294921875 0.3689999999999999 0.956977294921875 0.3457499999999999 Q 0.980977294921875 0.3224999999999999 1.016977294921875 0.3224999999999999 M 1.177477294921875 0.1349999999999999 Q 1.216477294921875 0.1349999999999999 1.241227294921875 0.1612499999999999 Q 1.265977294921875 0.1874999999999999 1.265977294921875 0.2264999999999998 L 1.265977294921875 0.8939999999999999 Q 1.265977294921875 0.9149999999999998 1.2742272949218751 0.9284999999999999 Q 1.282477294921875 0.9419999999999998 1.296727294921875 0.9479999999999998 Q 1.310977294921875 0.9539999999999998 1.327477294921875 0.9539999999999998 Q 1.345477294921875 0.9539999999999998 1.360477294921875 0.9472499999999999 Q 1.375477294921875 0.9404999999999999 1.394977294921875 0.9404999999999999 Q 1.4159772949218752 0.9404999999999999 1.433227294921875 0.9599999999999999 Q 1.4504772949218752 0.9794999999999998 1.4504772949218752 1.0139999999999998 Q 1.4504772949218752 1.0559999999999998 1.404727294921875 1.083 Q 1.358977294921875 1.1099999999999999 1.306477294921875 1.1099999999999999 Q 1.274977294921875 1.1099999999999999 1.236727294921875 1.10475 Q 1.198477294921875 1.0995 1.164727294921875 1.0792499999999998 Q 1.130977294921875 1.059 1.108477294921875 1.017 Q 1.0859772949218751 0.9749999999999999 1.0859772949218751 0.9014999999999999 L 1.0859772949218751 0.2264999999999998 Q 1.0859772949218751 0.1874999999999999 1.112227294921875 0.1612499999999999 Q 1.138477294921875 0.1349999999999999 1.177477294921875 0.1349999999999999 M 2.3999648437500003 0.7094999999999998 Q 2.3999648437500003 0.8324999999999998 2.34521484375 0.9262499999999999 Q 2.29046484375 1.0199999999999998 2.19821484375 1.0724999999999998 Q 2.1059648437500003 1.1249999999999998 1.9919648437500004 1.1249999999999998 Q 1.8779648437500003 1.1249999999999998 1.7857148437500003 1.0724999999999998 Q 1.6934648437500002 1.0199999999999998 1.6387148437500003 0.9262499999999999 Q 1.5839648437500002 0.8324999999999998 1.5839648437500002 0.7094999999999998 Q 1.5839648437500002 0.5864999999999999 1.6387148437500003 0.4927499999999999 Q 1.6934648437500002 0.3989999999999999 1.7857148437500003 0.3457499999999999 Q 1.8779648437500003 0.29249999999999987 1.9919648437500004 0.29249999999999987 Q 2.1059648437500003 0.29249999999999987 2.19821484375 0.3457499999999999 Q 2.29046484375 0.3989999999999999 2.34521484375 0.4927499999999999 Q 2.3999648437500003 0.5864999999999999 2.3999648437500003 0.7094999999999998 M 2.21996484375 0.7094999999999998 Q 2.21996484375 0.6329999999999998 2.1892148437500003 0.5767499999999999 Q 2.15846484375 0.5204999999999999 2.1067148437500003 0.4889999999999999 Q 2.05496484375 0.4574999999999999 1.9919648437500004 0.4574999999999999 Q 1.9289648437500002 0.4574999999999999 1.8772148437500003 0.4889999999999999 Q 1.8254648437500003 0.5204999999999999 1.7947148437500002 0.5767499999999999 Q 1.7639648437500002 0.6329999999999998 1.7639648437500002 0.7094999999999998 Q 1.7639648437500002 0.7844999999999999 1.7947148437500002 0.8407499999999999 Q 1.8254648437500003 0.8969999999999999 1.8772148437500003 0.9284999999999999 Q 1.9289648437500002 0.9599999999999999 1.9919648437500004 0.9599999999999999 Q 2.05496484375 0.9599999999999999 2.1067148437500003 0.9284999999999999 Q 2.15846484375 0.8969999999999999 2.1892148437500003 0.8407499999999999 Q 2.21996484375 0.7844999999999999 2.21996484375 0.7094999999999998 M 2.9144853515625004 0.29249999999999987 Q 2.9999853515625006 0.29249999999999987 3.0637353515625003 0.3104999999999999 Q 3.1274853515625005 0.3284999999999999 3.1627353515625005 0.3607499999999999 Q 3.1979853515625005 0.3929999999999999 3.1979853515625005 0.43799999999999983 Q 3.1979853515625005 0.46799999999999986 3.1799853515625003 0.49424999999999986 Q 3.1619853515625005 0.5204999999999999 3.1274853515625005 0.5204999999999999 Q 3.1034853515625005 0.5204999999999999 3.0877353515625003 0.5137499999999998 Q 3.0719853515625006 0.5069999999999999 3.0599853515625 0.49649999999999983 Q 3.0479853515625006 0.4859999999999999 3.0314853515625004 0.47699999999999987 Q 3.0164853515625003 0.46799999999999986 2.9857353515625005 0.4627499999999999 Q 2.9549853515625 0.4574999999999999 2.9399853515625005 0.4574999999999999 Q 2.8634853515625003 0.4574999999999999 2.8102353515625005 0.4904999999999998 Q 2.7569853515625002 0.5234999999999999 2.7284853515625005 0.5797499999999999 Q 2.6999853515625003 0.6359999999999999 2.6999853515625003 0.7094999999999998 Q 2.6999853515625003 0.7814999999999999 2.7292353515625005 0.8377499999999999 Q 2.7584853515625003 0.8939999999999999 2.8102353515625005 0.9269999999999998 Q 2.8619853515625002 0.9599999999999999 2.9294853515625006 0.9599999999999999 Q 2.9669853515625 0.9599999999999999 2.9939853515625003 0.9554999999999999 Q 3.0209853515625005 0.9509999999999998 3.0389853515625003 0.9419999999999998 Q 3.0599853515625 0.9299999999999999 3.0764853515625004 0.9164999999999999 Q 3.0929853515625005 0.9029999999999998 3.1259853515625005 0.9029999999999998 Q 3.1649853515625006 0.9029999999999998 3.1859853515625005 0.9277499999999999 Q 3.2069853515625004 0.9524999999999999 3.2069853515625004 0.9884999999999999 Q 3.2069853515625004 1.0259999999999998 3.1649853515625006 1.0567499999999999 Q 3.1229853515625003 1.0875 3.0547353515625004 1.10625 Q 2.9864853515625005 1.1249999999999998 2.9069853515625006 1.1249999999999998 Q 2.7884853515625005 1.1249999999999998 2.7014853515625004 1.07025 Q 2.6144853515625 1.0154999999999998 2.5672353515625 0.9209999999999998 Q 2.5199853515625006 0.8264999999999998 2.5199853515625006 0.7094999999999998 Q 2.5199853515625006 0.5864999999999999 2.5702353515625003 0.4927499999999999 Q 2.6204853515625004 0.3989999999999999 2.7097353515625002 0.3457499999999999 Q 2.7989853515625005 0.29249999999999987 2.9144853515625004 0.29249999999999987 M 3.4575073242187506 1.1099999999999999 Q 3.4185073242187505 1.1099999999999999 3.3930073242187504 1.0837499999999998 Q 3.3675073242187503 1.0574999999999999 3.3675073242187503 1.0185 L 3.3675073242187503 0.09149999999999991 Q 3.3675073242187503 0.05249999999999977 3.3930073242187504 0.026249999999999885 Q 3.4185073242187505 -2.220446049250313e-16 3.4575073242187506 -2.220446049250313e-16 Q 3.4965073242187503 -2.220446049250313e-16 3.5220073242187504 0.026249999999999885 Q 3.5475073242187505 0.05249999999999977 3.5475073242187505 0.09149999999999991 L 3.5475073242187505 1.0185 Q 3.5475073242187505 1.0574999999999999 3.5220073242187504 1.0837499999999998 Q 3.4965073242187503 1.1099999999999999 3.4575073242187506 1.1099999999999999 M 3.9345073242187505 0.3074999999999999 Q 3.9690073242187505 0.3074999999999999 3.9945073242187505 0.33599999999999985 Q 4.02000732421875 0.3644999999999998 4.02000732421875 0.39149999999999985 Q 4.02000732421875 0.4274999999999999 3.9840073242187506 0.45899999999999985 L 3.5325073242187504 0.8744999999999998 L 3.5250073242187505 0.6674999999999999 L 3.8685073242187507 0.33599999999999985 Q 3.8970073242187504 0.3074999999999999 3.9345073242187505 0.3074999999999999 M 3.9570073242187505 1.1084999999999998 Q 3.9180073242187508 1.1084999999999998 3.8910073242187506 1.0784999999999998 L 3.6135073242187503 0.7844999999999999 L 3.7500073242187506 0.6584999999999999 L 4.02000732421875 0.9524999999999999 Q 4.04850732421875 0.9824999999999999 4.04850732421875 1.0199999999999998 Q 4.04850732421875 1.059 4.017757324218751 1.0837499999999998 Q 3.9870073242187507 1.1084999999999998 3.9570073242187505 1.1084999999999998 M 5.4164619140625 0.05549999999999988 Q 5.4509619140625 0.05549999999999988 5.4824619140625 0.08174999999999977 Q 5.5139619140625005 0.10799999999999987 5.5139619140625005 0.1529999999999998 Q 5.5139619140625005 0.16649999999999987 5.5094619140625 0.18299999999999983 L 5.2139619140625 1.053 Q 5.2049619140625 1.0799999999999998 5.1817119140625 1.09425 Q 5.1584619140625 1.1084999999999998 5.1329619140625 1.1099999999999999 Q 5.1074619140625 1.1099999999999999 5.0827119140625 1.095 Q 5.0579619140625 1.0799999999999998 5.0444619140625 1.0514999999999999 L 4.8224619140625 0.5474999999999999 L 4.8359619140625005 0.5564999999999999 L 4.6169619140625 1.0514999999999999 Q 4.6034619140625 1.0799999999999998 4.5787119140625006 1.095 Q 4.5539619140625005 1.1099999999999999 4.5284619140625 1.1099999999999999 Q 4.5044619140625 1.1084999999999998 4.4804619140625 1.09425 Q 4.4564619140625 1.0799999999999998 4.4474619140625 1.053 L 4.1519619140625 0.18299999999999983 Q 4.1474619140625 0.16649999999999987 4.1474619140625 0.1529999999999998 Q 4.1474619140625 0.10799999999999987 4.1797119140625005 0.08174999999999977 Q 4.2119619140625 0.05549999999999988 4.2464619140625 0.05549999999999988 Q 4.274961914062501 0.05549999999999988 4.2997119140625 0.07049999999999979 Q 4.3244619140625 0.08549999999999991 4.3334619140625 0.11399999999999988 L 4.5719619140625 0.8369999999999999 L 4.5389619140625 0.8354999999999999 L 4.7519619140625 0.32399999999999984 Q 4.7639619140625005 0.2969999999999998 4.7864619140625 0.2812499999999999 Q 4.8089619140625 0.26549999999999985 4.8374619140625 0.2669999999999999 Q 4.8659619140625 0.26549999999999985 4.8884619140625 0.2812499999999999 Q 4.9109619140625 0.2969999999999998 4.9214619140625 0.32399999999999984 L 5.1164619140625005 0.813 L 5.0924619140625005 0.8279999999999998 L 5.3279619140625005 0.11399999999999988 Q 5.3369619140625 0.08549999999999991 5.3624619140625 0.07049999999999979 Q 5.3879619140625 0.05549999999999988 5.4164619140625 0.05549999999999988 M 5.81995166015625 1.0185 Q 5.81995166015625 1.0574999999999999 5.79445166015625 1.0837499999999998 Q 5.76895166015625 1.1099999999999999 5.7299516601562495 1.1099999999999999 Q 5.69095166015625 1.1099999999999999 5.66545166015625 1.0837499999999998 Q 5.63995166015625 1.0574999999999999 5.63995166015625 1.0185 L 5.63995166015625 0.3989999999999999 Q 5.63995166015625 0.3599999999999999 5.66545166015625 0.3337499999999999 Q 5.69095166015625 0.3074999999999999 5.7299516601562495 0.3074999999999999 Q 5.76895166015625 0.3074999999999999 5.79445166015625 0.3337499999999999 Q 5.81995166015625 0.3599999999999999 5.81995166015625 0.3989999999999999 L 5.81995166015625 1.0185 M 5.72845166015625 0.20999999999999985 Q 5.67745166015625 0.20999999999999985 5.65645166015625 0.1934999999999999 Q 5.635451660156249 0.17699999999999982 5.635451660156249 0.1349999999999999 L 5.635451660156249 0.10649999999999982 Q 5.635451660156249 0.06299999999999994 5.658701660156249 0.04724999999999979 Q 5.681951660156249 0.03149999999999986 5.7299516601562495 0.03149999999999986 Q 5.78245166015625 0.03149999999999986 5.80345166015625 0.04799999999999982 Q 5.8244516601562495 0.06449999999999978 5.8244516601562495 0.10649999999999982 L 5.8244516601562495 0.1349999999999999 Q 5.8244516601562495 0.17849999999999988 5.8019516601562495 0.1942499999999998 Q 5.77945166015625 0.20999999999999985 5.72845166015625 0.20999999999999985 M 5.972986083984375 0.9854999999999998 Q 5.957986083984374 0.9644999999999999 5.959486083984374 0.9314999999999999 Q 5.960986083984374 0.8984999999999999 5.998486083984375 0.8744999999999998 Q 6.022486083984375 0.8594999999999999 6.049486083984375 0.8617499999999999 Q 6.076486083984374 0.8639999999999999 6.101986083984374 0.8894999999999998 Q 6.145486083984374 0.9329999999999998 6.193486083984374 0.9569999999999999 Q 6.241486083984374 0.9809999999999999 6.313486083984374 0.9809999999999999 Q 6.335986083984374 0.9794999999999998 6.362986083984374 0.9742499999999998 Q 6.3899860839843745 0.9689999999999999 6.410236083984374 0.9502499999999998 Q 6.430486083984374 0.9314999999999999 6.430486083984374 0.8924999999999998 Q 6.430486083984374 0.8594999999999999 6.407986083984374 0.8399999999999999 Q 6.385486083984374 0.8204999999999999 6.348736083984375 0.8069999999999999 Q 6.311986083984374 0.7934999999999999 6.266986083984374 0.7814999999999999 Q 6.220486083984374 0.7679999999999998 6.171736083984374 0.7514999999999998 Q 6.122986083984374 0.7349999999999999 6.082486083984374 0.7087499999999999 Q 6.041986083984375 0.6824999999999999 6.016486083984375 0.6389999999999998 Q 5.9909860839843745 0.5954999999999999 5.9909860839843745 0.5294999999999999 Q 5.9909860839843745 0.4544999999999999 6.032986083984374 0.4019999999999999 Q 6.074986083984374 0.3494999999999998 6.141736083984375 0.32099999999999984 Q 6.208486083984375 0.29249999999999987 6.281986083984375 0.29249999999999987 Q 6.328486083984375 0.29249999999999987 6.379486083984375 0.30374999999999985 Q 6.430486083984374 0.31499999999999984 6.476986083984374 0.3397499999999999 Q 6.523486083984374 0.3644999999999998 6.5549860839843745 0.4049999999999999 Q 6.571486083984374 0.4274999999999999 6.574486083984374 0.45899999999999985 Q 6.5774860839843745 0.4904999999999998 6.545986083984374 0.5159999999999999 Q 6.523486083984374 0.5339999999999998 6.493486083984375 0.5317499999999998 Q 6.463486083984375 0.5294999999999999 6.443986083984375 0.5114999999999998 Q 6.418486083984375 0.4784999999999998 6.375736083984375 0.45899999999999985 Q 6.332986083984375 0.4394999999999999 6.277486083984375 0.4394999999999999 Q 6.254986083984375 0.4394999999999999 6.228736083984375 0.44474999999999987 Q 6.2024860839843745 0.44999999999999984 6.182986083984375 0.46724999999999983 Q 6.163486083984375 0.4844999999999998 6.163486083984375 0.5219999999999999 Q 6.163486083984375 0.5564999999999999 6.185986083984375 0.5767499999999999 Q 6.208486083984375 0.5969999999999999 6.246736083984374 0.6097499999999999 Q 6.284986083984375 0.6224999999999998 6.328486083984375 0.6344999999999998 Q 6.373486083984375 0.6464999999999999 6.419986083984375 0.6629999999999998 Q 6.466486083984375 0.6794999999999999 6.5054860839843744 0.7064999999999999 Q 6.544486083984374 0.7334999999999998 6.568486083984374 0.7762499999999999 Q 6.592486083984374 0.819 6.592486083984374 0.8849999999999999 Q 6.592486083984374 0.9614999999999999 6.547486083984374 1.0154999999999998 Q 6.502486083984374 1.0695 6.434986083984374 1.0972499999999998 Q 6.3674860839843745 1.1249999999999998 6.2969860839843745 1.1249999999999998 Q 6.208486083984375 1.1249999999999998 6.119986083984375 1.09425 Q 6.031486083984374 1.0635 5.972986083984375 0.9854999999999998 M 7.127978027343749 1.1249999999999998 Q 7.00047802734375 1.1249999999999998 6.906728027343749 1.07175 Q 6.812978027343749 1.0185 6.76272802734375 0.9269999999999998 Q 6.712478027343749 0.8354999999999999 6.712478027343749 0.7199999999999999 Q 6.712478027343749 0.5849999999999999 6.767228027343749 0.4897499999999999 Q 6.821978027343749 0.39449999999999985 6.910478027343749 0.3434999999999998 Q 6.99897802734375 0.29249999999999987 7.097978027343749 0.29249999999999987 Q 7.174478027343749 0.29249999999999987 7.242728027343749 0.32399999999999984 Q 7.310978027343749 0.3554999999999998 7.363478027343749 0.4102499999999999 Q 7.4159780273437494 0.46499999999999986 7.446728027343749 0.5369999999999998 Q 7.477478027343749 0.6089999999999999 7.477478027343749 0.69 Q 7.475978027343749 0.7259999999999999 7.448978027343749 0.7484999999999999 Q 7.42197802734375 0.7709999999999999 7.385978027343749 0.7709999999999999 L 6.812978027343749 0.7709999999999999 L 6.767978027343749 0.6209999999999999 L 7.318478027343749 0.6209999999999999 L 7.285478027343749 0.6509999999999998 L 7.285478027343749 0.6104999999999998 Q 7.28247802734375 0.5669999999999998 7.2547280273437496 0.5324999999999999 Q 7.226978027343749 0.4979999999999999 7.18572802734375 0.4777499999999999 Q 7.144478027343749 0.4574999999999999 7.097978027343749 0.4574999999999999 Q 7.052978027343749 0.4574999999999999 7.013978027343749 0.4694999999999999 Q 6.97497802734375 0.4814999999999998 6.946478027343749 0.5099999999999999 Q 6.917978027343749 0.5384999999999999 6.9014780273437495 0.5864999999999999 Q 6.884978027343749 0.6344999999999998 6.884978027343749 0.7079999999999999 Q 6.884978027343749 0.7889999999999999 6.918728027343749 0.8452499999999998 Q 6.95247802734375 0.9014999999999999 7.005728027343749 0.9307499999999999 Q 7.058978027343749 0.9599999999999999 7.118978027343749 0.9599999999999999 Q 7.174478027343749 0.9599999999999999 7.2074780273437495 0.9509999999999998 Q 7.240478027343749 0.9419999999999998 7.260728027343749 0.9292499999999999 Q 7.28097802734375 0.9164999999999999 7.297478027343749 0.9074999999999999 Q 7.3244780273437495 0.8939999999999999 7.3484780273437496 0.8939999999999999 Q 7.381478027343749 0.8939999999999999 7.403228027343749 0.9164999999999999 Q 7.424978027343749 0.9389999999999998 7.424978027343749 0.9689999999999999 Q 7.424978027343749 1.0094999999999998 7.382978027343749 1.0425 Q 7.343978027343749 1.0755 7.273478027343749 1.10025 Q 7.202978027343749 1.1249999999999998 7.127978027343749 1.1249999999999998" fill="#000000" fill-rule="nonzero"></path></g><g></g><g clip-path="url(#SvgjsClipPath1001)"><g clip-path="url(#a31f6ff1e-18ec-40f9-9e2e-5bb55c4a11166d567082-7227-4e94-b9ed-0856f09b32b4)"><path d=" M -0.6687682522896422 0.8089487150843506 L -0.6847133239662219 0.788501505522619 C -0.7808996239917073 0.6653492754558592 -0.9583119950284752 0.6366950437076525 -1.088639507349696 0.7232205061879161 L -1.1116660667414626 0.7385090160895779 L -1.5230489159972196 0.15327798828946493 L -1.4767144135958645 0.1210126667792095 L -1.096424454109438 0.6620195693116322 C -0.9518401718185693 0.5814969573449046 -0.7679559775718955 0.611558107182221 -0.6568563458018444 0.7340537754740629 L -0.6111784051754072 0.7044147010634795 L -0.44192615905547705 0.5920019457435924 L -0.41055188566832457 0.6388523181109546 Z" fill="#000000" transform="matrix(1,0,0,1,0,0)" fill-rule="nonzero"></path></g><g clip-path="url(#a31f6ff1e-18ec-40f9-9e2e-5bb55c4a11166d567082-7227-4e94-b9ed-0856f09b32b4)"><path d=" M -0.6687682522896422 0.8089487150843506 L -0.6847133239662219 0.788501505522619 C -0.7808996239917073 0.6653492754558592 -0.9583119950284752 0.6366950437076525 -1.088639507349696 0.7232205061879161 L -1.1116660667414626 0.7385090160895779 L -1.5230489159972196 0.15327798828946493 L -1.4767144135958645 0.1210126667792095 L -1.096424454109438 0.6620195693116322 C -0.9518401718185693 0.5814969573449046 -0.7679559775718955 0.611558107182221 -0.6568563458018444 0.7340537754740629 L -0.6111784051754072 0.7044147010634795 L -0.44192615905547705 0.5920019457435924 L -0.41055188566832457 0.6388523181109546 Z" fill="none" transform="matrix(1,0,0,1,0,0)" fill-rule="nonzero" stroke-dasharray="none" stroke-miterlimit="10" stroke-linejoin="miter" stroke-linecap="butt" stroke-width="0.02110377133664964" stroke="#000000"></path></g><g clip-path="url(#a31f6ff1e-18ec-40f9-9e2e-5bb55c4a11166d567082-7227-4e94-b9ed-0856f09b32b4)"><path d=" M -0.9060684366528582 1.126537025066109 C -1.014409078868273 1.12640781724531 -1.1022043022629007 1.038612593850682 -1.1023335100836997 0.9302719516352674 C -1.1022301418254956 0.8219129953530576 -1.0144273651456874 0.7340892383203593 -0.9060684366529022 0.733959980934789 C -0.7977095081600731 0.7340892383203348 -0.7099067314802451 0.8219129953530135 -0.7098033632220165 0.9302719516352674 C -0.7099325710428105 1.0386125938506727 -0.797727794437434 1.1264078172453047 -0.9060684366528488 1.126537025066109 M -0.9060684366528582 0.7900491154206399 C -0.9834609092503039 0.7901525080078081 -1.0461668711149539 0.8528794487824163 -1.0462443755978488 0.9302719516352677 C -1.0461410376446845 1.0076461406027 -0.9834426256202914 1.0703445526270934 -0.9060684366528586 1.0704478905802581 C -0.8286942476854253 1.0703445526270938 -0.7659958356610321 1.0076461406027004 -0.7658924977078676 0.9302719516352677 C -0.7659700021907646 0.8528794487824124 -0.8286759640554163 0.790152508007806 -0.906068436652862 0.7900491154206399" fill="#000000" transform="matrix(1,0,0,1,0,0)" fill-rule="nonzero"></path></g><g clip-path="url(#a31f6ff1e-18ec-40f9-9e2e-5bb55c4a11166d567082-7227-4e94-b9ed-0856f09b32b4)"><path d=" M -0.9060684366528582 1.126537025066109 C -1.014409078868273 1.12640781724531 -1.1022043022629007 1.038612593850682 -1.1023335100836997 0.9302719516352674 C -1.1022301418254956 0.8219129953530576 -1.0144273651456874 0.7340892383203593 -0.9060684366529022 0.733959980934789 C -0.7977095081600731 0.7340892383203348 -0.7099067314802451 0.8219129953530135 -0.7098033632220165 0.9302719516352674 C -0.7099325710428105 1.0386125938506727 -0.797727794437434 1.1264078172453047 -0.9060684366528488 1.126537025066109 Z M -0.9060684366528582 0.7900491154206399 C -0.9834609092503039 0.7901525080078081 -1.0461668711149539 0.8528794487824163 -1.0462443755978488 0.9302719516352677 C -1.0461410376446845 1.0076461406027 -0.9834426256202914 1.0703445526270934 -0.9060684366528586 1.0704478905802581 C -0.8286942476854253 1.0703445526270938 -0.7659958356610321 1.0076461406027004 -0.7658924977078676 0.9302719516352677 C -0.7659700021907646 0.8528794487824124 -0.8286759640554163 0.790152508007806 -0.906068436652862 0.7900491154206399 Z" fill="none" transform="matrix(1,0,0,1,0,0)" fill-rule="nonzero" stroke-dasharray="none" stroke-miterlimit="10" stroke-linejoin="miter" stroke-linecap="butt" stroke-width="0.02110377133664964" stroke="#000000"></path></g><g clip-path="url(#SvgjsClipPath10006d567082-7227-4e94-b9ed-0856f09b32b4)"><path d=" M -1.3121747790747538 0.298282248990412 L -1.125805029537319 0.5464157026397749 L -1.0806898561465257 0.5126496685011355 L -1.232496317961492 0.3106162309049428 L -0.8847999608727801 0.062623469064491 L -0.5507507092484347 0.5500267924018237 L -0.6961322451231322 0.646775859662953 L -0.6648517662752539 0.6936262320303153 L -0.4720101935279133 0.5652684050338485 L -0.8707307799816802 -0.016492224813126646 Z" fill="#000000" transform="matrix(1,0,0,1,0,0)" fill-rule="nonzero"></path></g><g clip-path="url(#b31f6ff1e-18ec-40f9-9e2e-5bb55c4a11166d567082-7227-4e94-b9ed-0856f09b32b4)"><path d=" M -0.6648288816401343 0.6935814317773326 L -0.6961093604880128 0.6467779566796074 L -0.5507278246133152 0.550028889418478 L -0.8847770762376606 0.06262556608114525 L -1.2324734333263727 0.31057143065196 L -1.0806669715114061 0.5126048682481527 L -1.1257821449021994 0.546370902386792 L -1.312198791709271 0.2982374487374292 L -0.8707078953465608 -0.016537025066109504 L -0.4719873088927935 0.5652236047808658 Z" fill="none" transform="matrix(1,0,0,1,0,0)" fill-rule="nonzero" stroke-dasharray="none" stroke-miterlimit="10" stroke-linejoin="miter" stroke-linecap="butt" stroke-width="0.02110377133664964" stroke="#000000"></path></g></g></g><defs><clipPath id="SvgjsClipPath1001"><path d=" M -1.5336008016655445 -0.0270889107344342 h 1.1336008016655443 v 1.1641778214688683 h -1.1336008016655443 Z"></path></clipPath><clipPath id="a31f6ff1e-18ec-40f9-9e2e-5bb55c4a11166d567082-7227-4e94-b9ed-0856f09b32b4"><path d=" M -1.5377746586632373 1.137088910734434 L -0.3958730402719439 1.137088910734434 L -0.3958730402719439 -0.03135656227140095 L -1.5377746586632373 -0.03135656227140095 Z"></path></clipPath><clipPath id="SvgjsClipPath10006d567082-7227-4e94-b9ed-0856f09b32b4"><path d=" M -1.5336008016655445 -0.0270889107344342 L -0.40000000000000013 -0.0270889107344342 L -0.40000000000000013 1.137088910734434 L -1.5336008016655445 1.137088910734434 Z"></path></clipPath><clipPath id="b31f6ff1e-18ec-40f9-9e2e-5bb55c4a11166d567082-7227-4e94-b9ed-0856f09b32b4"><path d=" M -1.5377746586632373 1.137088910734434 L -0.3958730402719439 1.137088910734434 L -0.3958730402719439 -0.03135656227140095 L -1.5377746586632373 -0.03135656227140095 Z"></path></clipPath></defs></svg>