<svg xmlns="http://www.w3.org/2000/svg" version="1.1"
     viewBox="0 0 5.453708329610394 5.811747548006635"><g transform="matrix(1,0,0,1,0.4868254894228903,4.131123963144004)"><rect width="5.811747548006635" height="5.811747548006635" x="-0.6658450986210109" y="-4.131123963144005" fill="#876a57"></rect><g><path d=" M 0.5000717937172852 0.051553793166730366 Q 0.6238008973174382 0.051553793166730366 0.6843766042883465 0.10955181047930207 Q 0.7449523112592547 0.16754982779187377 0.7449523112592547 0.2809681727586808 Q 0.7449523112592547 0.341543879729589 0.7153088801883847 0.3872978711650623 Q 0.6856654491175147 0.4330518626005355 0.627667431804943 0.4581843367693166 Q 0.5696694144923712 0.4833168109380977 0.484605655767266 0.4833168109380977 L 0.48976103508393903 0.42531879362552594 Q 0.5297152247881551 0.42531879362552594 0.5812690179548856 0.4362739746734562 Q 0.632822811121616 0.44722915572138644 0.6811544922154258 0.474939319548504 Q 0.7294861733092355 0.5026494833756217 0.7610628716238579 0.5522700092985997 Q 0.7926395699384803 0.6018905352215776 0.7926395699384803 0.6792212249716734 Q 0.7926395699384803 0.7642849836967784 0.7649294061113627 0.8184164665218454 Q 0.7372192422842451 0.8725479493469124 0.6921096732633559 0.9021913804177824 Q 0.6470001042424669 0.9318348114886524 0.5954463110757364 0.9427899925365826 Q 0.5438925179090061 0.9537451735845128 0.49620525922978037 0.9537451735845128 L 0.17528289676688344 0.9537451735845128 Q 0.14177293120850867 0.9537451735845128 0.11921814669806412 0.9311903890740683 Q 0.09666336218761955 0.9086356045636237 0.09666336218761955 0.8751256390052489 L 0.09666336218761955 0.13017332774599422 Q 0.09666336218761955 0.0966633621876195 0.11921814669806412 0.07410857767717494 Q 0.14177293120850867 0.051553793166730366 0.17528289676688344 0.051553793166730366 L 0.5000717937172852 0.051553793166730366 M 0.47687258679225647 0.20363748300858509 L 0.24745820720030604 0.20363748300858509 L 0.26421318997949345 0.18301596574189294 L 0.26421318997949345 0.4162968798213481 L 0.2487470520294743 0.4046972763588338 L 0.4807391212797612 0.4046972763588338 Q 0.5181156213256408 0.4046972763588338 0.5477590523965108 0.3802092246046368 Q 0.5774024834673808 0.3557211728504399 0.5774024834673808 0.30932275900038253 Q 0.5774024834673808 0.2539024313461473 0.5496923196402632 0.22876995717736615 Q 0.5219821558131456 0.20363748300858509 0.47687258679225647 0.20363748300858509 M 0.48718334542560254 0.5567809662006886 L 0.25261358651697907 0.5567809662006886 L 0.26421318997949345 0.5464702075673424 L 0.26421318997949345 0.8184164665218454 L 0.2513247416878108 0.8055280182301628 L 0.49620525922978037 0.8055280182301628 Q 0.5554921213715204 0.8055280182301628 0.5902909317590634 0.7739513199155404 Q 0.6250897421466064 0.742374621600918 0.6250897421466064 0.6792212249716734 Q 0.6250897421466064 0.6212232076591016 0.6018905352215778 0.5954463110757364 Q 0.578691328296549 0.5696694144923711 0.5464702075673425 0.5632251903465298 Q 0.514249086838136 0.5567809662006886 0.48718334542560254 0.5567809662006886 M 1.4989642954485416 0.2513247416878107 Q 1.5324742610069166 0.2513247416878107 1.554384623102777 0.2732351037836712 Q 1.5762949851986372 0.2951454658795316 1.5762949851986372 0.3299442762670747 L 1.5762949851986372 0.8751256390052489 Q 1.5762949851986372 0.9086356045636237 1.554384623102777 0.9311903890740683 Q 1.5324742610069166 0.9537451735845128 1.4989642954485416 0.9537451735845128 Q 1.465454329890167 0.9537451735845128 1.4435439677943065 0.9311903890740683 Q 1.421633605698446 0.9086356045636237 1.421633605698446 0.8751256390052489 L 1.421633605698446 0.8119722423760042 L 1.4499881919401478 0.8235718458385185 Q 1.4499881919401478 0.8403268286177059 1.4319443643317922 0.8641704579573187 Q 1.4139005367234365 0.8880140872969315 1.3829682608233984 0.9112132942219602 Q 1.35203598492336 0.9344125011469889 1.3101485279753915 0.9505230615115922 Q 1.268261071027423 0.9666336218761954 1.2192849675190292 0.9666336218761954 Q 1.1303546743064192 0.9666336218761954 1.0581793638729966 0.9208796304407222 Q 0.986004053439574 0.8751256390052489 0.9441165964916055 0.7945728371822326 Q 0.902229139543637 0.7140200353592163 0.902229139543637 0.6096236041965872 Q 0.902229139543637 0.5039383282047898 0.9441165964916055 0.4233855263817735 Q 0.986004053439574 0.34283272455875724 1.0568905190438282 0.29707873312328403 Q 1.1277769846480825 0.2513247416878107 1.2141295882023562 0.2513247416878107 Q 1.2695499158565913 0.2513247416878107 1.3159483297066488 0.2680797244669981 Q 1.362346743556706 0.28483470724618554 1.3965011315296652 0.3106116038295508 Q 1.4306555195026238 0.336388500412916 1.4493437695255635 0.3628098194108653 Q 1.4680320195485035 0.3892311384088146 1.4680320195485035 0.4072749660171703 L 1.421633605698446 0.4240299487963577 L 1.421633605698446 0.3299442762670747 Q 1.421633605698446 0.29643431070869986 1.4435439677943065 0.2738795261982553 Q 1.465454329890167 0.2513247416878107 1.4989642954485416 0.2513247416878107 M 1.2386176399565532 0.8248606906676867 Q 1.2953268124399564 0.8248606906676867 1.337858691802509 0.796506104425985 Q 1.3803905711650617 0.7681515181842833 1.4042342005046744 0.7191754146758894 Q 1.4280778298442873 0.6701993111674955 1.4280778298442873 0.6096236041965872 Q 1.4280778298442873 0.5477590523965108 1.4042342005046744 0.4987829488881168 Q 1.3803905711650617 0.44980684537972293 1.337858691802509 0.4214522591380212 Q 1.2953268124399564 0.39309767289631947 1.2386176399565532 0.39309767289631947 Q 1.1831973123023178 0.39309767289631947 1.1406654329397652 0.4214522591380212 Q 1.0981335535772128 0.44980684537972293 1.0742899242375998 0.4987829488881168 Q 1.050446294897987 0.5477590523965108 1.050446294897987 0.6096236041965872 Q 1.050446294897987 0.6701993111674955 1.0742899242375998 0.7191754146758894 Q 1.0981335535772128 0.7681515181842833 1.1406654329397652 0.796506104425985 Q 1.1831973123023178 0.8248606906676867 1.2386176399565532 0.8248606906676867 M 1.846934149079809 0.9537451735845128 Q 1.8134241835214342 0.9537451735845128 1.7915138214255737 0.9311903890740683 Q 1.7696034593297134 0.9086356045636237 1.7696034593297134 0.8751256390052489 L 1.7696034593297134 0.07861953457926385 Q 1.7696034593297134 0.04510956902088903 1.7915138214255737 0.02255478451044446 Q 1.8134241835214342 -1.1102230246251565e-16 1.846934149079809 -1.1102230246251565e-16 Q 1.8804441146381838 -1.1102230246251565e-16 1.9023544767340441 0.02255478451044446 Q 1.9242648388299046 0.04510956902088903 1.9242648388299046 0.07861953457926385 L 1.9242648388299046 0.8751256390052489 Q 1.9242648388299046 0.9086356045636237 1.9023544767340441 0.9311903890740683 Q 1.8804441146381838 0.9537451735845128 1.846934149079809 0.9537451735845128 M 2.2567868047553157 0.2642131899794934 Q 2.286430235826186 0.2642131899794934 2.3083405979220464 0.2887012417336903 Q 2.330250960017907 0.31318929348788727 2.330250960017907 0.336388500412916 Q 2.330250960017907 0.36732077631295423 2.2993186841178685 0.3943865177254877 L 1.911376390538222 0.7513965354050959 L 1.9049321663923808 0.5735359489798759 L 2.2000776322719124 0.2887012417336903 Q 2.224565684026109 0.2642131899794934 2.2567868047553157 0.2642131899794934 M 2.27611947719284 0.9524563287553446 Q 2.242609511634465 0.9524563287553446 2.2194103047094362 0.9266794321719793 L 1.980974011313308 0.6740658456550003 L 2.09825889076762 0.5658028800048664 L 2.330250960017907 0.8184164665218454 Q 2.3547390117721037 0.8441933631052106 2.3547390117721037 0.8764144838344172 Q 2.3547390117721037 0.9099244493927919 2.3283176927741542 0.9311903890740683 Q 2.301896373776205 0.9524563287553446 2.27611947719284 0.9524563287553446 M 2.792942477776727 0.9666336218761954 Q 2.683390667297425 0.9666336218761954 2.6028378654744087 0.9208796304407222 Q 2.5222850636513923 0.8751256390052489 2.4791087618742553 0.796506104425985 Q 2.435932460097119 0.7178865698467212 2.435932460097119 0.6186455180007651 Q 2.435932460097119 0.5026494833756217 2.48297529636176 0.420807836723437 Q 2.530018132626402 0.3389661900712525 2.6060599775473294 0.2951454658795316 Q 2.6821018224682565 0.2513247416878107 2.7671655811933618 0.2513247416878107 Q 2.8328966674809433 0.2513247416878107 2.891539107208099 0.2783904831003442 Q 2.950181546935255 0.3054562245128777 2.995291115956144 0.35249906077751925 Q 3.0404006849770333 0.3995418970421607 3.0668220039749823 0.46140644884223725 Q 3.0932433229729317 0.5232710006423138 3.0932433229729317 0.5928686214173998 Q 3.0919544781437636 0.623800897317438 3.068755271218735 0.643133569754962 Q 3.045556064293706 0.6624662421924858 3.014623788393668 0.6624662421924858 L 2.5222850636513923 0.6624662421924858 L 2.4836197187763442 0.5335817592756599 L 2.956625771081096 0.5335817592756599 L 2.9282711848393945 0.5593586558590251 L 2.9282711848393945 0.524559845471482 Q 2.925693495181058 0.4871833454256025 2.901849865841445 0.45753991435473246 Q 2.8780062365018324 0.4278964832838624 2.842563003699705 0.41049707809009095 Q 2.807119770897578 0.39309767289631947 2.7671655811933618 0.39309767289631947 Q 2.728500236318314 0.39309767289631947 2.694990270759939 0.40340843152966555 Q 2.6614803052015645 0.4137191901630116 2.6369922534473673 0.4382072419172086 Q 2.6125042016931705 0.4626952936714055 2.5983269085723197 0.5039383282047898 Q 2.584149615451469 0.5451813627381742 2.584149615451469 0.608334759367419 Q 2.584149615451469 0.677932380142505 2.6131486241077546 0.7262640612363148 Q 2.6421476327640407 0.7745957423301246 2.687901624199514 0.7997282164989057 Q 2.733655615634987 0.8248606906676867 2.7852094088017174 0.8248606906676867 Q 2.8328966674809433 0.8248606906676867 2.861251253722645 0.8171276216926772 Q 2.8896058399643465 0.8093945527176676 2.907005245158118 0.7984393716697374 Q 2.9244046503518897 0.7874841906218072 2.9385819434727405 0.7797511216467976 Q 2.961781150397769 0.7681515181842833 2.9824026676644615 0.7681515181842833 Q 3.010757253906163 0.7681515181842833 3.029445503929103 0.7874841906218072 Q 3.0481337539520426 0.8068168630593311 3.0481337539520426 0.8325937596426963 Q 3.0481337539520426 0.8673925700302394 3.0120460987353312 0.8957471562719411 Q 2.9785361331769566 0.9241017425136429 2.917960426206048 0.9453676821949192 Q 2.85738471923514 0.9666336218761954 2.792942477776727 0.9666336218761954 M 3.3123689700882846 0.9537451735845128 Q 3.2788590045299095 0.9537451735845128 3.256948642434049 0.9311903890740683 Q 3.2350382803381885 0.9086356045636237 3.2350382803381885 0.8751256390052489 L 3.2350382803381885 0.34283272455875724 Q 3.2350382803381885 0.30932275900038253 3.256948642434049 0.28676797448993796 Q 3.2788590045299095 0.2642131899794934 3.3123689700882846 0.2642131899794934 Q 3.345878935646659 0.2642131899794934 3.3677892977425197 0.28676797448993796 Q 3.38969965983838 0.30932275900038253 3.38969965983838 0.34283272455875724 L 3.38969965983838 0.4639841385005738 L 3.3806777460342023 0.3776315349463003 Q 3.394855039155053 0.3466992590462621 3.4174098236654977 0.32285562970664927 Q 3.4399646081759423 0.29901200036703646 3.468319194417644 0.2829014400024331 Q 3.4966737806593455 0.2667908796378299 3.528894901388552 0.2590578106628203 Q 3.5611160221177585 0.2513247416878107 3.5933371428469654 0.2513247416878107 Q 3.632002487722013 0.2513247416878107 3.6584238067199624 0.2732351037836712 Q 3.684845125717912 0.2951454658795316 3.684845125717912 0.3247888969504016 Q 3.684845125717912 0.36732077631295423 3.6629347636220513 0.38600902633589396 Q 3.641024401526191 0.4046972763588338 3.6152475049428254 0.4046972763588338 Q 3.5907594531886287 0.4046972763588338 3.570782358336521 0.39567536255465596 Q 3.5508052634844125 0.38665344875047813 3.525028366901047 0.38665344875047813 Q 3.5018291599760185 0.38665344875047813 3.477985530636406 0.3976086297984084 Q 3.454141901296793 0.4085638108463385 3.4341648064446852 0.4317630177713673 Q 3.414187711592577 0.45496222469639597 3.4019436857154783 0.48911661266935486 Q 3.38969965983838 0.5232710006423138 3.38969965983838 0.5696694144923711 L 3.38969965983838 0.8751256390052489 Q 3.38969965983838 0.9086356045636237 3.3677892977425197 0.9311903890740683 Q 3.345878935646659 0.9537451735845128 3.3123689700882846 0.9537451735845128 M 4.318983842375558 0.2642131899794934 Q 4.352493807933933 0.2642131899794934 4.374404170029793 0.28676797448993796 Q 4.396314532125654 0.30932275900038253 4.396314532125654 0.34283272455875724 L 4.396314532125654 0.890591776955268 Q 4.396314532125654 1.009165501238748 4.3518493855193485 1.0794075444284181 Q 4.307384238913044 1.1496495876180886 4.232631238821285 1.1805818635181267 Q 4.157878238729525 1.211514139418165 4.065081411029411 1.211514139418165 Q 4.023838376496027 1.211514139418165 3.977439962645969 1.2050699152723237 Q 3.931041548795912 1.1986256911264823 3.9013981177250416 1.1857372428347999 Q 3.862732772849994 1.1689822600556123 3.8479110573145587 1.1438497858868313 Q 3.833089341779124 1.1187173117180502 3.8421112555833017 1.0903627254763484 Q 3.8537108590458162 1.052986225430469 3.879487755629181 1.0394533547242022 Q 3.9052646522125465 1.0259204840179355 3.933619238454248 1.0362312426512814 Q 3.9542407557209405 1.0426754667971228 3.987750721279315 1.0562083375033895 Q 4.02126068683769 1.0697412082096562 4.065081411029411 1.0697412082096562 Q 4.124368273171151 1.0697412082096562 4.163678040460783 1.053630647845053 Q 4.202987807750414 1.0375200874804498 4.222964902602523 0.999499165019986 Q 4.242941997454631 0.9614782425595224 4.242941997454631 0.8957471562719411 L 4.242941997454631 0.8093945527176676 L 4.2700077388671644 0.8403268286177059 Q 4.2480973767713035 0.8828587079802585 4.215231833627513 0.9105688718073761 Q 4.182366290483722 0.9382790356344937 4.137256721462833 0.9524563287553446 Q 4.092147152441944 0.9666336218761954 4.034149135129373 0.9666336218761954 Q 3.9658403591834546 0.9666336218761954 3.9149309884313084 0.9350569235615731 Q 3.864021617679162 0.9034802252469507 3.8356670314374606 0.8474154751781313 Q 3.807312445195759 0.7913507251093119 3.807312445195759 0.7191754146758894 L 3.807312445195759 0.34283272455875724 Q 3.807312445195759 0.30932275900038253 3.829222807291619 0.28676797448993796 Q 3.8511331693874795 0.2642131899794934 3.8846431349458546 0.2642131899794934 Q 3.918153100504229 0.2642131899794934 3.9400634626000897 0.28676797448993796 Q 3.96197382469595 0.30932275900038253 3.96197382469595 0.34283272455875724 L 3.96197382469595 0.672777000825832 Q 3.96197382469595 0.756551914721769 3.9987059023272455 0.7907063026947279 Q 4.035437979958541 0.8248606906676867 4.101169066246122 0.8248606906676867 Q 4.146278635267011 0.8248606906676867 4.17721091116705 0.8074612854739153 Q 4.208143187067088 0.7900618802801438 4.224898169846275 0.7559074923071848 Q 4.241653152625463 0.7217531043342259 4.241653152625463 0.672777000825832 L 4.241653152625463 0.34283272455875724 Q 4.241653152625463 0.30932275900038253 4.263563514721323 0.28676797448993796 Q 4.285473876817184 0.2642131899794934 4.318983842375558 0.2642131899794934" fill="#f2f0f0" fill-rule="nonzero"></path></g><g></g><g clip-path="url(#SvgjsClipPath1002)"><g clip-path="url(#SvgjsClipPath10000c5e6faf-3144-4157-9334-63548f7eb110)"><path d=" M 4.4928471674170485 -1.3356310309300023 C 4.576155145085471 -0.8461829781632333 3.568467977624475 -0.6687293227092153 2.3243218985159264 -0.4572299628466756 C 1.080175819407377 -0.24573060298414218 0.07062763273434215 -0.0798809496757884 -0.012680344934078845 -0.5694384741609064 C -0.057235334304706176 -0.8321705982137448 0.1926885987005571 -1.116797065937654 0.625868188232676 -1.3567590725725833 C 0.5414640160982379 -1.1282847949555395 0.538255662135473 -0.8777239469237021 0.6167820356091818 -0.6471633941931958 C 0.6628117983733871 -0.9393924054530198 0.7540736511561484 -1.222669787421364 0.8872866516652513 -1.4868114739787393 C 1.2423904339792313 -1.64082094070522 1.6141591089007774 -1.7531229999181914 1.9951404414213925 -1.821466516991045 C 1.8946016439333213 -1.5473448666678484 1.8913550110107038 -1.2469926709338557 1.98594481707954 -0.9707617936516115 C 2.035127811584849 -1.2792548874695404 2.1256351587995175 -1.5797186601594069 2.25502630079699 -1.8640510154312777 C 2.7095803863746317 -1.9344538689916286 3.1721506403841397 -1.9359300785145637 3.627144818662945 -1.8684298841654945 C 3.5416754446386376 -1.6395288552111493 3.5381166461605917 -1.3880920062187183 3.6170734205742505 -1.1568637148557208 C 3.6537734565336994 -1.3883374205022512 3.718813889154166 -1.6144163465527015 3.8107288903448655 -1.8300053110227623 C 4.198477716759513 -1.7349838594903215 4.454094179119256 -1.5639890354192612 4.4928471674170485 -1.3356310309300023 Z" fill="#d3b39f" transform="matrix(1,0,0,1,0,0)" fill-rule="nonzero"></path></g><g clip-path="url(#SvgjsClipPath10000c5e6faf-3144-4157-9334-63548f7eb110)"><path d=" M 2.1203760872199098 -2.0673399964171644 C 1.9538696036014227 -2.25464610652317 1.8312612790434308 -2.5408051783040526 1.9536506601647123 -2.7818619021225297 C 2.0462637338933383 -2.9642417849025446 2.221527954980253 -3.085974335713692 2.296297138616957 -3.2832423721900272 C 2.336041220288251 -3.405626594959673 2.3422036255696908 -3.536435934062635 2.3141410287088786 -3.6620145176995456 C 2.5067017812959387 -3.4637612357579983 2.637958371604003 -3.147497441429398 2.449448072596091 -2.902609207468478 C 2.3451215250034427 -2.7670832201445514 2.188905382910359 -2.673703844387439 2.0924607990392956 -2.5328137428641027 C 1.9978772343802738 -2.3947699060180163 2.072099059425201 -2.20844904137721 2.1203760872199098 -2.0673399964171644 Z" fill="#eed9cb" transform="matrix(1,0,0,1,0,0)" fill-rule="nonzero"></path></g><g clip-path="url(#SvgjsClipPath10000c5e6faf-3144-4157-9334-63548f7eb110)"><path d=" M 1.5183911079838421 -2.0673399964171644 C 1.351884624365355 -2.25464610652317 1.2292762998073636 -2.5408051783040526 1.3516656809286447 -2.7818619021225297 C 1.4442787546572702 -2.9642417849025446 1.6195429757441848 -3.085974335713692 1.6943121593808887 -3.2832423721900272 C 1.7340562410521825 -3.405626594959673 1.7402186463336227 -3.536435934062635 1.7121560494728105 -3.6620145176995456 C 1.904716802059871 -3.4637612357579983 2.0359733923679353 -3.147497441429398 1.8474630933600233 -2.902609207468478 C 1.7431365457673749 -2.7670832201445514 1.587029875392646 -2.673703844387439 1.490475819803228 -2.5328137428641027 C 1.3958922551442057 -2.3947699060180163 1.470223551907488 -2.20844904137721 1.5183911079838421 -2.0673399964171644 Z" fill="#eed9cb" transform="matrix(1,0,0,1,0,0)" fill-rule="nonzero"></path></g><g clip-path="url(#SvgjsClipPath10000c5e6faf-3144-4157-9334-63548f7eb110)"><path d=" M 2.7573920163296894 -2.0673399964171644 C 2.5904476458377816 -2.2546461065231633 2.468167736434856 -2.5408051783040526 2.5904476458377816 -2.7818619021225297 C 2.683060719566407 -2.9642417849025446 2.858324940653323 -3.085974335713692 2.9330941242900264 -3.2832423721900272 C 2.97283820596132 -3.405626594959673 2.9790006112427596 -3.536435934062635 2.950938014381948 -3.6620145176995456 C 3.1434987669690075 -3.4637612357579983 3.2747553572770722 -3.147497441429398 3.08624505826916 -2.902609207468478 C 2.981918510676511 -2.7670832201445514 2.825811840301783 -2.673703844387439 2.729257784712364 -2.5328137428641027 C 2.6347836917716982 -2.3947699060180163 2.709114988534981 -2.20844904137721 2.7573920163296894 -2.0673399964171644 Z" fill="#eed9cb" transform="matrix(1,0,0,1,0,0)" fill-rule="nonzero"></path></g></g></g><defs><clipPath id="SvgjsClipPath1002"><path d=" M -0.017716043978424967 -3.6620145176995393 h 4.515489438721464 v 3.4120145176995393 h -4.515489438721464 Z"></path></clipPath><clipPath id="SvgjsClipPath10000c5e6faf-3144-4157-9334-63548f7eb110"><path d=" M -0.017716043978424967 -3.6620145176995393 L 4.497773394743039 -3.6620145176995393 L 4.497773394743039 -0.24999999999999956 L -0.017716043978424967 -0.24999999999999956 Z"></path></clipPath></defs></svg>