<svg xmlns="http://www.w3.org/2000/svg" version="1.1"
     viewBox="0 0 7.61613443718094 8.29691438237747"><g transform="matrix(1,0,0,1,0.66231526546547,6.360917476287)"><rect width="8.29691438237747" height="8.29691438237747" x="-1.0027052380637347" y="-6.360917476287" fill="#fffef5"></rect><g><path d=" M 0.10693359375 0.010986328125 L 0.298828125 0.010986328125 Q 0.34130859375 0.010986328125 0.38671875 0.013916015625 Q 0.43212890625 0.016845703125 0.475341796875 0.0263671875 Q 0.5185546875 0.035888671875 0.557373046875 0.0545654296875 Q 0.59619140625 0.0732421875 0.6251220703125 0.104736328125 Q 0.654052734375 0.13623046875 0.6712646484375 0.1827392578125 Q 0.6884765625 0.229248046875 0.6884765625 0.29443359375 L 0.6884765625 0.355224609375 Q 0.6884765625 0.405029296875 0.6741943359375 0.44677734375 Q 0.659912109375 0.488525390625 0.636474609375 0.5203857421875 Q 0.613037109375 0.55224609375 0.5830078125 0.5731201171875 Q 0.552978515625 0.593994140625 0.521484375 0.601318359375 L 0.521484375 0.607177734375 Q 0.614501953125 0.6240234375 0.6617431640625 0.6954345703125 Q 0.708984375 0.766845703125 0.708984375 0.878173828125 L 0.708984375 0.94189453125 Q 0.708984375 1.010009765625 0.6939697265625 1.0601806640625 Q 0.678955078125 1.1103515625 0.65185546875 1.1458740234375 Q 0.624755859375 1.181396484375 0.58740234375 1.2041015625 Q 0.550048828125 1.226806640625 0.50537109375 1.2396240234375 Q 0.460693359375 1.25244140625 0.41015625 1.2572021484375 Q 0.359619140625 1.261962890625 0.30615234375 1.261962890625 L 0.10693359375 1.261962890625 L 0.10693359375 0.010986328125 M 0.32958984375 0.54638671875 Q 0.36767578125 0.54638671875 0.399169921875 0.5372314453125 Q 0.4306640625 0.528076171875 0.4530029296875 0.5086669921875 Q 0.475341796875 0.4892578125 0.4874267578125 0.4581298828125 Q 0.49951171875 0.427001953125 0.49951171875 0.383056640625 L 0.49951171875 0.331787109375 Q 0.49951171875 0.287841796875 0.49072265625 0.254150390625 Q 0.48193359375 0.220458984375 0.4617919921875 0.197021484375 Q 0.441650390625 0.173583984375 0.4090576171875 0.1614990234375 Q 0.37646484375 0.1494140625 0.32958984375 0.1494140625 L 0.29296875 0.1494140625 L 0.29296875 0.54638671875 L 0.32958984375 0.54638671875 M 0.34716796875 1.130126953125 Q 0.38525390625 1.130126953125 0.4163818359375 1.1202392578125 Q 0.447509765625 1.1103515625 0.4698486328125 1.0894775390625 Q 0.4921875 1.068603515625 0.5042724609375 1.036376953125 Q 0.516357421875 1.004150390625 0.516357421875 0.960205078125 L 0.516357421875 0.86279296875 Q 0.516357421875 0.81884765625 0.507568359375 0.7847900390625 Q 0.498779296875 0.750732421875 0.4786376953125 0.7276611328125 Q 0.45849609375 0.70458984375 0.42626953125 0.6925048828125 Q 0.39404296875 0.680419921875 0.34716796875 0.680419921875 L 0.29296875 0.680419921875 L 0.29296875 1.130126953125 L 0.34716796875 1.130126953125 M 0.881103515625 0.010986328125 L 1.3447265625 0.010986328125 L 1.3447265625 0.160400390625 L 1.07080078125 0.160400390625 L 1.07080078125 0.53466796875 L 1.282470703125 0.53466796875 L 1.282470703125 0.68408203125 L 1.07080078125 0.68408203125 L 1.07080078125 1.112548828125 L 1.35205078125 1.112548828125 L 1.35205078125 1.261962890625 L 0.881103515625 1.261962890625 L 0.881103515625 0.010986328125 M 1.4033203125 0.010986328125 L 1.597412109375 0.010986328125 L 1.735107421875 1.001953125 L 1.7431640625 1.001953125 L 1.881591796875 0.010986328125 L 2.074951171875 0.010986328125 L 1.84716796875 1.261962890625 L 1.63037109375 1.261962890625 L 1.4033203125 0.010986328125 M 2.203125 0.010986328125 L 2.666748046875 0.010986328125 L 2.666748046875 0.160400390625 L 2.392822265625 0.160400390625 L 2.392822265625 0.53466796875 L 2.6044921875 0.53466796875 L 2.6044921875 0.68408203125 L 2.392822265625 0.68408203125 L 2.392822265625 1.112548828125 L 2.674072265625 1.112548828125 L 2.674072265625 1.261962890625 L 2.203125 1.261962890625 L 2.203125 0.010986328125 M 2.818359375 0.010986328125 L 3.024169921875 0.010986328125 Q 3.059326171875 0.010986328125 3.1014404296875 0.013916015625 Q 3.1435546875 0.016845703125 3.1856689453125 0.0281982421875 Q 3.227783203125 0.03955078125 3.2669677734375 0.062255859375 Q 3.30615234375 0.0849609375 3.3365478515625 0.12451171875 Q 3.366943359375 0.1640625 3.38525390625 0.2237548828125 Q 3.403564453125 0.283447265625 3.403564453125 0.368408203125 L 3.403564453125 0.39990234375 Q 3.403564453125 0.542724609375 3.362548828125 0.6324462890625 Q 3.321533203125 0.72216796875 3.24169921875 0.76171875 L 3.4423828125 1.261962890625 L 3.24169921875 1.261962890625 L 3.075439453125 0.7939453125 L 3.00439453125 0.7939453125 L 3.00439453125 1.261962890625 L 2.818359375 1.261962890625 L 2.818359375 0.010986328125 M 3.032958984375 0.656982421875 Q 3.082763671875 0.656982421875 3.1171875 0.64599609375 Q 3.151611328125 0.635009765625 3.1728515625 0.6090087890625 Q 3.194091796875 0.5830078125 3.20361328125 0.5401611328125 Q 3.213134765625 0.497314453125 3.213134765625 0.434326171875 L 3.213134765625 0.33544921875 Q 3.213134765625 0.287109375 3.204345703125 0.251953125 Q 3.195556640625 0.216796875 3.1746826171875 0.194091796875 Q 3.15380859375 0.17138671875 3.119384765625 0.160400390625 Q 3.0849609375 0.1494140625 3.032958984375 0.1494140625 L 3.00439453125 0.1494140625 L 3.00439453125 0.656982421875 L 3.032958984375 0.656982421875 M 3.73095703125 0.010986328125 L 3.94921875 0.010986328125 L 4.1806640625 1.261962890625 L 3.98876953125 1.261962890625 L 3.954345703125 1.037841796875 L 3.725830078125 1.037841796875 L 3.69287109375 1.261962890625 L 3.500244140625 1.261962890625 L 3.73095703125 0.010986328125 M 3.932373046875 0.89501953125 L 3.844482421875 0.271728515625 L 3.83642578125 0.271728515625 L 3.747802734375 0.89501953125 L 3.932373046875 0.89501953125 M 4.5615234375 1.273681640625 Q 4.53955078125 1.273681640625 4.51025390625 1.2689208984375 Q 4.48095703125 1.26416015625 4.4498291015625 1.248779296875 Q 4.418701171875 1.2333984375 4.388671875 1.2052001953125 Q 4.358642578125 1.177001953125 4.3348388671875 1.1304931640625 Q 4.31103515625 1.083984375 4.29638671875 1.0162353515625 Q 4.28173828125 0.948486328125 4.28173828125 0.854736328125 L 4.28173828125 0.41162109375 Q 4.28173828125 0.317138671875 4.297119140625 0.2501220703125 Q 4.3125 0.18310546875 4.338134765625 0.1373291015625 Q 4.36376953125 0.091552734375 4.3970947265625 0.064453125 Q 4.430419921875 0.037353515625 4.46630859375 0.0230712890625 Q 4.502197265625 0.0087890625 4.537353515625 0.00439453125 Q 4.572509765625 0 4.6025390625 0 Q 4.6787109375 0 4.7310791015625 0.0208740234375 Q 4.783447265625 0.041748046875 4.8160400390625 0.0780029296875 Q 4.8486328125 0.1142578125 4.8629150390625 0.16259765625 Q 4.877197265625 0.2109375 4.877197265625 0.26513671875 Q 4.877197265625 0.305419921875 4.8724365234375 0.3394775390625 Q 4.86767578125 0.37353515625 4.859619140625 0.41455078125 L 4.7080078125 0.41455078125 L 4.7080078125 0.355224609375 Q 4.7080078125 0.1494140625 4.597412109375 0.1494140625 Q 4.5673828125 0.1494140625 4.54541015625 0.15966796875 Q 4.5234375 0.169921875 4.5087890625 0.1944580078125 Q 4.494140625 0.218994140625 4.4871826171875 0.25927734375 Q 4.480224609375 0.299560546875 4.480224609375 0.359619140625 L 4.480224609375 0.926513671875 Q 4.480224609375 0.985107421875 4.4871826171875 1.02392578125 Q 4.494140625 1.062744140625 4.5084228515625 1.086181640625 Q 4.522705078125 1.109619140625 4.5443115234375 1.1195068359375 Q 4.56591796875 1.12939453125 4.595947265625 1.12939453125 Q 4.62744140625 1.12939453125 4.650146484375 1.1129150390625 Q 4.6728515625 1.096435546875 4.6875 1.06787109375 Q 4.7021484375 1.039306640625 4.7091064453125 1.00048828125 Q 4.716064453125 0.961669921875 4.716064453125 0.916259765625 L 4.716064453125 0.7529296875 L 4.61865234375 0.7529296875 L 4.61865234375 0.62841796875 L 4.900634765625 0.62841796875 L 4.900634765625 1.261962890625 L 4.774658203125 1.261962890625 L 4.754150390625 1.143310546875 Q 4.71826171875 1.212890625 4.6717529296875 1.2432861328125 Q 4.625244140625 1.273681640625 4.5615234375 1.273681640625 M 5.0830078125 0.010986328125 L 5.546630859375 0.010986328125 L 5.546630859375 0.160400390625 L 5.272705078125 0.160400390625 L 5.272705078125 0.53466796875 L 5.484375 0.53466796875 L 5.484375 0.68408203125 L 5.272705078125 0.68408203125 L 5.272705078125 1.112548828125 L 5.553955078125 1.112548828125 L 5.553955078125 1.261962890625 L 5.0830078125 1.261962890625 L 5.0830078125 0.010986328125 M 5.64990234375 1.008544921875 Q 5.64990234375 0.96826171875 5.6546630859375 0.9342041015625 Q 5.659423828125 0.900146484375 5.6689453125 0.860595703125 L 5.816162109375 0.860595703125 L 5.816162109375 0.92138671875 Q 5.816162109375 0.971923828125 5.8223876953125 1.0107421875 Q 5.82861328125 1.049560546875 5.8428955078125 1.0762939453125 Q 5.857177734375 1.10302734375 5.8809814453125 1.1165771484375 Q 5.90478515625 1.130126953125 5.939208984375 1.130126953125 Q 5.993408203125 1.130126953125 6.02197265625 1.1004638671875 Q 6.050537109375 1.07080078125 6.050537109375 1.013671875 Q 6.050537109375 0.984375 6.0465087890625 0.9598388671875 Q 6.04248046875 0.935302734375 6.0325927734375 0.9111328125 Q 6.022705078125 0.886962890625 6.005859375 0.8602294921875 Q 5.989013671875 0.83349609375 5.962646484375 0.800537109375 L 5.764892578125 0.5654296875 Q 5.712158203125 0.498046875 5.68359375 0.4295654296875 Q 5.655029296875 0.361083984375 5.655029296875 0.283447265625 Q 5.655029296875 0.22119140625 5.6744384765625 0.169189453125 Q 5.69384765625 0.1171875 5.73046875 0.0794677734375 Q 5.76708984375 0.041748046875 5.8209228515625 0.0208740234375 Q 5.874755859375 0 5.94287109375 0 Q 6.025634765625 0 6.0809326171875 0.0234375 Q 6.13623046875 0.046875 6.169189453125 0.0849609375 Q 6.2021484375 0.123046875 6.2156982421875 0.1702880859375 Q 6.229248046875 0.217529296875 6.229248046875 0.26513671875 Q 6.229248046875 0.305419921875 6.2230224609375 0.3394775390625 Q 6.216796875 0.37353515625 6.208740234375 0.41455078125 L 6.062255859375 0.41455078125 L 6.062255859375 0.355224609375 Q 6.062255859375 0.255615234375 6.03369140625 0.2025146484375 Q 6.005126953125 0.1494140625 5.940673828125 0.1494140625 Q 5.88720703125 0.1494140625 5.86083984375 0.1790771484375 Q 5.83447265625 0.208740234375 5.83447265625 0.258544921875 Q 5.83447265625 0.284912109375 5.8385009765625 0.30615234375 Q 5.842529296875 0.327392578125 5.8502197265625 0.3453369140625 Q 5.85791015625 0.36328125 5.868896484375 0.380126953125 Q 5.8798828125 0.39697265625 5.893798828125 0.415283203125 L 6.1142578125 0.681884765625 Q 6.17431640625 0.76025390625 6.20654296875 0.8323974609375 Q 6.23876953125 0.904541015625 6.23876953125 0.985107421875 Q 6.23876953125 1.0517578125 6.2178955078125 1.105224609375 Q 6.197021484375 1.15869140625 6.158203125 1.196044921875 Q 6.119384765625 1.2333984375 6.064453125 1.2535400390625 Q 6.009521484375 1.273681640625 5.940673828125 1.273681640625 Q 5.855712890625 1.273681640625 5.7996826171875 1.2509765625 Q 5.74365234375 1.228271484375 5.7103271484375 1.19091796875 Q 5.677001953125 1.153564453125 5.6634521484375 1.10595703125 Q 5.64990234375 1.058349609375 5.64990234375 1.008544921875" fill="#390c14" fill-rule="nonzero"></path></g><g></g><g clip-path="url(#SvgjsClipPath1002)"><g clip-path="url(#a93e29000-3860-4031-967b-e5e5e7944185e39b327b-6b27-4333-92ae-aa97ef420162)"><path d=" M 4.696980924784145 -3.6297743880268656 C 4.698866520318553 -3.9543348077308416 4.558142511842922 -4.289622984552902 4.0776634788714885 -4.378026293636917 L 4.0776634788714885 -5.436962100357926 L 4.121196936937711 -5.436962100357926 L 4.121196936937711 -5.698602210821529 L 3.6403334621582912 -5.698602210821529 L 3.6403334621582912 -5.436962100357926 L 3.6838669202245136 -5.436962100357926 L 3.6838669202245136 -4.378026293636917 C 3.203369580500319 -4.289622984552902 3.0626455720246875 -3.9543348077308416 3.064531167559095 -3.6297743880268656 L 3.063817204201407 -3.6297743880268656 L 3.1817676122420586 -0.2500000000000009 L 4.598838423231152 -0.2500000000000009 L 4.697694888141834 -3.6297743880268656 Z" fill="#390c14" transform="matrix(1,0,0,1,0,0)" fill-rule="nonzero"></path></g><g clip-path="url(#a93e29000-3860-4031-967b-e5e5e7944185e39b327b-6b27-4333-92ae-aa97ef420162)"><path d=" M 2.675494364630042 -3.0668966608771027 L 2.2794643821461964 -3.0705763181821113 L 2.2367547279542297 -3.0705763181821113 L 1.8643221497796187 -3.071125520764949 C 1.5296930160569626 -2.61971761117836 1.5999543331545911 -2.197911720806692 1.5999543331545911 -2.197911720806692 L 1.5999177196490686 -2.1975455857514667 L 1.5999543331545911 -2.1971977574490036 L 1.5999543331545911 -2.1817834716240414 L 1.6004303087263834 -2.1817834716240414 C 1.6101328876898393 -1.9057542534901062 1.8722489737252346 -1.6809656363348733 2.206347211617815 -1.6541462435396603 L 2.205376953721469 -0.5424869888662887 C 2.205376953721469 -0.46266954682729455 2.244571711383278 -0.34217450015283113 1.6549295116965868 -0.3434010525878328 C 1.6549295116965868 -0.3434010525878328 1.593931411496144 -0.3379090267594629 1.593931411496144 -0.2773319818725266 C 1.593931411496144 -0.2773319818725266 1.6120001764714853 -0.26351038353779455 1.6535381984867326 -0.26305271471876335 L 2.85316140017785 -0.26305271471876335 C 2.8946811154403362 -0.26351038353779455 2.9127498804156775 -0.2773319818725266 2.9127498804156775 -0.2773319818725266 C 2.9127498804156775 -0.3379090267594629 2.851751780215235 -0.3434010525878328 2.851751780215235 -0.3434010525878328 C 2.262109580528543 -0.34217450015283113 2.3108604631317187 -0.46266954682729455 2.3108604631317187 -0.5424869888662887 L 2.309890205235373 -1.6541462435396603 C 2.6439701363751915 -1.6809656363348733 2.9061045291633483 -1.9057542534901062 2.9158071081268044 -2.1817834716240414 L 2.9162830836985965 -2.1817834716240414 L 2.9162830836985965 -2.1971977574490036 L 2.9163013904513573 -2.197545585751467 L 2.9162830836985965 -2.197911720806692 C 2.9162830836985965 -2.197911720806692 3.0101234983526988 -2.615507058043275 2.675494364630042 -3.0668966608771027" fill="#c771a3" transform="matrix(1,0,0,1,0,0)" fill-rule="nonzero"></path></g><g clip-path="url(#a93e29000-3860-4031-967b-e5e5e7944185e39b327b-6b27-4333-92ae-aa97ef420162)"><path d=" M 1.7259047921519035 -2.2472667262509876 L 2.7880076671006067 -2.2472667262509876 C 2.7880076671006067 -2.2472667262509876 2.806808702186397 -1.7791996716516727 2.280452946795303 -1.7402795152812822 C 2.280452946795303 -1.7402795152812822 1.7259047921519035 -1.7402795152812822 1.7259047921519035 -2.2472667262509876" fill="#a5497e" transform="matrix(1,0,0,1,0,0)" fill-rule="nonzero"></path></g></g></g><defs><clipPath id="SvgjsClipPath1002"><path d=" M 1.5938090181081657 -5.698602210821529 h 3.1038858700336687 v 5.448602210821529 h -3.1038858700336687 Z"></path></clipPath><clipPath id="a93e29000-3860-4031-967b-e5e5e7944185e39b327b-6b27-4333-92ae-aa97ef420162"><path d=" M 1.5938032642268154 -0.24998169324723918 L 4.697694888141834 -0.24998169324723918 L 4.697694888141834 -5.698583904068768 L 1.5938032642268154 -5.698583904068768 Z"></path></clipPath></defs></svg>