<svg xmlns="http://www.w3.org/2000/svg" version="1.1"
     viewBox="0 0 22.881393334882773 21.656386410914042"><g transform="matrix(1,0,0,1,1.8548983275976383,18.707988083316405)"><rect width="22.881393334882773" height="22.881393334882773" x="-1.8548983275976383" y="-19.32049154530077" fill="#262626"></rect><g><path d=" M 0.033 0.537 Q 0.033 0.4395 0.06975 0.34575 Q 0.1065 0.252 0.177 0.1755 Q 0.2475 0.09899999999999998 0.34875 0.05325000000000002 Q 0.45 0.007500000000000062 0.5775 0.007500000000000062 Q 0.7305 0.007500000000000062 0.8445 0.07125000000000004 Q 0.9585 0.135 1.014 0.24 L 0.7905 0.399 Q 0.771 0.34650000000000003 0.7342500000000001 0.31799999999999995 Q 0.6975 0.2895 0.65475 0.27825 Q 0.612 0.267 0.5715 0.267 Q 0.5085000000000001 0.267 0.46275 0.29174999999999995 Q 0.417 0.3165 0.38775 0.357 Q 0.3585 0.39749999999999996 0.34425 0.44699999999999995 Q 0.33 0.49650000000000005 0.33 0.546 Q 0.33 0.6014999999999999 0.34650000000000003 0.6525000000000001 Q 0.363 0.7035 0.3945 0.74325 Q 0.426 0.783 0.47175 0.8055 Q 0.5175 0.8280000000000001 0.5745 0.8280000000000001 Q 0.615 0.8280000000000001 0.657 0.81525 Q 0.6990000000000001 0.8025 0.7335 0.774 Q 0.768 0.7455 0.786 0.6975 L 1.0245 0.84 Q 0.993 0.918 0.9195 0.9735 Q 0.846 1.029 0.753 1.05825 Q 0.66 1.0875 0.5685 1.0875 Q 0.45 1.0875 0.35175 1.0402500000000001 Q 0.2535 0.993 0.18225 0.91425 Q 0.111 0.8355 0.07200000000000001 0.73725 Q 0.033 0.639 0.033 0.537 M 1.142968505859375 1.0785 L 1.142968505859375 0.013500000000000068 L 1.435468505859375 0.013500000000000068 L 1.435468505859375 0.8235 L 1.9184685058593751 0.8235 L 1.9184685058593751 1.0785 L 1.142968505859375 1.0785 M 2.7945014648437505 0.8235 L 2.7945014648437505 1.0785 L 2.03550146484375 1.0785 L 2.03550146484375 0.013500000000000068 L 2.78100146484375 0.013500000000000068 L 2.78100146484375 0.26849999999999996 L 2.32800146484375 0.26849999999999996 L 2.32800146484375 0.4185 L 2.71500146484375 0.4185 L 2.71500146484375 0.6555 L 2.32800146484375 0.6555 L 2.32800146484375 0.8235 L 2.7945014648437505 0.8235 M 3.1919787597656253 0.013500000000000068 L 3.5189787597656252 0.013500000000000068 L 3.8579787597656257 1.0785 L 3.5609787597656255 1.0785 L 3.4964787597656253 0.87 L 3.212978759765625 0.87 L 3.1499787597656255 1.0785 L 2.8514787597656253 1.0785 L 3.1919787597656253 0.013500000000000068 M 3.4499787597656253 0.675 L 3.3554787597656253 0.30000000000000004 L 3.2564787597656255 0.675 L 3.4499787597656253 0.675 M 4.253967041015626 0.555 L 4.253967041015626 1.0785 L 3.9614670410156254 1.0785 L 3.9614670410156254 0.013500000000000068 L 4.189467041015625 0.013500000000000068 L 4.616967041015625 0.555 L 4.616967041015625 0.013500000000000068 L 4.909467041015626 0.013500000000000068 L 4.909467041015626 1.0785 L 4.676967041015626 1.0785 L 4.253967041015626 0.555 M 5.107509521484376 1.0785 L 5.107509521484376 0.013500000000000068 L 5.400009521484376 0.013500000000000068 L 5.400009521484376 1.0785 L 5.107509521484376 1.0785 M 5.890534423828126 0.555 L 5.890534423828126 1.0785 L 5.598034423828126 1.0785 L 5.598034423828126 0.013500000000000068 L 5.826034423828125 0.013500000000000068 L 6.253534423828126 0.555 L 6.253534423828126 0.013500000000000068 L 6.546034423828126 0.013500000000000068 L 6.546034423828126 1.0785 L 6.313534423828126 1.0785 L 5.890534423828126 0.555 M 7.204576904296875 1.086 Q 7.1010769042968755 1.086 7.0073269042968755 1.04925 Q 6.9135769042968755 1.0125 6.8415769042968755 0.94125 Q 6.769576904296875 0.87 6.728326904296876 0.76875 Q 6.687076904296876 0.6675 6.687076904296876 0.537 Q 6.687076904296876 0.4245 6.729076904296876 0.3285 Q 6.7710769042968755 0.23250000000000004 6.845326904296876 0.15974999999999995 Q 6.919576904296876 0.08699999999999997 7.018576904296875 0.046499999999999986 Q 7.117576904296875 0.006000000000000005 7.233076904296875 0.006000000000000005 Q 7.377076904296875 0.006000000000000005 7.494076904296875 0.06824999999999992 Q 7.611076904296875 0.13049999999999995 7.668076904296876 0.23850000000000005 L 7.4505769042968755 0.405 Q 7.419076904296875 0.34199999999999997 7.356076904296875 0.30374999999999996 Q 7.293076904296876 0.26549999999999996 7.222576904296876 0.26549999999999996 Q 7.1700769042968755 0.26549999999999996 7.126576904296876 0.2865 Q 7.083076904296876 0.3075 7.050826904296875 0.345 Q 7.018576904296875 0.38249999999999995 7.001326904296875 0.43425 Q 6.9840769042968756 0.486 6.9840769042968756 0.5475 Q 6.9840769042968756 0.6105 7.002076904296875 0.6615 Q 7.020076904296875 0.7125 7.0523269042968755 0.74925 Q 7.084576904296876 0.786 7.129576904296876 0.80625 Q 7.174576904296876 0.8265 7.230076904296875 0.8265 Q 7.300576904296875 0.8265 7.365076904296876 0.79125 Q 7.429576904296876 0.756 7.482076904296876 0.6915 L 7.482076904296876 0.9765 Q 7.362076904296876 1.086 7.204576904296875 1.086 M 7.467076904296875 0.7215 L 7.270576904296876 0.7215 L 7.270576904296876 0.5115 L 7.7085769042968755 0.5115 L 7.7085769042968755 1.0785 L 7.467076904296875 1.0785 L 7.467076904296875 0.7215 M 8.887560791015627 1.0785 L 8.413560791015627 0.5715 Q 8.350560791015626 0.504 8.313060791015626 0.45599999999999996 Q 8.275560791015627 0.40800000000000003 8.259810791015626 0.366 Q 8.244060791015627 0.32399999999999995 8.244060791015627 0.27449999999999997 Q 8.244060791015627 0.1875 8.284560791015627 0.126 Q 8.325060791015627 0.0645 8.396310791015626 0.03224999999999989 Q 8.467560791015627 0 8.556060791015627 0 Q 8.634060791015626 0 8.705310791015627 0.026249999999999885 Q 8.776560791015626 0.05249999999999999 8.823060791015626 0.10875000000000001 Q 8.869560791015626 0.16500000000000004 8.869560791015626 0.25649999999999995 Q 8.869560791015626 0.32999999999999996 8.837310791015627 0.39149999999999996 Q 8.805060791015627 0.45299999999999996 8.748810791015627 0.504 Q 8.692560791015627 0.555 8.620560791015627 0.597 Q 8.572560791015627 0.6255 8.534310791015626 0.65025 Q 8.496060791015626 0.675 8.475060791015627 0.69975 Q 8.454060791015626 0.7245 8.454060791015626 0.7545 Q 8.454060791015626 0.7755000000000001 8.466810791015627 0.80325 Q 8.479560791015627 0.831 8.508810791015627 0.8512500000000001 Q 8.538060791015626 0.8714999999999999 8.586060791015626 0.8714999999999999 Q 8.635560791015626 0.8714999999999999 8.688810791015626 0.8452500000000001 Q 8.742060791015627 0.819 8.787810791015627 0.7665 Q 8.833560791015627 0.714 8.861310791015626 0.636 Q 8.889060791015627 0.558 8.889060791015627 0.4545 L 9.118560791015627 0.4545 Q 9.117060791015627 0.618 9.067560791015627 0.73875 Q 9.018060791015627 0.8595 8.936310791015627 0.93825 Q 8.854560791015626 1.017 8.755560791015627 1.05525 Q 8.656560791015627 1.0935 8.556060791015627 1.0935 Q 8.433060791015627 1.0935 8.349060791015626 1.04325 Q 8.265060791015626 0.993 8.223060791015627 0.915 Q 8.181060791015627 0.837 8.181060791015627 0.7545 Q 8.181060791015627 0.6675 8.220810791015627 0.603 Q 8.260560791015626 0.5385 8.319060791015627 0.49050000000000005 Q 8.377560791015627 0.4425 8.433060791015627 0.40800000000000003 Q 8.497560791015626 0.36750000000000005 8.535810791015626 0.345 Q 8.574060791015626 0.3225 8.591310791015626 0.30374999999999996 Q 8.608560791015627 0.28500000000000003 8.608560791015627 0.25949999999999995 Q 8.608560791015627 0.23399999999999999 8.594310791015626 0.22050000000000003 Q 8.580060791015626 0.20699999999999996 8.556060791015627 0.20699999999999996 Q 8.539560791015626 0.20699999999999996 8.526810791015627 0.21450000000000002 Q 8.514060791015627 0.22199999999999998 8.508060791015627 0.23399999999999999 Q 8.502060791015627 0.246 8.502060791015627 0.26249999999999996 Q 8.502060791015627 0.28200000000000003 8.514810791015627 0.29774999999999996 Q 8.527560791015627 0.3135 8.557560791015627 0.33975 Q 8.587560791015626 0.366 8.638560791015626 0.4215 L 9.261060791015627 1.0785 L 8.887560791015627 1.0785 M 10.653059326171878 0.013500000000000068 L 10.653059326171878 1.0785 L 10.360559326171877 1.0785 L 10.360559326171877 0.6615 L 10.003559326171878 0.6615 L 10.003559326171878 1.0785 L 9.711059326171878 1.0785 L 9.711059326171878 0.013500000000000068 L 10.003559326171878 0.013500000000000068 L 10.003559326171878 0.4065 L 10.360559326171877 0.4065 L 10.360559326171877 0.013500000000000068 L 10.653059326171878 0.013500000000000068 M 11.331059326171879 1.0875 Q 11.209559326171878 1.0875 11.11055932617188 1.04175 Q 11.011559326171879 0.996 10.940309326171878 0.91875 Q 10.869059326171879 0.8415 10.830809326171877 0.74475 Q 10.792559326171878 0.648 10.792559326171878 0.5445 Q 10.792559326171878 0.43800000000000006 10.833059326171878 0.34199999999999997 Q 10.873559326171879 0.246 10.946309326171878 0.17025 Q 11.019059326171877 0.09450000000000003 11.118809326171878 0.050999999999999934 Q 11.218559326171878 0.007500000000000062 11.337059326171879 0.007500000000000062 Q 11.458559326171878 0.007500000000000062 11.557559326171878 0.05325000000000002 Q 11.656559326171879 0.09899999999999998 11.727059326171878 0.17700000000000005 Q 11.797559326171879 0.255 11.835809326171878 0.35175 Q 11.874059326171878 0.4485 11.874059326171878 0.5505 Q 11.874059326171878 0.6555 11.834309326171878 0.7515000000000001 Q 11.794559326171878 0.8475 11.72180932617188 0.92325 Q 11.649059326171878 0.999 11.550059326171878 1.04325 Q 11.451059326171878 1.0875 11.331059326171879 1.0875 M 11.089559326171878 0.5475 Q 11.089559326171878 0.6014999999999999 11.104559326171879 0.65175 Q 11.119559326171878 0.702 11.149559326171879 0.74175 Q 11.179559326171878 0.7815000000000001 11.225309326171878 0.8047500000000001 Q 11.271059326171878 0.8280000000000001 11.334059326171879 0.8280000000000001 Q 11.397059326171878 0.8280000000000001 11.443559326171878 0.804 Q 11.490059326171878 0.78 11.519309326171879 0.73875 Q 11.548559326171878 0.6975 11.562809326171879 0.64725 Q 11.577059326171879 0.597 11.577059326171879 0.5445 Q 11.577059326171879 0.49050000000000005 11.562059326171878 0.44099999999999995 Q 11.547059326171878 0.39149999999999996 11.517059326171879 0.35175 Q 11.487059326171877 0.31199999999999994 11.44055932617188 0.2895 Q 11.394059326171877 0.267 11.332559326171879 0.267 Q 11.269559326171878 0.267 11.223809326171878 0.29100000000000004 Q 11.178059326171878 0.31499999999999995 11.148059326171879 0.35475 Q 11.118059326171878 0.39449999999999996 11.103809326171879 0.44475 Q 11.089559326171878 0.495 11.089559326171878 0.5475 M 12.478581298828129 1.0875 Q 12.351081298828129 1.0875 12.25958129882813 1.0455 Q 12.16808129882813 1.0035 12.110331298828129 0.93 Q 12.052581298828128 0.8565 12.02558129882813 0.76125 Q 11.998581298828128 0.6659999999999999 11.998581298828128 0.561 L 11.998581298828128 0.013500000000000068 L 12.291081298828129 0.013500000000000068 L 12.291081298828129 0.561 Q 12.291081298828129 0.6134999999999999 12.301581298828129 0.6615 Q 12.31208129882813 0.7095 12.334581298828128 0.747 Q 12.35708129882813 0.7845 12.392331298828129 0.80625 Q 12.427581298828128 0.8280000000000001 12.478581298828129 0.8280000000000001 Q 12.531081298828129 0.8280000000000001 12.567081298828128 0.80625 Q 12.60308129882813 0.7845 12.624831298828129 0.7462500000000001 Q 12.64658129882813 0.708 12.657081298828128 0.66 Q 12.667581298828129 0.612 12.667581298828129 0.561 L 12.667581298828129 0.013500000000000068 L 12.960081298828129 0.013500000000000068 L 12.960081298828129 0.561 Q 12.960081298828129 0.6719999999999999 12.930831298828128 0.768 Q 12.901581298828129 0.864 12.843081298828128 0.9359999999999999 Q 12.78458129882813 1.008 12.69383129882813 1.04775 Q 12.60308129882813 1.0875 12.478581298828129 1.0875 M 13.788052734375004 0.36150000000000004 Q 13.788052734375004 0.36150000000000004 13.762552734375005 0.34650000000000003 Q 13.737052734375004 0.3315 13.695052734375004 0.31275 Q 13.653052734375004 0.29400000000000004 13.603552734375004 0.279 Q 13.554052734375004 0.264 13.506052734375004 0.264 Q 13.468552734375004 0.264 13.444552734375005 0.276 Q 13.420552734375004 0.28800000000000003 13.420552734375004 0.3165 Q 13.420552734375004 0.3435 13.444552734375005 0.36 Q 13.468552734375004 0.37649999999999995 13.512802734375004 0.39 Q 13.557052734375004 0.40349999999999997 13.618552734375005 0.42300000000000004 Q 13.717552734375005 0.45299999999999996 13.789552734375004 0.492 Q 13.861552734375005 0.531 13.900552734375005 0.59175 Q 13.939552734375004 0.6525000000000001 13.939552734375004 0.753 Q 13.939552734375004 0.849 13.905052734375005 0.91425 Q 13.870552734375005 0.9795 13.812052734375005 1.0185 Q 13.753552734375004 1.0575 13.681552734375005 1.07475 Q 13.609552734375004 1.092 13.534552734375005 1.092 Q 13.458052734375004 1.092 13.374802734375004 1.07625 Q 13.291552734375005 1.0605 13.213552734375005 1.03275 Q 13.135552734375004 1.0050000000000001 13.071052734375005 0.9675 L 13.197052734375005 0.7110000000000001 Q 13.197052734375005 0.7110000000000001 13.227052734375004 0.729 Q 13.257052734375005 0.747 13.306552734375005 0.7695000000000001 Q 13.356052734375005 0.792 13.416802734375004 0.81 Q 13.477552734375005 0.8280000000000001 13.539052734375005 0.8280000000000001 Q 13.587052734375005 0.8280000000000001 13.605802734375004 0.81525 Q 13.624552734375005 0.8025 13.624552734375005 0.7815000000000001 Q 13.624552734375005 0.75 13.591552734375004 0.73275 Q 13.558552734375004 0.7155 13.505302734375004 0.69975 Q 13.452052734375004 0.6839999999999999 13.387552734375005 0.663 Q 13.294552734375005 0.6315 13.234552734375004 0.59175 Q 13.174552734375004 0.552 13.146052734375004 0.49724999999999997 Q 13.117552734375005 0.4425 13.117552734375005 0.36450000000000005 Q 13.117552734375005 0.246 13.173052734375004 0.16649999999999998 Q 13.228552734375004 0.08699999999999997 13.319302734375004 0.04574999999999996 Q 13.410052734375004 0.0044999999999999485 13.515052734375004 0.0044999999999999485 Q 13.593052734375004 0.0044999999999999485 13.665802734375005 0.023249999999999993 Q 13.738552734375004 0.04200000000000004 13.802302734375004 0.06899999999999995 Q 13.866052734375005 0.09599999999999997 13.914052734375005 0.12 L 13.788052734375004 0.36150000000000004 M 14.84255932617188 0.8235 L 14.84255932617188 1.0785 L 14.08355932617188 1.0785 L 14.08355932617188 0.013500000000000068 L 14.82905932617188 0.013500000000000068 L 14.82905932617188 0.26849999999999996 L 14.37605932617188 0.26849999999999996 L 14.37605932617188 0.4185 L 14.76305932617188 0.4185 L 14.76305932617188 0.6555 L 14.37605932617188 0.6555 L 14.37605932617188 0.8235 L 14.84255932617188 0.8235 M 15.936036621093756 0.013500000000000068 L 15.936036621093756 1.0785 L 15.643536621093755 1.0785 L 15.643536621093755 0.6615 L 15.286536621093756 0.6615 L 15.286536621093756 1.0785 L 14.994036621093755 1.0785 L 14.994036621093755 0.013500000000000068 L 15.286536621093756 0.013500000000000068 L 15.286536621093756 0.4065 L 15.643536621093755 0.4065 L 15.643536621093755 0.013500000000000068 L 15.936036621093756 0.013500000000000068 M 16.614036621093756 1.0875 Q 16.492536621093755 1.0875 16.393536621093755 1.04175 Q 16.294536621093755 0.996 16.223286621093756 0.91875 Q 16.152036621093757 0.8415 16.113786621093755 0.74475 Q 16.075536621093757 0.648 16.075536621093757 0.5445 Q 16.075536621093757 0.43800000000000006 16.116036621093755 0.34199999999999997 Q 16.156536621093757 0.246 16.229286621093756 0.17025 Q 16.302036621093755 0.09450000000000003 16.401786621093756 0.050999999999999934 Q 16.501536621093756 0.007500000000000062 16.620036621093757 0.007500000000000062 Q 16.741536621093758 0.007500000000000062 16.840536621093754 0.05325000000000002 Q 16.939536621093755 0.09899999999999998 17.010036621093757 0.17700000000000005 Q 17.080536621093756 0.255 17.118786621093754 0.35175 Q 17.157036621093756 0.4485 17.157036621093756 0.5505 Q 17.157036621093756 0.6555 17.117286621093758 0.7515000000000001 Q 17.077536621093756 0.8475 17.004786621093757 0.92325 Q 16.932036621093758 0.999 16.833036621093758 1.04325 Q 16.734036621093757 1.0875 16.614036621093756 1.0875 M 16.372536621093754 0.5475 Q 16.372536621093754 0.6014999999999999 16.387536621093755 0.65175 Q 16.402536621093756 0.702 16.432536621093757 0.74175 Q 16.462536621093758 0.7815000000000001 16.508286621093756 0.8047500000000001 Q 16.554036621093758 0.8280000000000001 16.617036621093757 0.8280000000000001 Q 16.680036621093755 0.8280000000000001 16.726536621093757 0.804 Q 16.773036621093755 0.78 16.802286621093756 0.73875 Q 16.831536621093758 0.6975 16.845786621093755 0.64725 Q 16.860036621093755 0.597 16.860036621093755 0.5445 Q 16.860036621093755 0.49050000000000005 16.845036621093755 0.44099999999999995 Q 16.830036621093758 0.39149999999999996 16.800036621093756 0.35175 Q 16.770036621093755 0.31199999999999994 16.723536621093757 0.2895 Q 16.677036621093755 0.267 16.615536621093757 0.267 Q 16.552536621093758 0.267 16.506786621093756 0.29100000000000004 Q 16.461036621093758 0.31499999999999995 16.431036621093757 0.35475 Q 16.401036621093755 0.39449999999999996 16.386786621093755 0.44475 Q 16.372536621093754 0.495 16.372536621093754 0.5475 M 17.296558593750007 1.0785 L 17.296558593750007 0.013500000000000068 L 17.589058593750007 0.013500000000000068 L 17.589058593750007 0.8235 L 18.072058593750008 0.8235 L 18.072058593750008 1.0785 L 17.296558593750007 1.0785 M 18.189091552734382 1.0785 L 18.189091552734382 0.013500000000000068 L 18.598591552734383 0.013500000000000068 Q 18.775591552734383 0.013500000000000068 18.894841552734384 0.08474999999999999 Q 19.01409155273438 0.15600000000000003 19.074841552734384 0.27675000000000005 Q 19.135591552734383 0.39749999999999996 19.135591552734383 0.5445 Q 19.135591552734383 0.7065 19.068841552734384 0.8265 Q 19.00209155273438 0.9465 18.881341552734384 1.0125 Q 18.760591552734383 1.0785 18.598591552734383 1.0785 L 18.189091552734382 1.0785 M 18.838591552734382 0.5445 Q 18.838591552734382 0.46199999999999997 18.81009155273438 0.39975000000000005 Q 18.781591552734383 0.3375 18.72759155273438 0.30300000000000005 Q 18.673591552734383 0.26849999999999996 18.598591552734383 0.26849999999999996 L 18.481591552734383 0.26849999999999996 L 18.481591552734383 0.8235 L 18.598591552734383 0.8235 Q 18.675091552734383 0.8235 18.72834155273438 0.7875000000000001 Q 18.781591552734383 0.7515000000000001 18.81009155273438 0.6877500000000001 Q 18.838591552734382 0.624 18.838591552734382 0.5445" fill="#ffffff" fill-rule="nonzero"></path></g><g></g><g clip-path="url(#SvgjsClipPath1002)"><g clip-path="url(#a12678b33-7a74-40ca-ab03-ea044f230571697bc3fb-eba8-43ae-b756-49bab41bcff6)"><path d=" M 6.485595758434731 -9.847697026415794 L 5.707877905627252 -10.88456562548551 L 1.861609808898824 -10.88456562548551 C 1.6895804614483538 -10.88456562548551 1.5498674865246052 -10.742462124374855 1.5498674865246052 -10.56680271864056 L 1.5498674865246052 -9.906220648991585 C 1.5498674865246052 -9.730561243257291 1.6895804614483538 -9.588457742146634 1.861609808898824 -9.588457742146634 L 2.3292675614636122 -9.588457742146634 C 2.3292675614636122 -9.588457742146634 3.6341407074878185 -9.62192510876335 3.6341407074878185 -8.033110574538599 L 5.967117189896412 -8.033110574538599 C 5.967117189896412 -8.033110574538599 5.862111113686295 -9.529934119570843 6.485595758434731 -9.847697026415794 Z M 2.59718357041118 -10.88456562548551 L 2.59718357041118 -9.588457742146634 M 3.6341407074878185 -6.996241975468884 L 5.967117189896412 -6.996241975468884 M 3.6341407074878185 -8.033110574538599 L 3.6341407074878185 -6.996241975468884 C 3.6341407074878185 -6.996241975468884 3.5272753331323283 -6.0764206215507475 2.8459753698634813 -5.181655523591688 C 2.171758447148436 -4.296186916359494 1.5603149713414635 -3.659775722600367 1.5603149713414635 -2.070961188375616 L 1.5603149713414635 -1.5525711578442216 C 1.5603149713414635 -1.0259470926690248 1.9688293352820032 -0.515614020767579 2.4851829916541823 -0.515614020767579 L 5.448727159365014 -0.515614020767579 C 6.021390988139921 -0.515614020767579 6.485595758434731 -0.9799073290693112 6.485595758434731 -1.5525711578442216 L 6.485595758434731 -2.848679041183093 C 6.485595758434731 -4.596330759826861 5.967117189896412 -6.218524122661403 5.967117189896412 -6.996241975468882 L 5.967117189896412 -8.033110574538599 M 6.226356474165572 -4.663176955053368 L 2.586736085594322 -4.663176955053368 M 3.1156621389495003 -9.329218457877476 L 2.338032824148943 -8.551589143076919 M 4.930248590826696 -6.996241975468882 L 4.930248590826696 -5.700134092130007 M 9.067364040295626 -8.033110574538599 L 9.067364040295626 -8.81082842734608 C 9.067364036328136 -8.879574821713973 9.094679493557017 -8.945504249217375 9.143298836883735 -8.994106987513995 C 9.191918180210452 -9.042709725810614 9.257856934545561 -9.070002660634174 9.326603324733052 -9.069979173608258 L 10.363471923634501 -9.069979173608258 C 10.432218313822005 -9.070002660589594 10.498157068139395 -9.04270972572322 10.546776411434553 -8.994106987395032 C 10.595395754729713 -8.945504249066843 10.622711211915785 -8.879574821545708 10.62271120790366 -8.81082842734608 L 10.62271120790366 -8.033110574538599 M 9.872794289269855 -0.515614020767579 L 11.548464608285608 -0.515614020767579 C 11.89615336147037 -0.515614020767579 12.178058375511696 -0.8020344731619566 12.178058375511696 -1.1553896587897654 L 12.178058375511696 -3.9293739536794625 C 12.178279954500889 -4.098530880407381 12.112049602322006 -4.261006684360424 11.993633707092123 -4.381803169053528 L 11.790173367184106 -4.588539415217678 C 11.482857945156013 -4.900901503640354 11.482857945156013 -5.407250365230286 11.790173367184106 -5.719612453652964 L 11.993633707092073 -5.926348699817064 C 12.11204960232197 -6.047145184510153 12.178279954500871 -6.20962098846319 12.178058375511696 -6.378777915191177 L 12.178058375511696 -6.808452862786202 C 12.178285238731906 -6.977584718346975 12.112052378321435 -7.140034878614477 11.993633707092123 -7.260793540153344 L 11.325880058882372 -7.939437363214566 C 11.267293828888604 -7.999259668403994 11.187116033497286 -8.033015381704438 11.103384047486061 -8.033110574538599 L 8.586691200713226 -8.033110574538599 C 8.503199860185282 -8.033110574538599 8.423161501927318 -7.99946613190804 8.364106651309992 -7.939437363214566 L 7.696441541107214 -7.260793540153394 C 7.5780228698778895 -7.140034878614539 7.5117900094674 -6.977584718347046 7.51201687268759 -6.808452862786202 L 7.51201687268759 -6.378777915191177 C 7.51201687268759 -6.209139093927616 7.578331839872563 -6.046317699197088 7.696441541107214 -5.926348699817064 L 7.8999018810151815 -5.719612453652964 C 8.207217303043272 -5.407250365230286 8.207217303043272 -4.900901503640354 7.8999018810151815 -4.588539415217678 L 7.696441541107214 -4.381803169053576 C 7.578025645877316 -4.261006684360487 7.511795293698417 -4.09853088040745 7.51201687268759 -3.9293739536794625 L 7.51201687268759 -1.1553896587897619 C 7.51201687268759 -0.8020344731619566 7.793833348721994 -0.515614020767579 8.141522101906759 -0.515614020767579 L 9.558041674660272 -0.515614020767579 Z M 5.697430420810394 -11.92152276256215 L 5.697430420810394 -12.958391361631866 C 5.697430420810394 -13.531055190406773 6.1617237291121265 -13.995259960701581 6.7343875578870325 -13.995259960701581 L 11.837541200887658 -13.995259960701581 C 12.387523435055602 -13.99521814831686 12.914973720859546 -13.776747615735346 13.303907671538553 -13.387889233213047 L 17.014358465647824 -9.677349901096852 C 17.40325286513699 -9.288476204427102 17.621731973035125 -8.761037063625206 17.62172919313636 -8.21107196845288 L 17.62172919313636 -1.5525711578442216 C 17.62172919313636 -0.9799073290693112 17.157524422841554 -0.515614020767579 16.584860594066647 -0.515614020767579 L 13.214926974581415 -0.515614020767579 M 9.326603324564784 -15.55060712830962 L 9.585842608833946 -15.55060712830962 C 9.872141517160756 -15.55060712830962 10.104232639365343 -15.318516006105032 10.104232639365343 -15.032217097778222 L 10.104232639365343 -13.995259960701581 M 6.993538304149269 -13.995259960701581 L 6.993538304149269 -15.032217097778222 C 6.993587196436824 -15.318530327443009 7.225703638849541 -15.55060713248452 7.512016872688232 -15.55060712830962 L 8.289646187488145 -15.55060712830962 M 7.771256156956748 -15.55060712830962 L 7.771256156956748 -16.06908569684794 C 7.771256156956749 -16.20657128111329 7.82587209265047 -16.338425813786767 7.923089081599894 -16.43564280273619 C 8.020306070549317 -16.532859791685617 8.152160603222796 -16.587475727379335 8.289646187488145 -16.587475727379335 L 8.808124756026466 -16.587475727379335 C 8.945625679847094 -16.587499211738997 9.077502959363219 -16.53289364365085 9.1747390983458 -16.4356741092002 C 9.27197523732838 -16.338454574749548 9.326603326570282 -16.206586622674063 9.326603324564784 -16.06908569684794 L 9.326603324564784 -15.55060712830962 M 15.02951342645861 -7.77387129026944 C 14.823207797149276 -7.773606563620028 14.625315696243277 -7.855631405444834 14.479692403469716 -8.001768120088025 L 11.628237352522804 -10.853223171034937 C 11.482323128327353 -10.998995597235995 11.4003374401344 -11.196790561175575 11.4003374401344 -11.403044194023831 C 11.4003374401344 -11.609297826872087 11.482323128327353 -11.807092790811666 11.628237352522806 -11.952865217012725 C 11.774032845800376 -12.098736002543543 11.971819165051059 -12.180691688872129 12.1780583755117 -12.180691688872129 C 12.38429758597234 -12.180691688872129 12.58208390522302 -12.098736002543543 12.727879398500594 -11.952865217012725 L 15.579334449447504 -9.101410166065813 C 15.72520523497832 -8.95561467278824 15.807160921306908 -8.75782835353756 15.807160921306908 -8.551589143076919 C 15.807160921306908 -8.345349932616278 15.72520523497832 -8.147563613365596 15.579334449447504 -8.001768120088025 C 15.433700031054116 -7.855648021009912 15.235815164442634 -7.7736261777477615 15.029513426458609 -7.7738712902694385 Z" fill="none" transform="matrix(1,0,0,1,0,0)" fill-rule="nonzero" stroke-dasharray="none" stroke-miterlimit="10" stroke-linejoin="round" stroke-linecap="round" stroke-width="0.5312280415351633" stroke="#e8a941"></path></g></g></g><defs><clipPath id="SvgjsClipPath1002"><path d=" M 1.2842534657570237 -16.853089755718766 h 16.60308974817345 v 16.603089755718766 h -16.60308974817345 Z"></path></clipPath><clipPath id="a12678b33-7a74-40ca-ab03-ea044f230571697bc3fb-eba8-43ae-b756-49bab41bcff6"><path d=" M 1.284253465757024 -0.24999999999999645 L 17.887343213903947 -0.24999999999999645 L 17.887343213903947 -16.853089748146918 L 1.284253465757024 -16.853089748146918 Z"></path></clipPath></defs></svg>