<svg xmlns="http://www.w3.org/2000/svg" version="1.1"
     viewBox="0 0 9.04168870388336 6.189018958701373"><g transform="matrix(1,0,0,1,0.6211409947231208,4.558477415848827)"><rect width="9.04168870388336" height="9.04168870388336" x="-0.6211409947231208" y="-5.98481228843982" fill="#fcf7ee"></rect><g><path d=" M 0.7604150795908333 0.09959418741543657 Q 0.7954076319259867 0.11709046358301323 0.8014640352147633 0.15477475071317848 Q 0.8075204385035398 0.19245903784334362 0.7819489579509277 0.22341398798597933 Q 0.764452681783351 0.24763960114108552 0.73686240013448 0.25033133593609735 Q 0.7092721184856091 0.2530230707311091 0.6810089031379852 0.23956439675605012 Q 0.6487080855978437 0.2247598553834852 0.6130425995639373 0.2166846509984498 Q 0.577377113530031 0.2086094466134144 0.5383469590023598 0.2086094466134144 Q 0.4656701195370413 0.2086094466134144 0.40847075514304054 0.23148919237101473 Q 0.3512713907490398 0.25436893812861505 0.3108953688238628 0.2967637611500509 Q 0.27051934689868584 0.3391585841714867 0.2496584022373444 0.39703088226424044 Q 0.22879745757600295 0.45490318035699406 0.22879745757600295 0.5248882850273009 Q 0.22879745757600295 0.6069861962751608 0.2523501370323562 0.6675502291629263 Q 0.27590281648870946 0.7281142620506917 0.3176247058113923 0.7684902839758687 Q 0.3593465951340752 0.8088663059010457 0.415873025829323 0.8283813831648812 Q 0.47239945652457077 0.8478964604287168 0.5383469590023598 0.8478964604287168 Q 0.5746853787350191 0.8478964604287168 0.6110237984676784 0.8411671234411873 Q 0.6473622182003378 0.8344377864536578 0.6810089031379852 0.8169415102860811 Q 0.7092721184856091 0.8034828363110221 0.73686240013448 0.8075204385035398 Q 0.764452681783351 0.8115580406960575 0.7832948253484336 0.8357836538511637 Q 0.8102121732985516 0.8694303387888112 0.8028099026122691 0.9050958248227176 Q 0.7954076319259867 0.9407613108566238 0.7617609469883392 0.9569117196266946 Q 0.7267683946531858 0.9744079957942714 0.6897570412217736 0.9858478686730715 Q 0.6527456877903614 0.9972877415518716 0.6150614006601961 1.0033441448406482 Q 0.577377113530031 1.0094005481294248 0.5383469590023598 1.0094005481294248 Q 0.4414445063819351 1.0094005481294248 0.35463605924280456 0.9784455979867891 Q 0.267827612103674 0.9474906478441534 0.1998613085296261 0.8869266149563879 Q 0.13189500495557815 0.8263625820686225 0.09286485042790708 0.7355165327369741 Q 0.053834695900235985 0.644670483405326 0.053834695900235985 0.5248882850273009 Q 0.053834695900235985 0.4212564954193466 0.08950018193414233 0.33377511458146314 Q 0.12516566796804868 0.24629373374357966 0.1904402367470848 0.18236503236204937 Q 0.2557148055261209 0.1184363309805192 0.3445420537615103 0.0827708449466128 Q 0.4333693019968997 0.04710535891270651 0.5383469590023598 0.04710535891270651 Q 0.5975651244926194 0.04710535891270651 0.6540915551878672 0.06056403288776546 Q 0.710617985883115 0.07402270686282453 0.7604150795908333 0.09959418741543657 M 1.6365938130598146 0.6365952790202906 Q 1.6365938130598146 0.7469564056157743 1.5874696530508492 0.831073117959893 Q 1.5383454930418838 0.9151898303040118 1.4555746480952712 0.9622951892167183 Q 1.372803803148658 1.0094005481294248 1.2705178809382098 1.0094005481294248 Q 1.1682319587277614 1.0094005481294248 1.0854611137811485 0.9622951892167183 Q 1.0026902688345358 0.9151898303040118 0.9535661088255705 0.831073117959893 Q 0.9044419488166051 0.7469564056157743 0.9044419488166051 0.6365952790202906 Q 0.9044419488166051 0.5262341524248068 0.9535661088255705 0.442117440080688 Q 1.0026902688345358 0.3580007277365693 1.0854611137811485 0.31022243512510983 Q 1.1682319587277614 0.26244414251365045 1.2705178809382098 0.26244414251365045 Q 1.372803803148658 0.26244414251365045 1.4555746480952712 0.31022243512510983 Q 1.5383454930418838 0.3580007277365693 1.5874696530508492 0.442117440080688 Q 1.6365938130598146 0.5262341524248068 1.6365938130598146 0.6365952790202906 M 1.4750897253591067 0.6365952790202906 Q 1.4750897253591067 0.5679560417474896 1.4474994437102358 0.5174860143410185 Q 1.4199091620613646 0.46701598693454716 1.3734767368474112 0.4387527715869233 Q 1.3270443116334576 0.4104895562392994 1.2705178809382098 0.4104895562392994 Q 1.213991450242962 0.4104895562392994 1.1675590250290084 0.4387527715869233 Q 1.1211265998150548 0.46701598693454716 1.093536318166184 0.5174860143410185 Q 1.065946036517313 0.5679560417474896 1.065946036517313 0.6365952790202906 Q 1.065946036517313 0.7038886488955856 1.093536318166184 0.7543586763020568 Q 1.1211265998150548 0.804828703708528 1.1675590250290084 0.8330919190561519 Q 1.213991450242962 0.8613551344037758 1.2705178809382098 0.8613551344037758 Q 1.3270443116334576 0.8613551344037758 1.3734767368474112 0.8330919190561519 Q 1.4199091620613646 0.804828703708528 1.4474994437102358 0.7543586763020568 Q 1.4750897253591067 0.7038886488955856 1.4750897253591067 0.6365952790202906 M 2.169575703002976 0.26244414251365045 Q 2.2691698904184125 0.26244414251365045 2.3209857852223896 0.3041660318363333 Q 2.3728016800263667 0.34588792115901623 2.392316757290202 0.4152000921305701 Q 2.4118318345540377 0.4845122631021239 2.4118318345540377 0.5693019091449956 L 2.4118318345540377 0.9138439629065058 Q 2.4118318345540377 0.9488365152416592 2.3889520887964375 0.9723891946980125 Q 2.3660723430388373 0.9959418741543657 2.3310797907036838 0.9959418741543657 Q 2.2960872383685307 0.9959418741543657 2.2732074926109305 0.9723891946980125 Q 2.25032774685333 0.9488365152416592 2.25032774685333 0.9138439629065058 L 2.25032774685333 0.5693019091449956 Q 2.25032774685333 0.5248882850273009 2.23888787397453 0.4892227989933945 Q 2.2274480010957296 0.4535573129594882 2.1978389183506 0.43202343459939374 Q 2.1682298356054703 0.4104895562392994 2.113049272307728 0.4104895562392994 Q 2.0592145764074923 0.4104895562392994 2.02220322297608 0.43202343459939374 Q 1.9851918695446678 0.4535573129594882 1.9656767922808323 0.4892227989933945 Q 1.9461617150169968 0.5248882850273009 1.9461617150169968 0.5693019091449956 L 1.9461617150169968 0.9138439629065058 Q 1.9461617150169968 0.9488365152416592 1.9232819692593963 0.9723891946980125 Q 1.900402223501796 0.9959418741543657 1.8654096711666428 0.9959418741543657 Q 1.8304171188314893 0.9959418741543657 1.807537373073889 0.9723891946980125 Q 1.7846576273162889 0.9488365152416592 1.7846576273162889 0.9138439629065058 L 1.7846576273162889 0.3580007277365693 Q 1.7846576273162889 0.3230081754014159 1.807537373073889 0.2994554959450627 Q 1.8304171188314893 0.2759028164887094 1.8654096711666428 0.2759028164887094 Q 1.900402223501796 0.2759028164887094 1.9232819692593963 0.2994554959450627 Q 1.9461617150169968 0.3230081754014159 1.9461617150169968 0.3580007277365693 L 1.9461617150169968 0.41587302582932295 L 1.9259737040544083 0.41183542363680525 Q 1.9380865106319614 0.38895567787920504 1.9609662563895616 0.36271126362784 Q 1.9838460021471618 0.33646684937647486 2.0148009522897974 0.31358710361887465 Q 2.0457559024324334 0.29070735786127433 2.0847860569601044 0.2765757501874624 Q 2.1238162114877754 0.26244414251365045 2.169575703002976 0.26244414251365045 M 3.183025025075777 0 Q 3.21801757741093 0 3.2408973231685305 0.022879745757600323 Q 3.2637770689261307 0.045759491515200534 3.2637770689261307 0.08209791124785992 L 3.2637770689261307 0.9138439629065058 Q 3.2637770689261307 0.9488365152416592 3.2408973231685305 0.9723891946980125 Q 3.21801757741093 0.9959418741543657 3.183025025075777 0.9959418741543657 Q 3.1480324727406233 0.9959418741543657 3.125152726983023 0.9723891946980125 Q 3.102272981225423 0.9488365152416592 3.102272981225423 0.9138439629065058 L 3.102272981225423 0.8478964604287168 L 3.1318820639705525 0.8600092670062699 Q 3.1318820639705525 0.8775055431738465 3.1130399204054697 0.9024040900277057 Q 3.094197776840387 0.9273026368815649 3.0618969593002454 0.9515282500366711 Q 3.029596141760104 0.9757538631917773 2.985855451341162 0.992577205660601 Q 2.9421147609222205 1.0094005481294248 2.890971799816996 1.0094005481294248 Q 2.7981069493890893 1.0094005481294248 2.722738375128759 0.9616222555179653 Q 2.6473698008684283 0.9138439629065058 2.6036291104494866 0.8297272505623872 Q 2.559888420030545 0.7456105382182684 2.559888420030545 0.6365952790202906 Q 2.559888420030545 0.5262341524248068 2.6036291104494866 0.442117440080688 Q 2.6473698008684283 0.3580007277365693 2.721392507731253 0.31022243512510983 Q 2.7954152145940774 0.26244414251365045 2.8855883302269727 0.26244414251365045 Q 2.9434606283197264 0.26244414251365045 2.991911854629939 0.2799404186812271 Q 3.040363080940151 0.29743669484880386 3.0760285669740575 0.32435404279892177 Q 3.1116940530079638 0.3512713907490398 3.1312091302717997 0.3788616723979108 Q 3.150724207535635 0.4064519540467817 3.150724207535635 0.4252940976118643 L 3.102272981225423 0.44279037377944097 L 3.102272981225423 0.08209791124785992 Q 3.102272981225423 0.04710535891270651 3.125152726983023 0.023552679456353198 Q 3.1480324727406233 0 3.183025025075777 0 M 2.911159810779585 0.8613551344037758 Q 2.9703779762698446 0.8613551344037758 3.014791600387539 0.831746051658646 Q 3.059205224505234 0.8021369689135162 3.084103771359093 0.750994007808292 Q 3.1090023182129523 0.6998510467030679 3.1090023182129523 0.6365952790202906 Q 3.1090023182129523 0.5719936439400073 3.084103771359093 0.5208506828347832 Q 3.059205224505234 0.469707721729559 3.014791600387539 0.44009863898442914 Q 2.9703779762698446 0.4104895562392994 2.911159810779585 0.4104895562392994 Q 2.853287512686831 0.4104895562392994 2.8088738885691367 0.44009863898442914 Q 2.7644602644514418 0.469707721729559 2.739561717597583 0.5208506828347832 Q 2.7146631707437234 0.5719936439400073 2.7146631707437234 0.6365952790202906 Q 2.7146631707437234 0.6998510467030679 2.739561717597583 0.750994007808292 Q 2.7644602644514418 0.8021369689135162 2.8088738885691367 0.831746051658646 Q 2.853287512686831 0.8613551344037758 2.911159810779585 0.8613551344037758 M 3.604262462802483 0.9138439629065058 Q 3.604262462802483 0.9488365152416592 3.581382717044882 0.9723891946980125 Q 3.558502971287282 0.9959418741543657 3.5235104189521285 0.9959418741543657 Q 3.4885178666169754 0.9959418741543657 3.465638120859375 0.9723891946980125 Q 3.4427583751017745 0.9488365152416592 3.4427583751017745 0.9138439629065058 L 3.4427583751017745 0.3580007277365693 Q 3.4427583751017745 0.3230081754014159 3.465638120859375 0.2994554959450627 Q 3.4885178666169754 0.2759028164887094 3.5235104189521285 0.2759028164887094 Q 3.558502971287282 0.2759028164887094 3.581382717044882 0.2994554959450627 Q 3.604262462802483 0.3230081754014159 3.604262462802483 0.3580007277365693 L 3.604262462802483 0.9138439629065058 M 3.522164551554623 0.18842143565082592 Q 3.476405060039422 0.18842143565082592 3.4575629164743398 0.1736168942782611 Q 3.438720772909257 0.15881235290569617 3.438720772909257 0.12112806577553092 L 3.438720772909257 0.09555658522291888 Q 3.438720772909257 0.056526430695247765 3.4595817175705985 0.042394823021435823 Q 3.48044266223194 0.028263215347623882 3.5235104189521285 0.028263215347623882 Q 3.5706157778648353 0.028263215347623882 3.5894579214299176 0.04306775672018881 Q 3.6083000649950003 0.05787229809275363 3.6083000649950003 0.09555658522291888 L 3.6083000649950003 0.12112806577553092 Q 3.6083000649950003 0.16015822030320204 3.588112054032412 0.17428982797701398 Q 3.5679240430698234 0.18842143565082592 3.522164551554623 0.18842143565082592 M 4.161482451975239 0.26244414251365045 Q 4.2691518437757106 0.26244414251365045 4.320294804880935 0.3142600373176275 Q 4.371437765986159 0.3660759321216047 4.38758817475623 0.44817384336946453 L 4.36470842899863 0.43606103679191144 L 4.375475368178677 0.4145271584318171 Q 4.3916257769487475 0.38357220828918137 4.4252724618863954 0.3479067222552751 Q 4.458919146824043 0.3122412362213687 4.506697439435502 0.2873426893675096 Q 4.554475732046962 0.26244414251365045 4.613693897537221 0.26244414251365045 Q 4.710596350157646 0.26244414251365045 4.761066377564117 0.3041660318363333 Q 4.811536404970589 0.34588792115901623 4.830378548535671 0.4152000921305701 Q 4.8492206921007535 0.4845122631021239 4.8492206921007535 0.5693019091449956 L 4.8492206921007535 0.9138439629065058 Q 4.8492206921007535 0.9488365152416592 4.826340946343153 0.9723891946980125 Q 4.803461200585553 0.9959418741543657 4.7684686482503995 0.9959418741543657 Q 4.733476095915246 0.9959418741543657 4.710596350157646 0.9723891946980125 Q 4.687716604400046 0.9488365152416592 4.687716604400046 0.9138439629065058 L 4.687716604400046 0.5693019091449956 Q 4.687716604400046 0.5248882850273009 4.676949665219999 0.4892227989933945 Q 4.666182726039951 0.4535573129594882 4.637919510692328 0.43202343459939374 Q 4.609656295344704 0.4104895562392994 4.557167466841973 0.4104895562392994 Q 4.506024505736749 0.4104895562392994 4.4696860860040895 0.43202343459939374 Q 4.43334766627143 0.4535573129594882 4.415178456405101 0.4892227989933945 Q 4.397009246538771 0.5248882850273009 4.397009246538771 0.5693019091449956 L 4.397009246538771 0.9138439629065058 Q 4.397009246538771 0.9488365152416592 4.374129500781171 0.9723891946980125 Q 4.351249755023571 0.9959418741543657 4.316257202688417 0.9959418741543657 Q 4.281264650353264 0.9959418741543657 4.258384904595664 0.9723891946980125 Q 4.2355051588380634 0.9488365152416592 4.2355051588380634 0.9138439629065058 L 4.2355051588380634 0.5693019091449956 Q 4.2355051588380634 0.5248882850273009 4.2247382196580165 0.4892227989933945 Q 4.213971280477969 0.4535573129594882 4.185708065130345 0.43202343459939374 Q 4.157444849782721 0.4104895562392994 4.104956021279991 0.4104895562392994 Q 4.053813060174766 0.4104895562392994 4.017474640442107 0.43202343459939374 Q 3.9811362207094483 0.4535573129594882 3.9629670108431188 0.4892227989933945 Q 3.944797800976789 0.5248882850273009 3.944797800976789 0.5693019091449956 L 3.944797800976789 0.9138439629065058 Q 3.944797800976789 0.9488365152416592 3.9219180552191886 0.9723891946980125 Q 3.8990383094615884 0.9959418741543657 3.864045757126435 0.9959418741543657 Q 3.8290532047912818 0.9959418741543657 3.806173459033681 0.9723891946980125 Q 3.783293713276081 0.9488365152416592 3.783293713276081 0.9138439629065058 L 3.783293713276081 0.3580007277365693 Q 3.783293713276081 0.3230081754014159 3.806173459033681 0.2994554959450627 Q 3.8290532047912818 0.2759028164887094 3.864045757126435 0.2759028164887094 Q 3.8990383094615884 0.2759028164887094 3.9219180552191886 0.2994554959450627 Q 3.944797800976789 0.3230081754014159 3.944797800976789 0.3580007277365693 L 3.944797800976789 0.41587302582932295 L 3.9246097900142005 0.41183542363680525 Q 3.9367225965917534 0.38895567787920504 3.958256474951848 0.36271126362784 Q 3.9797903533119423 0.33646684937647486 4.010745303454578 0.31358710361887465 Q 4.041700253597214 0.29070735786127433 4.0793845407273785 0.2765757501874624 Q 4.117068827857544 0.26244414251365045 4.161482451975239 0.26244414251365045 M 5.370067431964646 1.0094005481294248 Q 5.255668703176645 1.0094005481294248 5.171551990832526 0.9616222555179653 Q 5.087435278488408 0.9138439629065058 5.04234872067196 0.831746051658646 Q 4.997262162855512 0.7496481404107861 4.997262162855512 0.6460163508028318 Q 4.997262162855512 0.5248882850273009 5.046386322864477 0.43942570528567626 Q 5.0955104828734425 0.3539631255440516 5.174916659326291 0.308203634028851 Q 5.2543228357791385 0.26244414251365045 5.343150084014528 0.26244414251365045 Q 5.411789321287329 0.26244414251365045 5.473026287873847 0.29070735786127433 Q 5.534263254460366 0.3189705732088982 5.581368613373073 0.36809473321786357 Q 5.628473972285779 0.4172188932268289 5.65606425393465 0.4818205283071121 Q 5.68365453558352 0.5464221633873952 5.68365453558352 0.6190990028527139 Q 5.682308668186015 0.6513998203928555 5.658083055030909 0.671587831355444 Q 5.6338574418758025 0.6917758423180325 5.601556624335661 0.6917758423180325 L 5.087435278488408 0.6917758423180325 L 5.04705925656323 0.5571891025674425 L 5.540992591447895 0.5571891025674425 L 5.511383508702766 0.5841064505175604 L 5.511383508702766 0.5477680307849011 Q 5.508691773907754 0.5087378762572301 5.483793227053894 0.4777829261145944 Q 5.458894680200036 0.44682797597195867 5.421883326768623 0.42865876610562903 Q 5.384871973337211 0.4104895562392994 5.343150084014528 0.4104895562392994 Q 5.302774062089351 0.4104895562392994 5.267781509754197 0.4212564954193466 Q 5.232788957419045 0.43202343459939374 5.2072174768664325 0.4575949151520059 Q 5.18164599631382 0.48316639570461795 5.166841454941255 0.5262341524248068 Q 5.152036913568691 0.5693019091449956 5.152036913568691 0.6352494116227847 Q 5.152036913568691 0.7079262510881033 5.182318930012573 0.7583962784945745 Q 5.2126009464564556 0.8088663059010457 5.260379239067915 0.8351107201524107 Q 5.308157531679375 0.8613551344037758 5.361992227579611 0.8613551344037758 Q 5.411789321287329 0.8613551344037758 5.441398404032459 0.8532799300187404 Q 5.471007486777589 0.845204725633705 5.489176696643918 0.8337648527549049 Q 5.507345906510248 0.8223249798761048 5.5221504478828125 0.8142497754910694 Q 5.546376061037919 0.8021369689135162 5.567909939398014 0.8021369689135162 Q 5.5975190221431435 0.8021369689135162 5.617034099406979 0.8223249798761048 Q 5.6365491766708145 0.8425129908386932 5.6365491766708145 0.8694303387888112 Q 5.6365491766708145 0.9057687585214704 5.598864889540649 0.9353778412666003 Q 5.5638723372054955 0.96498692401173 5.500616569522719 0.9871937360705774 Q 5.437360801839941 1.0094005481294248 5.370067431964646 1.0094005481294248 M 6.2166410256593885 0.26244414251365045 Q 6.316235213074825 0.26244414251365045 6.368051107878802 0.3041660318363333 Q 6.41986700268278 0.34588792115901623 6.439382079946615 0.4152000921305701 Q 6.458897157210451 0.4845122631021239 6.458897157210451 0.5693019091449956 L 6.458897157210451 0.9138439629065058 Q 6.458897157210451 0.9488365152416592 6.43601741145285 0.9723891946980125 Q 6.41313766569525 0.9959418741543657 6.378145113360096 0.9959418741543657 Q 6.343152561024944 0.9959418741543657 6.3202728152673435 0.9723891946980125 Q 6.297393069509743 0.9488365152416592 6.297393069509743 0.9138439629065058 L 6.297393069509743 0.5693019091449956 Q 6.297393069509743 0.5248882850273009 6.285953196630943 0.4892227989933945 Q 6.274513323752142 0.4535573129594882 6.244904241007013 0.43202343459939374 Q 6.215295158261883 0.4104895562392994 6.160114594964141 0.4104895562392994 Q 6.106279899063905 0.4104895562392994 6.069268545632493 0.43202343459939374 Q 6.03225719220108 0.4535573129594882 6.012742114937245 0.4892227989933945 Q 5.993227037673409 0.5248882850273009 5.993227037673409 0.5693019091449956 L 5.993227037673409 0.9138439629065058 Q 5.993227037673409 0.9488365152416592 5.970347291915809 0.9723891946980125 Q 5.947467546158209 0.9959418741543657 5.912474993823055 0.9959418741543657 Q 5.877482441487902 0.9959418741543657 5.854602695730302 0.9723891946980125 Q 5.8317229499727015 0.9488365152416592 5.8317229499727015 0.9138439629065058 L 5.8317229499727015 0.3580007277365693 Q 5.8317229499727015 0.3230081754014159 5.854602695730302 0.2994554959450627 Q 5.877482441487902 0.2759028164887094 5.912474993823055 0.2759028164887094 Q 5.947467546158209 0.2759028164887094 5.970347291915809 0.2994554959450627 Q 5.993227037673409 0.3230081754014159 5.993227037673409 0.3580007277365693 L 5.993227037673409 0.41587302582932295 L 5.973039026710821 0.41183542363680525 Q 5.985151833288374 0.38895567787920504 6.008031579045975 0.36271126362784 Q 6.030911324803575 0.33646684937647486 6.06186627494621 0.31358710361887465 Q 6.092821225088846 0.29070735786127433 6.131851379616517 0.2765757501874624 Q 6.170881534144188 0.26244414251365045 6.2166410256593885 0.26244414251365045 M 6.65540496899717 0.28936149046376847 L 6.974375542206069 0.28936149046376847 Q 7.00667635974621 0.28936149046376847 7.028210238106304 0.3108953688238628 Q 7.049744116466399 0.33242924718395717 7.049744116466399 0.36473006472409886 Q 7.049744116466399 0.39568501486673446 7.028210238106304 0.41654595952807594 Q 7.00667635974621 0.4374069041894174 6.974375542206069 0.4374069041894174 L 6.65540496899717 0.4374069041894174 Q 6.623104151457029 0.4374069041894174 6.601570273096934 0.41587302582932295 Q 6.580036394736839 0.3943391474692286 6.580036394736839 0.362038329929087 Q 6.580036394736839 0.3310833797864513 6.601570273096934 0.31022243512510983 Q 6.623104151457029 0.28936149046376847 6.65540496899717 0.28936149046376847 M 6.799412780530301 0.12112806577553092 Q 6.834405332865455 0.12112806577553092 6.856612144924302 0.14468074523188423 Q 6.8788189569831495 0.16823342468823743 6.8788189569831495 0.20322597702339085 L 6.8788189569831495 0.8021369689135162 Q 6.8788189569831495 0.8209791124785988 6.886221227669432 0.8330919190561519 Q 6.893623498355714 0.845204725633705 6.90640923863202 0.8505881952237286 Q 6.919194978908326 0.8559716648137522 6.933999520280891 0.8559716648137522 Q 6.950149929050962 0.8559716648137522 6.963608603026021 0.8499152615249757 Q 6.97706727700108 0.8438588582361991 6.994563553168657 0.8438588582361991 Q 7.01340569673374 0.8438588582361991 7.028883171805057 0.8613551344037758 Q 7.044360646876375 0.8788514105713525 7.044360646876375 0.9098063607139881 Q 7.044360646876375 0.9474906478441534 7.003311691252446 0.9717162609992596 Q 6.962262735628515 0.9959418741543657 6.9151573767158085 0.9959418741543657 Q 6.886894161368184 0.9959418741543657 6.852574542731785 0.9912313382630951 Q 6.818254924095384 0.9865208023718245 6.787972907651501 0.9683515925054949 Q 6.757690891207618 0.9501823826391651 6.73750288024503 0.912498095509 Q 6.717314869282442 0.8748138083788348 6.717314869282442 0.8088663059010457 L 6.717314869282442 0.20322597702339085 Q 6.717314869282442 0.16823342468823743 6.740867548738795 0.14468074523188423 Q 6.7644202281951475 0.12112806577553092 6.799412780530301 0.12112806577553092 M 7.196465349134443 0.8842348801613761 Q 7.183006675159384 0.8653927365962935 7.18435254255689 0.8357836538511637 Q 7.185698409954396 0.8061745711060339 7.219345094892043 0.7846406927459395 Q 7.240878973252138 0.7711820187708804 7.265104586407244 0.7732008198671394 Q 7.28933019956235 0.7752196209633981 7.3122099453199505 0.7980993667209985 Q 7.3512400998476215 0.8371295212486696 7.394307856567811 0.858663399608764 Q 7.437375613287999 0.8801972779688584 7.5019772483682825 0.8801972779688584 Q 7.522165259330871 0.8788514105713525 7.546390872485977 0.8741408746800818 Q 7.570616485641083 0.8694303387888112 7.588785695507413 0.8526069963199874 Q 7.606954905373742 0.8357836538511637 7.606954905373742 0.8007911015160103 Q 7.606954905373742 0.7711820187708804 7.586766894411154 0.7536857426033038 Q 7.566578883448566 0.7361894664357271 7.533605132209671 0.724076659858174 Q 7.500631380970777 0.711963853280621 7.4602553590455996 0.7011969141005737 Q 7.418533469722917 0.6890841075230206 7.3747927793039745 0.6742795661504557 Q 7.331052088885033 0.6594750247778909 7.294713669152374 0.6359223453215376 Q 7.258375249419714 0.6123696658651843 7.235495503662114 0.5733395113375133 Q 7.212615757904514 0.5343093568098422 7.212615757904514 0.47509119131958255 Q 7.212615757904514 0.40779782144428756 7.250300045034679 0.36069246253158116 Q 7.287984332164845 0.31358710361887465 7.347875431353857 0.2880156230662625 Q 7.40776653054287 0.26244414251365045 7.473714033020658 0.26244414251365045 Q 7.515435922343341 0.26244414251365045 7.561195413858542 0.2725381479949447 Q 7.606954905373742 0.28263215347623893 7.648676794696425 0.30483896553508627 Q 7.690398684019108 0.3270457775939336 7.718661899366732 0.3633841973265929 Q 7.7334664407392975 0.38357220828918137 7.7361581755343085 0.41183542363680525 Q 7.7388499103293205 0.44009863898442914 7.710586694981697 0.46297838474202946 Q 7.690398684019108 0.47912879351210025 7.66348133606899 0.4771099924158414 Q 7.636563988118873 0.47509119131958255 7.6190677119512955 0.45894078254951176 Q 7.596187966193695 0.429331699804382 7.557830745364777 0.41183542363680525 Q 7.519473524535859 0.3943391474692286 7.469676430828141 0.3943391474692286 Q 7.449488419865553 0.3943391474692286 7.425935740409199 0.3990496833604993 Q 7.402383060952846 0.40376021925176986 7.3848867847852695 0.4192376943230878 Q 7.367390508617692 0.4347151693944056 7.367390508617692 0.46836185433205313 Q 7.367390508617692 0.4993168044746888 7.387578519580281 0.5174860143410185 Q 7.40776653054287 0.535655224207348 7.44208614917927 0.5470950970861482 Q 7.47640576781567 0.5585349699649483 7.515435922343341 0.5693019091449956 Q 7.555811944268519 0.5800688483250427 7.597533833591202 0.5948733896976077 Q 7.639255722913884 0.6096779310701725 7.674248275249037 0.6339035442252787 Q 7.709240827584191 0.6581291573803849 7.7307747059442855 0.6964863782093031 Q 7.75230858430438 0.7348435990382212 7.75230858430438 0.7940617645284808 Q 7.75230858430438 0.8627010018012817 7.711932562379203 0.9111522281114941 Q 7.671556540454025 0.9596034544217065 7.610992507566261 0.9845020012755656 Q 7.550428474678495 1.0094005481294248 7.487172706995717 1.0094005481294248 Q 7.40776653054287 1.0094005481294248 7.328360354090021 0.9818102664805538 Q 7.248954177637173 0.9542199848316828 7.196465349134443 0.8842348801613761" fill="#212121" fill-rule="nonzero"></path></g><g></g><g clip-path="url(#SvgjsClipPath1002)"><g clip-path="url(#SvgjsClipPath1000a7eb763a-974a-4d7b-b9eb-ce8eeabbe990)"><path d=" M 7.232872217276354 -2.908028842498493 L 7.232872217276354 -3.033634277263367 C 7.300388647732488 -3.082620823286784 7.340368232966471 -3.1609730972421293 7.340410524810766 -3.2443886130904556 C 7.340109281949067 -3.3805986622417596 7.234974859071425 -3.4936059243818387 7.099140897537028 -3.503725367594665 L 7.1457350677629385 -3.758048278178463 C 7.157696445764344 -3.8015487476397003 7.148646866473383 -3.848139691197744 7.121270967254707 -3.8839994952826737 C 7.092485101620346 -3.918876526401536 7.049162911761339 -3.9384465355272336 7.003964308633968 -3.9369906387863685 L 6.135791300138704 -3.9369906387863685 C 6.090534888310813 -3.93851913717796 6.047144345974967 -3.918900732911235 6.018398195933132 -3.883913049697839 C 5.991307139422599 -3.848796859630129 5.98210458912601 -3.8030716878439503 5.993501867500727 -3.760209417799332 L 6.040701156820493 -3.5037253675946665 C 5.904901339776918 -3.493563042058141 5.799815776737747 -3.380567812983766 5.7995179751315735 -3.2443886130904556 C 5.799545607140395 -3.1609933905497125 5.839531417682037 -3.082661059126854 5.907056282665941 -3.033720722848238 L 5.907056282665941 -2.908028842498495 C 5.659184428327551 -2.870541019125011 5.476047686621893 -2.6573348565612185 5.476384379019329 -2.4066444504570197 L 5.476384379019329 -0.756916909470899 C 5.476813237712594 -0.4769017979026682 5.703804623150312 -0.2500650914328446 5.98381996199919 -0.24982710883033032 L 7.156108537943107 -0.24982710883033032 C 7.436151994028888 -0.25006487231873376 7.6631929545902615 -0.47687384279778655 7.663717012092681 -0.756916909470899 L 7.663717012092681 -2.4066444504570197 C 7.664040850623378 -2.6573912768243293 7.4808127703152785 -2.870618176059278 7.2328722172763555 -2.908028842498492 Z M 7.156108537943107 -0.4760552043428383 L 5.983819961999236 -0.4760552043428383 C 5.828415297505874 -0.47615036190592575 5.702418568231266 -0.6020310720928044 5.702180246607659 -0.7574355829799058 L 5.702180246607659 -2.407163123966028 C 5.70246617643906 -2.562533868289349 5.828448983654802 -2.6883620004808852 5.983819961999233 -2.6884570570182618 L 7.156108537943107 -2.6884570570182618 C 7.311465459911405 -2.688361899555556 7.4374234862461535 -2.5625198922809846 7.437661807749844 -2.407163123966028 L 7.437661807749844 -0.7574355829799058 C 7.437423574326447 -0.6020647892526276 7.3114794486943815 -0.4761980011247977 7.156108537943096 -0.4760552043428383 Z M 7.080122868873374 -3.173676124695641 L 6.0596327398993015 -3.173676124695641 C 6.020503640083001 -3.1738190771812347 5.988872329767119 -3.2056050638311797 5.988920251504487 -3.244734395429794 C 5.988872329767121 -3.283863727028411 6.020503640083005 -3.3156497136783547 6.059632739899307 -3.3157926661639485 L 7.080122868873374 -3.3157926661639485 C 7.119347521516435 -3.3157450344748107 7.151133507918386 -3.2839590480728598 7.151181139607527 -3.244734395429794 C 7.151296152592341 -3.225805838181887 7.14386324658102 -3.207611812129117 7.130527248338666 -3.1941784708338967 C 7.117191250096306 -3.1807451295386766 7.099051761984963 -3.1731801016576675 7.080122868873371 -3.1731574511866327 Z M 6.168986404715245 -2.9846196306620714 L 6.970855649642266 -2.9846196306620714 L 6.964804458703835 -2.981939817532193 L 7.006817012933517 -2.981939817532193 L 7.006817012933517 -2.914685152530768 L 6.133025041423995 -2.914685152530768 L 6.133025041423995 -2.981939817532193 L 6.175037595653675 -2.981939817532193 Z" fill="#769687" transform="matrix(1,0,0,1,0,0)" fill-rule="nonzero"></path></g><g clip-path="url(#SvgjsClipPath1000a7eb763a-974a-4d7b-b9eb-ce8eeabbe990)"><path d=" M 1.8920910950166323 -2.908028842498493 L 1.8920910950166323 -3.033547831678531 C 1.9597196172554092 -3.0824962255646393 1.9997757776873852 -3.160904712959166 1.999802293720712 -3.2443886130904542 C 1.9994210196197109 -3.3805348769971904 1.8943800325827658 -3.4934821748863816 1.758619112031804 -3.503725367594665 L 1.8052132822577165 -3.757961832593628 C 1.8171659571310577 -3.8013822507098105 1.8081834609520668 -3.8478930405334024 1.7809220729191506 -3.883740158528172 C 1.752146172119222 -3.9188553854856525 1.7086426885696206 -3.93854542653382 1.6632696319590798 -3.936990638786371 L 0.7951830690486527 -3.936990638786371 C 0.7499959833940851 -3.938512484426518 0.7066723029199709 -3.918927369285933 0.6779628560127483 -3.8839994952826764 C 0.6508587969630099 -3.8488578440725636 0.6415977814010075 -3.8031275879181243 0.652893636410671 -3.7602094177993335 L 0.7000929257304385 -3.503725367594669 C 0.5642931086868617 -3.4935630420581454 0.45920754564769056 -3.380567812983769 0.45890974404151696 -3.2443886130904582 C 0.45895203588583816 -3.1609730972420826 0.4989316211198374 -3.082620823286745 0.5664480515759804 -3.0336342772633405 L 0.5664480515759804 -2.9080288424984957 C 0.31854184772200345 -2.870579593124403 0.13535943992108795 -2.6573630638758994 0.1356897023444401 -2.4066444504570224 L 0.1356897023444401 -0.7569169094709003 C 0.1361186491333413 -0.47686808069304965 0.36316263831171225 -0.25001745209136983 0.6432117309091497 -0.24982710883033432 L 1.815413861268215 -0.24982710883033432 C 2.095429200117094 -0.25006509143282063 2.3224205855548283 -0.47690179790262377 2.322849444248122 -0.7569169094709003 L 2.322849444248122 -2.406644450457021 C 2.323179706671498 -2.657363063875854 2.1399972988706013 -2.870579593124371 1.8920910950166725 -2.9080288424984864 Z M 1.8154138612682205 -0.4760552043428383 L 0.6431252853243496 -0.4760552043428383 C 0.48770656447716854 -0.4761502610114441 0.36168505434030673 -0.6020170960821627 0.3613991243479412 -0.7574355829799058 L 0.3613991243479412 -2.407163123966028 C 0.36168513810180314 -2.5625675958003917 0.487720557524455 -2.688409650050557 0.6431252853243603 -2.6884570570182618 L 1.8153274156833827 -2.6884570570182618 C 1.970732143483288 -2.688409650050553 2.0967675629059346 -2.5625675958003855 2.0970535766597913 -2.407163123966028 L 2.0970535766597913 -0.7574355829799058 C 2.096767745143782 -0.60205081111756 1.970798830512904 -0.4761978899624202 1.815413861268207 -0.4760552043428383 Z M 1.7393417466136527 -3.173676124695641 L 0.7192838455637521 -3.173676124695641 C 0.6800254380680725 -3.1736760957153223 0.6481868308334551 -3.2054760169144143 0.6481391292447694 -3.244734395429794 C 0.6481868308334551 -3.2839927739451724 0.6800254380680671 -3.315792695144266 0.7192838455637521 -3.3157926661639485 L 1.7393417466136527 -3.3157926661639485 C 1.7786142116342243 -3.3157927818455715 1.810477587000605 -3.2840067447689156 1.8105729085174704 -3.244734395429794 C 1.8106649072675984 -3.225782876474588 1.8032008505765083 -3.207575993066542 1.7898324320137224 -3.1941426792680154 C 1.7764640134509337 -3.1807093654694887 1.7582934888667945 -3.1731572278873745 1.7393417466136474 -3.1731574511866327 Z M 0.8284646192100281 -2.9846196306620714 L 1.6304203097218841 -2.9846196306620714 L 1.624282673198616 -2.981939817532193 L 1.666381673013134 -2.981939817532193 L 1.666381673013134 -2.914685152530768 L 0.7924168103339407 -2.914685152530768 L 0.7924168103339407 -2.981939817532193 L 0.8346022557332937 -2.981939817532193 Z" fill="#769687" transform="matrix(1,0,0,1,0,0)" fill-rule="nonzero"></path></g><g clip-path="url(#SvgjsClipPath1000a7eb763a-974a-4d7b-b9eb-ce8eeabbe990)"><path d=" M 4.562395210561657 -2.908028842498493 L 4.562395210561657 -3.033634277263367 C 4.63002115748332 -3.0825458533195196 4.67008048062314 -3.160928381260838 4.670106409265738 -3.2443886130904573 C 4.669759933772024 -3.3806130224170987 4.564598983593603 -3.493608312723416 4.428750336407143 -3.5037253675946665 L 4.4756038433875815 -3.758048278178463 C 4.487522851300408 -3.8015226100253137 4.478475784747792 -3.8480686485433666 4.451139742879354 -3.8839130496978416 C 4.422410193817841 -3.918922391421354 4.37900834585373 -3.9385459073638898 4.33374663867378 -3.9369906387863685 L 3.465573630178513 -3.9369906387863685 C 3.4202872500046975 -3.9385463549118223 3.376858940564452 -3.918925323273625 3.348094080388104 -3.883913049697839 C 3.321070161764164 -3.8487652639086236 3.3119034775320855 -3.8030596014134903 3.323284197540537 -3.760209417799331 L 3.3703970412754667 -3.5037253675946665 C 3.2345483940890123 -3.4936083127234125 3.1293874439105975 -3.3806130224170907 3.1290409684168807 -3.2443886130904556 C 3.129095755964717 -3.1609115235259457 3.169145732161425 -3.0825151415485763 3.2367521671209363 -3.033547831678551 L 3.2367521671209363 -2.908028842498495 C 2.988811614082044 -2.8706181760592795 2.805583533773944 -2.657391276824332 2.8059073723046386 -2.4066444504570184 L 2.8059073723046386 -0.756916909470899 C 2.80628852400334 -0.4769494886849115 3.0332025296650165 -0.2501128224934259 3.3131700641148223 -0.24982710883033032 L 4.485717976813243 -0.24982710883033032 C 4.7657951842731645 -0.25001724437174344 4.9928887395459025 -0.47684012794570707 4.993412896547651 -0.756916909470899 L 4.993412896547651 -2.4066444504570197 C 4.993687001668434 -2.6574340621224257 4.810385419567094 -2.8706609325973433 4.562395210561695 -2.9080288424984864 Z M 4.4857179768132465 -0.4760552043428383 L 3.3131700641148703 -0.4760552043428383 C 3.1578609932079877 -0.4762458190103622 3.032019024391544 -0.602126460835045 3.0318761310626337 -0.7574355829799058 L 3.0318761310626337 -2.407163123966028 C 3.032066653196851 -2.5624384880892452 3.157894699991678 -2.688266534884064 3.3131700641148862 -2.688457057018263 L 4.485717976813243 -2.688457057018263 C 4.6410889551576755 -2.688362000480887 4.767071762373416 -2.562533868289349 4.767357692204817 -2.407163123966028 L 4.767357692204817 -0.7574355829799058 C 4.767119370581206 -0.6020310720927964 4.641122641306593 -0.4761503619059231 4.485717976813236 -0.4760552043428383 Z M 4.409818753328349 -3.173676124695641 L 3.3897608522784504 -3.173676124695641 C 3.3505502163464063 -3.173723826234494 3.3187889981135807 -3.2055237304822164 3.3187890271291294 -3.244734395429794 C 3.318788998114244 -3.283945060378567 3.3505502163476018 -3.315744964625755 3.389760852279643 -3.31579266616395 L 4.409818753328345 -3.31579266616395 C 4.449043405971407 -3.3157450344748107 4.480829392373359 -3.2839590480728598 4.480877024062499 -3.244734395429794 C 4.4809920370473115 -3.225805838181887 4.473559131035994 -3.207611812129117 4.460223132793637 -3.1941784708338967 C 4.446887134551281 -3.1807451295386766 4.428747646439938 -3.1731801016576675 4.409818753328343 -3.1731574511866327 Z M 3.4986822891702216 -2.9846196306620714 L 4.300637979682074 -2.9846196306620714 L 4.2945867887436435 -2.981939817532193 L 4.336512897388493 -2.981939817532193 L 4.336512897388493 -2.914685152530768 L 3.462634480294134 -2.914685152530768 L 3.462634480294134 -2.981939817532193 L 3.504819925693487 -2.981939817532193 Z" fill="#769687" transform="matrix(1,0,0,1,0,0)" fill-rule="nonzero"></path></g></g></g><defs><clipPath id="SvgjsClipPath1002"><path d=" M 0.1356897023444401 -3.937336421125707 h 7.5280273097482375 v 3.687336421125707 h -7.5280273097482375 Z"></path></clipPath><clipPath id="SvgjsClipPath1000a7eb763a-974a-4d7b-b9eb-ce8eeabbe990"><path d=" M 0.1356897023444401 -3.937336421125707 L 7.663717012092677 -3.937336421125707 L 7.663717012092677 -0.25 L 0.1356897023444401 -0.25 Z"></path></clipPath></defs></svg>