<svg xmlns="http://www.w3.org/2000/svg" version="1.1"
     viewBox="0 0 21.76103345066557 20.65497012171473"><g transform="matrix(1,0,0,1,1.7666123063874721,17.80235781532726)"><rect width="21.76103345066557" height="21.76103345066557" x="-1.7666123063874721" y="-18.355389479802678" fill="#efca74"></rect><g><path d=" M 1.0635000000000001 0.8745 Q 0.9105 1.0185 0.7005 1.0185 Q 0.5835 1.0185 0.4935 0.9780000000000001 Q 0.4035 0.9375 0.3435 0.8700000000000001 Q 0.28350000000000003 0.8025 0.25275000000000003 0.7140000000000001 Q 0.222 0.6255000000000001 0.222 0.5295000000000001 Q 0.222 0.4275000000000001 0.25425000000000003 0.34275 Q 0.28650000000000003 0.258 0.34500000000000003 0.1965 Q 0.4035 0.135 0.48375 0.10050000000000003 Q 0.5640000000000001 0.06600000000000006 0.6585 0.06600000000000006 Q 0.723 0.06600000000000006 0.77625 0.08100000000000007 Q 0.8295 0.09600000000000009 0.87075 0.12 Q 0.912 0.14400000000000002 0.93825 0.17475000000000007 Q 0.9645 0.20550000000000002 0.975 0.237 L 1.086 0.237 Q 1.0635000000000001 0.18600000000000005 1.02825 0.14250000000000007 Q 0.993 0.09900000000000009 0.9405 0.06750000000000012 Q 0.888 0.03600000000000003 0.8175 0.018000000000000016 Q 0.747 0 0.657 0 Q 0.5265 0 0.41925 0.03750000000000009 Q 0.312 0.07500000000000007 0.23550000000000001 0.14475000000000005 Q 0.159 0.21450000000000002 0.117 0.3127500000000001 Q 0.075 0.41100000000000003 0.075 0.5325000000000001 Q 0.075 0.6375000000000001 0.10875 0.7372500000000001 Q 0.14250000000000002 0.8370000000000001 0.213 0.91425 Q 0.28350000000000003 0.9915 0.393 1.03875 Q 0.5025000000000001 1.086 0.654 1.086 Q 0.75 1.086 0.82575 1.068 Q 0.9015 1.05 0.95775 1.0237500000000002 Q 1.014 0.9975 1.0515 0.9675 Q 1.089 0.9375 1.1085 0.915 L 1.0635000000000001 0.8745 M 1.228458251953125 0.543 Q 1.228458251953125 0.627 1.2607082519531252 0.7222500000000001 Q 1.292958251953125 0.8175000000000001 1.361958251953125 0.8985000000000001 Q 1.4309582519531252 0.9795 1.537458251953125 1.03275 Q 1.643958251953125 1.086 1.7924582519531251 1.086 Q 1.8929582519531252 1.086 1.9747082519531252 1.06125 Q 2.056458251953125 1.0365 2.121708251953125 0.9945 Q 2.186958251953125 0.9525 2.2349582519531253 0.89775 Q 2.282958251953125 0.8430000000000001 2.313708251953125 0.7822500000000001 Q 2.3444582519531254 0.7215 2.360208251953125 0.66 Q 2.375958251953125 0.5985 2.375958251953125 0.543 Q 2.375958251953125 0.4590000000000001 2.3414582519531253 0.36375 Q 2.306958251953125 0.26850000000000007 2.2349582519531253 0.1875 Q 2.162958251953125 0.10650000000000004 2.052708251953125 0.05325000000000002 Q 1.9424582519531253 0 1.7924582519531251 0 Q 1.643958251953125 0 1.537458251953125 0.05249999999999999 Q 1.4309582519531252 0.1050000000000001 1.361958251953125 0.18525000000000003 Q 1.292958251953125 0.26550000000000007 1.2607082519531252 0.36150000000000004 Q 1.228458251953125 0.4575 1.228458251953125 0.543 M 1.375458251953125 0.543 Q 1.375458251953125 0.43800000000000006 1.4077082519531252 0.35025000000000006 Q 1.439958251953125 0.26250000000000007 1.4962082519531252 0.1995 Q 1.5524582519531251 0.13650000000000007 1.6289582519531252 0.10125000000000006 Q 1.7054582519531252 0.06600000000000006 1.795458251953125 0.06600000000000006 Q 1.8839582519531253 0.06600000000000006 1.9627082519531251 0.10125000000000006 Q 2.041458251953125 0.13650000000000007 2.100708251953125 0.1995 Q 2.159958251953125 0.26250000000000007 2.194458251953125 0.35025000000000006 Q 2.2289582519531255 0.43800000000000006 2.2289582519531255 0.543 Q 2.2289582519531255 0.6480000000000001 2.194458251953125 0.7357500000000001 Q 2.159958251953125 0.8235000000000001 2.100708251953125 0.8865000000000001 Q 2.041458251953125 0.9495 1.9627082519531251 0.98475 Q 1.8839582519531253 1.02 1.795458251953125 1.02 Q 1.7054582519531252 1.02 1.6289582519531252 0.98475 Q 1.5524582519531251 0.9495 1.4962082519531252 0.8865000000000001 Q 1.439958251953125 0.8235000000000001 1.4077082519531252 0.7357500000000001 Q 1.375458251953125 0.6480000000000001 1.375458251953125 0.543 M 2.5409436035156254 0.543 Q 2.5409436035156254 0.627 2.5731936035156253 0.7222500000000001 Q 2.605443603515625 0.8175000000000001 2.674443603515625 0.8985000000000001 Q 2.743443603515625 0.9795 2.849943603515625 1.03275 Q 2.956443603515625 1.086 3.1049436035156255 1.086 Q 3.2054436035156253 1.086 3.2871936035156253 1.06125 Q 3.3689436035156253 1.0365 3.4341936035156255 0.9945 Q 3.4994436035156253 0.9525 3.5474436035156254 0.89775 Q 3.5954436035156254 0.8430000000000001 3.6261936035156253 0.7822500000000001 Q 3.656943603515625 0.7215 3.6726936035156252 0.66 Q 3.6884436035156254 0.5985 3.6884436035156254 0.543 Q 3.6884436035156254 0.4590000000000001 3.653943603515625 0.36375 Q 3.6194436035156254 0.26850000000000007 3.5474436035156254 0.1875 Q 3.4754436035156253 0.10650000000000004 3.365193603515625 0.05325000000000002 Q 3.2549436035156254 0 3.1049436035156255 0 Q 2.956443603515625 0 2.849943603515625 0.05249999999999999 Q 2.743443603515625 0.1050000000000001 2.674443603515625 0.18525000000000003 Q 2.605443603515625 0.26550000000000007 2.5731936035156253 0.36150000000000004 Q 2.5409436035156254 0.4575 2.5409436035156254 0.543 M 2.6879436035156252 0.543 Q 2.6879436035156252 0.43800000000000006 2.720193603515625 0.35025000000000006 Q 2.7524436035156254 0.26250000000000007 2.8086936035156254 0.1995 Q 2.8649436035156253 0.13650000000000007 2.9414436035156255 0.10125000000000006 Q 3.0179436035156253 0.06600000000000006 3.107943603515625 0.06600000000000006 Q 3.1964436035156254 0.06600000000000006 3.2751936035156253 0.10125000000000006 Q 3.353943603515625 0.13650000000000007 3.413193603515625 0.1995 Q 3.472443603515625 0.26250000000000007 3.506943603515625 0.35025000000000006 Q 3.541443603515625 0.43800000000000006 3.541443603515625 0.543 Q 3.541443603515625 0.6480000000000001 3.506943603515625 0.7357500000000001 Q 3.472443603515625 0.8235000000000001 3.413193603515625 0.8865000000000001 Q 3.353943603515625 0.9495 3.2751936035156253 0.98475 Q 3.1964436035156254 1.02 3.107943603515625 1.02 Q 3.0179436035156253 1.02 2.9414436035156255 0.98475 Q 2.8649436035156253 0.9495 2.8086936035156254 0.8865000000000001 Q 2.7524436035156254 0.8235000000000001 2.720193603515625 0.7357500000000001 Q 2.6879436035156252 0.6480000000000001 2.6879436035156252 0.543 M 3.9584289550781255 1.068 L 4.094928955078125 1.068 L 4.094928955078125 0.6990000000000001 L 4.264428955078126 0.5175000000000001 L 4.663428955078126 1.068 L 4.819428955078125 1.068 L 4.351428955078125 0.4245000000000001 L 4.7324289550781256 0.018000000000000016 L 4.657428955078125 0.018000000000000016 L 4.094928955078125 0.609 L 4.094928955078125 0.018000000000000016 L 3.9584289550781255 0.018000000000000016 L 3.9584289550781255 1.068 M 5.119427490234376 0.018000000000000016 L 5.119427490234376 1.068 L 5.2559274902343756 1.068 L 5.2559274902343756 0.018000000000000016 L 5.119427490234376 0.018000000000000016 M 6.536943603515626 0.018000000000000016 L 6.536943603515626 0.8205 L 6.530943603515626 0.8205 L 5.698443603515626 0 L 5.690943603515626 0 L 5.690943603515626 1.068 L 5.759943603515626 1.068 L 5.759943603515626 0.26550000000000007 L 5.765943603515626 0.26550000000000007 L 6.598443603515626 1.086 L 6.605943603515626 1.086 L 6.605943603515626 0.018000000000000016 L 6.536943603515626 0.018000000000000016 M 7.936406982421877 0.6000000000000001 L 7.639406982421876 0.6000000000000001 L 7.639406982421876 0.6615 L 7.807406982421877 0.6615 L 7.807406982421877 0.933 Q 7.739906982421877 0.9765 7.669406982421877 0.9975 Q 7.598906982421877 1.0185 7.508906982421877 1.0185 Q 7.390406982421877 1.0185 7.301906982421877 0.9825 Q 7.213406982421876 0.9465000000000001 7.154906982421877 0.88275 Q 7.096406982421876 0.8190000000000001 7.067156982421877 0.7312500000000001 Q 7.037906982421877 0.6435000000000001 7.037906982421877 0.5385000000000001 Q 7.037906982421877 0.43500000000000005 7.065656982421877 0.3480000000000001 Q 7.093406982421877 0.261 7.1489069824218765 0.19800000000000006 Q 7.204406982421877 0.135 7.284656982421876 0.10050000000000003 Q 7.364906982421877 0.06600000000000006 7.471406982421876 0.06600000000000006 Q 7.541906982421876 0.06600000000000006 7.603406982421877 0.08100000000000007 Q 7.6649069824218765 0.09600000000000009 7.712906982421877 0.12 Q 7.760906982421877 0.14400000000000002 7.791656982421877 0.17475000000000007 Q 7.822406982421876 0.20550000000000002 7.831406982421877 0.237 L 7.939406982421877 0.237 Q 7.925906982421877 0.20400000000000007 7.893656982421877 0.16275000000000006 Q 7.861406982421877 0.12150000000000005 7.8059069824218765 0.08550000000000002 Q 7.750406982421877 0.0495000000000001 7.668656982421877 0.02475000000000005 Q 7.586906982421876 0 7.4759069824218765 0 Q 7.348406982421877 0 7.241156982421876 0.03600000000000003 Q 7.133906982421877 0.07200000000000006 7.0559069824218765 0.13950000000000007 Q 6.977906982421876 0.20700000000000007 6.934406982421876 0.30525 Q 6.8909069824218765 0.4035000000000001 6.8909069824218765 0.528 Q 6.8909069824218765 0.6345000000000001 6.924656982421877 0.7342500000000001 Q 6.958406982421876 0.8340000000000001 7.028156982421876 0.9127500000000001 Q 7.097906982421876 0.9915 7.205906982421877 1.03875 Q 7.3139069824218765 1.086 7.463906982421877 1.086 Q 7.576406982421877 1.086 7.6634069824218765 1.06125 Q 7.750406982421877 1.0365 7.807406982421877 1.0065 L 7.807406982421877 1.068 L 7.936406982421877 1.068 L 7.936406982421877 0.6000000000000001 M 8.761395263671877 0.018000000000000016 L 8.761395263671877 1.068 L 9.439395263671878 1.068 L 9.439395263671878 0.9855 L 8.897895263671877 0.9855 L 8.897895263671877 0.546 L 9.362895263671877 0.546 L 9.362895263671877 0.4770000000000001 L 8.897895263671877 0.4770000000000001 L 8.897895263671877 0.10050000000000003 L 9.439395263671878 0.10050000000000003 L 9.439395263671878 0.018000000000000016 L 8.761395263671877 0.018000000000000016 M 9.554879882812504 0.8025 Q 9.557879882812504 0.867 9.588629882812503 0.9195000000000001 Q 9.619379882812503 0.9720000000000001 9.672629882812503 1.00875 Q 9.725879882812503 1.0455 9.797879882812504 1.06575 Q 9.869879882812503 1.086 9.955379882812503 1.086 Q 10.042379882812503 1.086 10.112129882812503 1.0650000000000002 Q 10.181879882812503 1.044 10.231379882812503 1.0050000000000001 Q 10.280879882812503 0.9660000000000001 10.307879882812504 0.9105000000000001 Q 10.334879882812503 0.8550000000000001 10.334879882812503 0.7875000000000001 Q 10.334879882812503 0.6945000000000001 10.288379882812503 0.6352500000000001 Q 10.241879882812503 0.5760000000000001 10.172129882812504 0.53625 Q 10.102379882812503 0.49650000000000005 10.020629882812504 0.46950000000000003 Q 9.938879882812504 0.4425 9.869129882812503 0.4125000000000001 Q 9.799379882812504 0.38250000000000006 9.752879882812504 0.3435 Q 9.706379882812504 0.3045 9.706379882812504 0.24 Q 9.706379882812504 0.20400000000000007 9.722129882812503 0.1725 Q 9.737879882812503 0.14100000000000001 9.768629882812503 0.11775000000000002 Q 9.799379882812504 0.09450000000000003 9.844379882812504 0.08025000000000004 Q 9.889379882812504 0.06600000000000006 9.947879882812503 0.06600000000000006 Q 10.045379882812503 0.06600000000000006 10.113629882812504 0.10725000000000007 Q 10.181879882812503 0.14850000000000008 10.193879882812503 0.237 L 10.295879882812503 0.237 Q 10.286879882812503 0.1815 10.255379882812504 0.1372500000000001 Q 10.223879882812504 0.09300000000000008 10.175879882812504 0.06225000000000014 Q 10.127879882812504 0.031500000000000083 10.067129882812504 0.01574999999999993 Q 10.006379882812503 0 9.940379882812504 0 Q 9.871379882812503 0 9.809129882812503 0.018000000000000016 Q 9.746879882812504 0.03600000000000003 9.699629882812504 0.07050000000000001 Q 9.652379882812504 0.1050000000000001 9.624629882812503 0.15750000000000008 Q 9.596879882812503 0.21000000000000008 9.596879882812503 0.2775000000000001 Q 9.596879882812503 0.366 9.641879882812503 0.42000000000000004 Q 9.686879882812503 0.4740000000000001 9.755129882812504 0.51 Q 9.823379882812503 0.546 9.902879882812503 0.5715000000000001 Q 9.982379882812504 0.597 10.050629882812503 0.6292500000000001 Q 10.118879882812504 0.6615 10.163879882812504 0.7080000000000001 Q 10.208879882812504 0.7545000000000001 10.208879882812504 0.8325 Q 10.208879882812504 0.93 10.137629882812503 0.9750000000000001 Q 10.066379882812504 1.02 9.947879882812503 1.02 Q 9.853379882812503 1.02 9.796379882812504 0.9952500000000001 Q 9.739379882812504 0.9705 9.709379882812504 0.936 Q 9.679379882812503 0.9015000000000001 9.668879882812503 0.86475 Q 9.658379882812504 0.8280000000000001 9.656879882812504 0.8025 L 9.554879882812504 0.8025 M 10.507379882812504 0.8025 Q 10.510379882812504 0.867 10.541129882812504 0.9195000000000001 Q 10.571879882812503 0.9720000000000001 10.625129882812503 1.00875 Q 10.678379882812504 1.0455 10.750379882812505 1.06575 Q 10.822379882812504 1.086 10.907879882812503 1.086 Q 10.994879882812503 1.086 11.064629882812504 1.0650000000000002 Q 11.134379882812503 1.044 11.183879882812503 1.0050000000000001 Q 11.233379882812503 0.9660000000000001 11.260379882812504 0.9105000000000001 Q 11.287379882812504 0.8550000000000001 11.287379882812504 0.7875000000000001 Q 11.287379882812504 0.6945000000000001 11.240879882812504 0.6352500000000001 Q 11.194379882812504 0.5760000000000001 11.124629882812505 0.53625 Q 11.054879882812504 0.49650000000000005 10.973129882812504 0.46950000000000003 Q 10.891379882812505 0.4425 10.821629882812504 0.4125000000000001 Q 10.751879882812505 0.38250000000000006 10.705379882812505 0.3435 Q 10.658879882812505 0.3045 10.658879882812505 0.24 Q 10.658879882812505 0.20400000000000007 10.674629882812503 0.1725 Q 10.690379882812504 0.14100000000000001 10.721129882812503 0.11775000000000002 Q 10.751879882812505 0.09450000000000003 10.796879882812505 0.08025000000000004 Q 10.841879882812504 0.06600000000000006 10.900379882812503 0.06600000000000006 Q 10.997879882812503 0.06600000000000006 11.066129882812504 0.10725000000000007 Q 11.134379882812503 0.14850000000000008 11.146379882812504 0.237 L 11.248379882812504 0.237 Q 11.239379882812504 0.1815 11.207879882812504 0.1372500000000001 Q 11.176379882812505 0.09300000000000008 11.128379882812505 0.06225000000000014 Q 11.080379882812505 0.031500000000000083 11.019629882812504 0.01574999999999993 Q 10.958879882812504 0 10.892879882812505 0 Q 10.823879882812504 0 10.761629882812503 0.018000000000000016 Q 10.699379882812504 0.03600000000000003 10.652129882812504 0.07050000000000001 Q 10.604879882812504 0.1050000000000001 10.577129882812503 0.15750000000000008 Q 10.549379882812504 0.21000000000000008 10.549379882812504 0.2775000000000001 Q 10.549379882812504 0.366 10.594379882812504 0.42000000000000004 Q 10.639379882812504 0.4740000000000001 10.707629882812505 0.51 Q 10.775879882812504 0.546 10.855379882812503 0.5715000000000001 Q 10.934879882812504 0.597 11.003129882812503 0.6292500000000001 Q 11.071379882812504 0.6615 11.116379882812504 0.7080000000000001 Q 11.161379882812504 0.7545000000000001 11.161379882812504 0.8325 Q 11.161379882812504 0.93 11.090129882812503 0.9750000000000001 Q 11.018879882812504 1.02 10.900379882812503 1.02 Q 10.805879882812503 1.02 10.748879882812505 0.9952500000000001 Q 10.691879882812504 0.9705 10.661879882812505 0.936 Q 10.631879882812504 0.9015000000000001 10.621379882812503 0.86475 Q 10.610879882812505 0.8280000000000001 10.609379882812505 0.8025 L 10.507379882812504 0.8025 M 11.584379882812504 0.018000000000000016 L 11.584379882812504 1.068 L 12.262379882812505 1.068 L 12.262379882812505 0.9855 L 11.720879882812504 0.9855 L 11.720879882812504 0.546 L 12.185879882812504 0.546 L 12.185879882812504 0.4770000000000001 L 11.720879882812504 0.4770000000000001 L 11.720879882812504 0.10050000000000003 L 12.262379882812505 0.10050000000000003 L 12.262379882812505 0.018000000000000016 L 11.584379882812504 0.018000000000000016 M 13.34836450195313 0.018000000000000016 L 13.34836450195313 0.8205 L 13.34236450195313 0.8205 L 12.50986450195313 0 L 12.50236450195313 0 L 12.50236450195313 1.068 L 12.57136450195313 1.068 L 12.57136450195313 0.26550000000000007 L 12.57736450195313 0.26550000000000007 L 13.40986450195313 1.086 L 13.41736450195313 1.086 L 13.41736450195313 0.018000000000000016 L 13.34836450195313 0.018000000000000016 M 14.18082788085938 1.068 L 14.18082788085938 0.10050000000000003 L 14.58282788085938 0.10050000000000003 L 14.58282788085938 0.018000000000000016 L 13.64232788085938 0.018000000000000016 L 13.64232788085938 0.10050000000000003 L 14.044327880859381 0.10050000000000003 L 14.044327880859381 1.068 L 14.18082788085938 1.068 M 14.867816162109381 0.018000000000000016 L 14.867816162109381 1.068 L 15.004316162109381 1.068 L 15.004316162109381 0.018000000000000016 L 14.867816162109381 0.018000000000000016 M 16.02283227539063 0.7590000000000001 L 16.166832275390632 1.068 L 16.31233227539063 1.068 L 15.823332275390632 0.018000000000000016 L 15.748332275390633 0.018000000000000016 L 15.304332275390632 1.068 L 15.373332275390633 1.068 L 15.505332275390632 0.7590000000000001 L 16.02283227539063 0.7590000000000001 M 15.991332275390631 0.6915 L 15.533832275390631 0.6915 L 15.749832275390633 0.18600000000000005 L 15.755832275390631 0.18600000000000005 L 15.991332275390631 0.6915 M 16.552324218750005 1.068 L 16.552324218750005 0.018000000000000016 L 16.688824218750007 0.018000000000000016 L 16.688824218750007 0.9855 L 17.230324218750006 0.9855 L 17.230324218750006 1.068 L 16.552324218750005 1.068 M 17.34580883789063 0.8025 Q 17.34880883789063 0.867 17.37955883789063 0.9195000000000001 Q 17.410308837890632 0.9720000000000001 17.46355883789063 1.00875 Q 17.516808837890633 1.0455 17.58880883789063 1.06575 Q 17.66080883789063 1.086 17.74630883789063 1.086 Q 17.83330883789063 1.086 17.90305883789063 1.0650000000000002 Q 17.972808837890632 1.044 18.02230883789063 1.0050000000000001 Q 18.071808837890632 0.9660000000000001 18.09880883789063 0.9105000000000001 Q 18.12580883789063 0.8550000000000001 18.12580883789063 0.7875000000000001 Q 18.12580883789063 0.6945000000000001 18.079308837890633 0.6352500000000001 Q 18.03280883789063 0.5760000000000001 17.96305883789063 0.53625 Q 17.893308837890633 0.49650000000000005 17.81155883789063 0.46950000000000003 Q 17.72980883789063 0.4425 17.66005883789063 0.4125000000000001 Q 17.590308837890632 0.38250000000000006 17.54380883789063 0.3435 Q 17.497308837890632 0.3045 17.497308837890632 0.24 Q 17.497308837890632 0.20400000000000007 17.513058837890632 0.1725 Q 17.52880883789063 0.14100000000000001 17.55955883789063 0.11775000000000002 Q 17.590308837890632 0.09450000000000003 17.63530883789063 0.08025000000000004 Q 17.68030883789063 0.06600000000000006 17.73880883789063 0.06600000000000006 Q 17.83630883789063 0.06600000000000006 17.90455883789063 0.10725000000000007 Q 17.972808837890632 0.14850000000000008 17.984808837890633 0.237 L 18.08680883789063 0.237 Q 18.077808837890633 0.1815 18.04630883789063 0.1372500000000001 Q 18.01480883789063 0.09300000000000008 17.966808837890632 0.06225000000000014 Q 17.91880883789063 0.031500000000000083 17.85805883789063 0.01574999999999993 Q 17.797308837890633 0 17.73130883789063 0 Q 17.66230883789063 0 17.600058837890632 0.018000000000000016 Q 17.53780883789063 0.03600000000000003 17.49055883789063 0.07050000000000001 Q 17.44330883789063 0.1050000000000001 17.415558837890632 0.15750000000000008 Q 17.38780883789063 0.21000000000000008 17.38780883789063 0.2775000000000001 Q 17.38780883789063 0.366 17.43280883789063 0.42000000000000004 Q 17.47780883789063 0.4740000000000001 17.54605883789063 0.51 Q 17.614308837890633 0.546 17.693808837890632 0.5715000000000001 Q 17.77330883789063 0.597 17.84155883789063 0.6292500000000001 Q 17.90980883789063 0.6615 17.95480883789063 0.7080000000000001 Q 17.99980883789063 0.7545000000000001 17.99980883789063 0.8325 Q 17.99980883789063 0.93 17.92855883789063 0.9750000000000001 Q 17.85730883789063 1.02 17.73880883789063 1.02 Q 17.64430883789063 1.02 17.58730883789063 0.9952500000000001 Q 17.53030883789063 0.9705 17.500308837890632 0.936 Q 17.47030883789063 0.9015000000000001 17.45980883789063 0.86475 Q 17.44930883789063 0.8280000000000001 17.44780883789063 0.8025 L 17.34580883789063 0.8025" fill="#3f170e" fill-rule="nonzero"></path></g><g></g><g clip-path="url(#SvgjsClipPath1002)"><g clip-path="url(#SvgjsClipPath1000eb832bca-bc40-4d77-9f2c-3fb7ac46b0d1)"><path d=" M 12.128719376607751 -15.427499881859937 L 15.913971723436731 -15.298298072689505 L 15.582374961969752 -11.008331269347462 L 14.554488647633562 -11.008331269347462 C 14.452654709371153 -9.809236646307589 14.363550013391539 -5.318784277011426 14.363550013391539 -5.318784277011426 C 14.363550013391539 -5.318784277011426 13.578580072618802 -5.201887402047703 13.656016296505843 -5.35824492808811 C 13.730694517898272 -5.506752754720791 13.734513290583116 -10.558140400612391 13.734513290583116 -11.008331269347462 L 12.89247391357582 -11.008331269347462 Z M 13.892143740851811 -15.158064253540646 C 13.836771536921624 -15.186280740600854 13.795825807578613 -15.093357271936405 13.786066721828462 -14.832195651100935 C 13.750424843436619 -13.926722216717678 13.937756859031847 -13.010004618317947 13.937756859031847 -12.125110125625218 C 13.937756859031847 -12.01606295006922 14.091780690653742 -11.285404443036432 14.184916313356236 -11.507317566833267 C 14.647836424374098 -12.612003642942362 14.131453495768465 -15.035651373587706 13.891719432775716 -15.158912869692832 Z M 12.718507602377535 -14.955881455282153 C 12.481531541879388 -14.909419720949929 13.069834689382851 -12.137202905793878 13.139633367900213 -11.939687496372414 C 13.211129278721945 -11.73771685215197 13.231496066374426 -11.204785908578692 13.369820499180868 -11.355627429629887 C 13.90317575083024 -11.93671733983976 13.134965979063185 -14.771307442181536 12.746511935399706 -14.950153296254893 C 12.737888353025806 -14.95462094058188 12.72819283768273 -14.95660411417478 12.718507602377546 -14.955881455282153 Z M 15.262658826633398 -14.933393127249204 C 15.254729460426205 -14.934096286777786 15.24679724039714 -14.932075815638306 15.240170498600449 -14.927664968221944 C 14.728030650755752 -14.616859302483547 14.640411033042469 -11.660492782302974 14.953762547237424 -11.394875926668522 C 15.075963273152315 -11.29134475610174 15.167189509512394 -11.916987014301418 15.167189509512394 -12.040884972520683 C 15.167189509512394 -12.253039010567369 15.499634887131549 -14.922997579384916 15.262658826633398 -14.933393127249204 Z" fill="#3f170e" transform="matrix(1,0,0,1,0,0)" fill-rule="nonzero"></path></g><g clip-path="url(#SvgjsClipPath1000eb832bca-bc40-4d77-9f2c-3fb7ac46b0d1)"><path d=" M 14.039378643256207 -0.35607701902334377 C 14.175987443529326 -0.36376108272285634 14.298918140372965 -0.441515550896149 14.36439862954374 -0.5616542818905845 C 14.464111027425673 -0.7146173433222387 14.442047007468823 -0.9687778809021701 14.344456149967343 -1.3175591194509249 C 14.391766500451755 -1.3218022002118595 14.423801760196806 -1.3245602027064667 14.477052423746521 -1.3307126698098184 L 14.715725716549038 -5.4350446898610105 L 13.502416772960043 -5.4350446898610105 L 13.290262734913355 -1.3311369778859135 C 13.349241557490334 -1.3311369778859135 13.398036986241074 -1.3275303592391179 13.44937826344837 -1.3245602027064667 C 13.406669246185693 -1.1773189470092014 13.406669246185693 -1.0209741275545188 13.44937826344837 -0.873732871857257 C 13.52581836384049 -0.5993405057253121 13.757374668682989 -0.3961771170824857 14.039378643256207 -0.35607701902334377 Z M 14.019648317717866 -0.5550775067111324 C 13.866260948210112 -0.5468034992273108 13.716692351387199 -0.7405001359639378 13.648378751136164 -0.9329238484722815 C 13.604888044725296 -1.0555371338003958 13.607224055380815 -1.1897447137193033 13.65495552631561 -1.3107701902334306 C 13.81374744541493 -1.2979585878311894 13.973217503598185 -1.2957614448073311 14.132302111920659 -1.304193415053982 C 14.230741585574318 -0.9558364845813241 14.244107289971257 -0.7243764290723895 14.171974917035392 -0.6412120461580884 C 14.135008670011533 -0.5929997717884188 14.08001657362681 -0.5619039624120994 14.01964831771787 -0.5550775067111324 Z" fill="#c08c46" transform="matrix(1,0,0,1,0,0)" fill-rule="nonzero"></path></g><g clip-path="url(#SvgjsClipPath1000eb832bca-bc40-4d77-9f2c-3fb7ac46b0d1)"><path d=" M 14.067382976278367 -5.204433250504264 L 13.908479601781398 -1.326893897124977 L 13.842075387872786 -1.400299194289131 L 13.980611974717274 -5.279111471896698 L 14.067382976278367 -5.204433250504264 Z" fill="#3f170e" transform="matrix(1,0,0,1,0,0)" fill-rule="nonzero"></path></g><g clip-path="url(#SvgjsClipPath1000eb832bca-bc40-4d77-9f2c-3fb7ac46b0d1)"><path d=" M 13.961730265331116 -3.468588911206277 L 13.714570811006727 -3.6949572698020905 L 13.428162859643702 -3.525658347440835 L 13.707145419675093 -3.2978049105786944 L 13.961730265331116 -3.468588911206277 Z" fill="#3f170e" transform="matrix(1,0,0,1,0,0)" fill-rule="nonzero"></path></g><g clip-path="url(#SvgjsClipPath1000eb832bca-bc40-4d77-9f2c-3fb7ac46b0d1)"><path d=" M 14.475355191442144 -3.4026090053737583 L 14.228407891155804 -3.6289773639695735 L 13.94178778575473 -3.459890595646364 L 14.220982499824167 -3.231612850708128 L 14.475355191442144 -3.4026090053737583 Z" fill="#3f170e" transform="matrix(1,0,0,1,0,0)" fill-rule="nonzero"></path></g><g clip-path="url(#SvgjsClipPath1000eb832bca-bc40-4d77-9f2c-3fb7ac46b0d1)"><path d=" M 13.995250603342491 -3.9709696733008304 L 13.755516540349738 -3.828402159733457 L 13.448317493258138 -4.019128639937428 L 13.748939765170292 -4.207097117646791 L 13.995250603342491 -3.9709696733008304 Z" fill="#3f170e" transform="matrix(1,0,0,1,0,0)" fill-rule="nonzero"></path></g><g clip-path="url(#SvgjsClipPath1000eb832bca-bc40-4d77-9f2c-3fb7ac46b0d1)"><path d=" M 13.976156739918292 -3.9720304434910645 L 14.210586951959879 -4.202005420733672 L 14.526272160573349 -3.9720304434910645 L 14.205070946970668 -3.7660288725477304 L 13.976156739918292 -3.9720304434910645 Z" fill="#3f170e" transform="matrix(1,0,0,1,0,0)" fill-rule="nonzero"></path></g><g clip-path="url(#SvgjsClipPath1000eb832bca-bc40-4d77-9f2c-3fb7ac46b0d1)"><path d=" M 14.036196332685503 -4.579639608456771 L 13.760608237262858 -4.380851274807027 L 13.498810154313247 -4.579003146342632 L 13.806221355442897 -4.776094247688004 L 14.036196332685503 -4.579639608456771 Z" fill="#3f170e" transform="matrix(1,0,0,1,0,0)" fill-rule="nonzero"></path></g><g clip-path="url(#SvgjsClipPath1000eb832bca-bc40-4d77-9f2c-3fb7ac46b0d1)"><path d=" M 14.524999236345067 -4.524903866640729 L 14.285265173352315 -4.382336353073354 L 13.978066126260714 -4.573062833277325 L 14.278476244134822 -4.760819156948642 L 14.524999236345067 -4.524903866640729 Z" fill="#3f170e" transform="matrix(1,0,0,1,0,0)" fill-rule="nonzero"></path></g><g clip-path="url(#SvgjsClipPath1000eb832bca-bc40-4d77-9f2c-3fb7ac46b0d1)"><path d=" M 13.883657579329935 -2.0433380836086403 L 13.636498125005549 -2.2699185962424995 L 13.349878019604475 -2.100619673881244 L 13.629072733673912 -1.8725540829810559 L 13.883657579329935 -2.0433380836086403 Z" fill="#3f170e" transform="matrix(1,0,0,1,0,0)" fill-rule="nonzero"></path></g><g clip-path="url(#SvgjsClipPath1000eb832bca-bc40-4d77-9f2c-3fb7ac46b0d1)"><path d=" M 14.397282505440963 -1.9775703318141673 L 14.150123051116573 -2.203938690409979 L 13.863715099753549 -2.034851922086771 L 14.142909813822989 -1.8067863311865828 L 14.397282505440963 -1.9775703318141673 Z" fill="#3f170e" transform="matrix(1,0,0,1,0,0)" fill-rule="nonzero"></path></g><g clip-path="url(#SvgjsClipPath1000eb832bca-bc40-4d77-9f2c-3fb7ac46b0d1)"><path d=" M 13.940727015564494 -2.4871643312023046 L 13.700992952571738 -2.3448089716729807 L 13.393793905480138 -2.5355354518769495 L 13.694204023354246 -2.723291775548267 L 13.940727015564494 -2.4871643312023046 Z" fill="#3f170e" transform="matrix(1,0,0,1,0,0)" fill-rule="nonzero"></path></g><g clip-path="url(#SvgjsClipPath1000eb832bca-bc40-4d77-9f2c-3fb7ac46b0d1)"><path d=" M 13.921633152140295 -2.4882251013925387 L 14.155851210143837 -2.7184122326731934 L 14.471536418757303 -2.4882251013925387 L 14.150335205154622 -2.2822235304492065 L 13.921633152140295 -2.4882251013925387 Z" fill="#3f170e" transform="matrix(1,0,0,1,0,0)" fill-rule="nonzero"></path></g><g clip-path="url(#SvgjsClipPath1000eb832bca-bc40-4d77-9f2c-3fb7ac46b0d1)"><path d=" M 13.969579964738845 -3.0020621815416124 L 13.6939918693162 -2.8032738478918677 L 13.43219378636659 -3.0014257194274734 L 13.739604987496236 -3.198516820772845 L 13.969579964738845 -3.0020621815416124 Z" fill="#3f170e" transform="matrix(1,0,0,1,0,0)" fill-rule="nonzero"></path></g><g clip-path="url(#SvgjsClipPath1000eb832bca-bc40-4d77-9f2c-3fb7ac46b0d1)"><path d=" M 14.458595022436459 -2.9471142856875225 L 14.218648805405657 -2.8045467721201494 L 13.911661912352098 -2.9954854063621656 L 14.212072030226206 -3.1830295759954375 L 14.458595022436459 -2.9471142856875225 Z" fill="#3f170e" transform="matrix(1,0,0,1,0,0)" fill-rule="nonzero"></path></g><g clip-path="url(#SvgjsClipPath1000eb832bca-bc40-4d77-9f2c-3fb7ac46b0d1)"><path d=" M 14.036196332685503 -5.108327471269115 L 13.789249032399162 -5.334907983902976 L 13.502628926998089 -5.165609061541721 L 13.781823641067529 -4.937543470641533 L 14.036196332685503 -5.108327471269115 Z" fill="#3f170e" transform="matrix(1,0,0,1,0,0)" fill-rule="nonzero"></path></g><g clip-path="url(#SvgjsClipPath1000eb832bca-bc40-4d77-9f2c-3fb7ac46b0d1)"><path d=" M 14.561701884927146 -5.05422819156721 L 14.314542430602756 -5.280596550163024 L 14.028346633277778 -5.111509781839816 L 14.307117039271123 -4.883444190939628 L 14.561701884927146 -5.05422819156721 Z" fill="#3f170e" transform="matrix(1,0,0,1,0,0)" fill-rule="nonzero"></path></g><g clip-path="url(#SvgjsClipPath1000eb832bca-bc40-4d77-9f2c-3fb7ac46b0d1)"><path d=" M 13.891295124699617 -1.5543230259110263 L 13.644135670375228 -1.7806913845068433 L 13.3577277190122 -1.6116046161836302 L 13.636710279043594 -1.3835390252834472 L 13.891295124699617 -1.5543230259110263 Z" fill="#3f170e" transform="matrix(1,0,0,1,0,0)" fill-rule="nonzero"></path></g><g clip-path="url(#SvgjsClipPath1000eb832bca-bc40-4d77-9f2c-3fb7ac46b0d1)"><path d=" M 14.404920050810645 -1.5354413165248726 L 14.157972750524301 -1.7618096751206842 L 13.871352645123228 -1.5927229067974764 L 14.150547359192668 -1.3646573158972881 L 14.404920050810645 -1.5354413165248726 Z" fill="#3f170e" transform="matrix(1,0,0,1,0,0)" fill-rule="nonzero"></path></g><g clip-path="url(#SvgjsClipPath1000eb832bca-bc40-4d77-9f2c-3fb7ac46b0d1)"><path d=" M 3.8572577412435427 -15.810650074572251 C 6.626716553904988 -15.859869811399083 5.806104734740408 -11.867767277474588 4.604252109205921 -10.587417657862835 C 4.604252109205921 -9.573321355999674 4.607858727852715 -5.469413644024575 4.677233098293984 -5.330452749103994 C 4.755305784295162 -5.174095223063588 3.975215386397499 -5.291204252065359 3.975215386397499 -5.291204252065359 C 3.975215386397499 -5.291204252065359 3.9060531699942804 -8.842238540890794 3.8180092442049056 -10.463095391567478 C 2.45088862303206 -11.13774523255594 1.2452172248127407 -15.764188340240029 3.8572577412435427 -15.810650074572251 Z" fill="#3f170e" transform="matrix(1,0,0,1,0,0)" fill-rule="nonzero"></path></g><g clip-path="url(#SvgjsClipPath1000eb832bca-bc40-4d77-9f2c-3fb7ac46b0d1)"><path d=" M 4.2989624484567415 -0.3295577642675056 C 4.580853300451004 -0.3695918719572777 4.812379900529205 -0.5725626921624762 4.888962828264582 -0.8467893090253291 C 4.931671845527254 -0.9940305647225909 4.931671845527254 -1.1503753841772735 4.888962828264582 -1.2976166398745352 C 4.940304105471873 -1.3005867964071918 4.98888738018457 -1.304193415053982 5.048078356799594 -1.304193415053982 L 4.835924318752905 -5.408101127029083 L 3.62261537516391 -5.408101127029083 L 3.8612886679664307 -1.304193415053982 C 3.9145393315161514 -1.2980409479506285 3.9461502831851067 -1.2952829454560213 3.99388494174561 -1.2910398646950885 C 3.8962940842441345 -0.9422586261463355 3.87423006428728 -0.6880980885664059 3.9739424621692243 -0.5351350271347464 C 4.0394229513399935 -0.41499629614031264 4.162353648183631 -0.33724182796701996 4.2989624484567415 -0.3295577642675074 Z M 4.318692773995082 -0.5351350271347464 C 4.259019450688728 -0.5391629524062669 4.203766989115966 -0.5680204358182248 4.166366174677567 -0.614692791402252 C 4.094445955779739 -0.6976450202785074 4.108023814214723 -0.930165845977676 4.206038979792298 -1.2776741602981474 C 4.365123637556511 -1.269244714283504 4.524593527331647 -1.2714418549870743 4.683385565397341 -1.2842509354775942 C 4.731117036332137 -1.1632254589634705 4.733453046987663 -1.029017879044563 4.689962340576792 -0.9064045937164469 C 4.6216487403257585 -0.7139808812081014 4.471867989464797 -0.5268610196509247 4.318692773995087 -0.5351350271347464 Z" fill="#c08c46" transform="matrix(1,0,0,1,0,0)" fill-rule="nonzero"></path></g><g clip-path="url(#SvgjsClipPath1000eb832bca-bc40-4d77-9f2c-3fb7ac46b0d1)"><path d=" M 4.271382423510674 -5.179823382090847 L 4.430285798007642 -1.3022840287115631 L 4.496690011916255 -1.3754771718376677 L 4.358153425071768 -5.254501603483282 L 4.271382423510674 -5.179823382090847 Z" fill="#3f170e" transform="matrix(1,0,0,1,0,0)" fill-rule="nonzero"></path></g><g clip-path="url(#SvgjsClipPath1000eb832bca-bc40-4d77-9f2c-3fb7ac46b0d1)"><path d=" M 4.377035134457923 -3.443766888754814 L 4.624194588782313 -3.670135247350629 L 4.910602540145339 -3.5010484790274194 L 4.631619980113947 -3.272982888127231 L 4.377035134457923 -3.443766888754814 Z" fill="#3f170e" transform="matrix(1,0,0,1,0,0)" fill-rule="nonzero"></path></g><g clip-path="url(#SvgjsClipPath1000eb832bca-bc40-4d77-9f2c-3fb7ac46b0d1)"><path d=" M 3.863198054308849 -3.377786982922295 L 4.110357508633239 -3.6041553415181102 L 4.396765459996265 -3.4350685731949024 L 4.1177828999648725 -3.2070029822947106 L 3.863198054308849 -3.377786982922295 Z" fill="#3f170e" transform="matrix(1,0,0,1,0,0)" fill-rule="nonzero"></path></g><g clip-path="url(#SvgjsClipPath1000eb832bca-bc40-4d77-9f2c-3fb7ac46b0d1)"><path d=" M 4.343514796446547 -3.946359804887413 L 4.583248859439303 -3.8037922913200415 L 4.890235752492858 -3.994518771524012 L 4.58982563461875 -4.182275095195331 L 4.343514796446547 -3.946359804887413 Z" fill="#3f170e" transform="matrix(1,0,0,1,0,0)" fill-rule="nonzero"></path></g><g clip-path="url(#SvgjsClipPath1000eb832bca-bc40-4d77-9f2c-3fb7ac46b0d1)"><path d=" M 4.362608659870748 -3.9474205750776488 L 4.1281784478291605 -4.177395552320256 L 3.812493239215691 -3.9474205750776488 L 4.133694452818374 -3.741206850096269 L 4.362608659870748 -3.9474205750776488 Z" fill="#3f170e" transform="matrix(1,0,0,1,0,0)" fill-rule="nonzero"></path></g><g clip-path="url(#SvgjsClipPath1000eb832bca-bc40-4d77-9f2c-3fb7ac46b0d1)"><path d=" M 4.302569067103537 -4.5550297400433575 L 4.578157162526182 -4.356241406393611 L 4.839955245475792 -4.554393277929215 L 4.532544044346144 -4.751484379274588 L 4.302569067103537 -4.5550297400433575 Z" fill="#3f170e" transform="matrix(1,0,0,1,0,0)" fill-rule="nonzero"></path></g><g clip-path="url(#SvgjsClipPath1000eb832bca-bc40-4d77-9f2c-3fb7ac46b0d1)"><path d=" M 3.8137661634439715 -4.500081844189266 L 4.053500226436727 -4.357726484659938 L 4.360699273528329 -4.548452964863911 L 4.060289155654221 -4.736209288535228 L 3.8137661634439715 -4.500081844189266 Z" fill="#3f170e" transform="matrix(1,0,0,1,0,0)" fill-rule="nonzero"></path></g><g clip-path="url(#SvgjsClipPath1000eb832bca-bc40-4d77-9f2c-3fb7ac46b0d1)"><path d=" M 4.455107820459103 -2.0187282151952246 L 4.702267274783494 -2.245096573791038 L 4.98867522614652 -2.0760098054678284 L 4.709692666115128 -1.8479442145676401 L 4.455107820459103 -2.0187282151952246 Z" fill="#3f170e" transform="matrix(1,0,0,1,0,0)" fill-rule="nonzero"></path></g><g clip-path="url(#SvgjsClipPath1000eb832bca-bc40-4d77-9f2c-3fb7ac46b0d1)"><path d=" M 3.941482894348076 -1.9529604634007516 L 4.188642348672466 -2.179328821996563 L 4.475050300035493 -2.0102420536733554 L 4.195855585966053 -1.7819643087351196 L 3.941482894348076 -1.9529604634007516 Z" fill="#3f170e" transform="matrix(1,0,0,1,0,0)" fill-rule="nonzero"></path></g><g clip-path="url(#SvgjsClipPath1000eb832bca-bc40-4d77-9f2c-3fb7ac46b0d1)"><path d=" M 4.398038384224545 -2.4625544627888907 L 4.637772447217301 -2.3199869492215157 L 4.944971494308903 -2.510925583463534 L 4.644561376434795 -2.6986819071348513 L 4.398038384224545 -2.4625544627888907 Z" fill="#3f170e" transform="matrix(1,0,0,1,0,0)" fill-rule="nonzero"></path></g><g clip-path="url(#SvgjsClipPath1000eb832bca-bc40-4d77-9f2c-3fb7ac46b0d1)"><path d=" M 4.417132247648747 -2.463615232979123 L 4.182914189645206 -2.69359021022173 L 3.867228981031736 -2.463615232979123 L 4.188430194634419 -2.257613662035789 L 4.417132247648747 -2.463615232979123 Z" fill="#3f170e" transform="matrix(1,0,0,1,0,0)" fill-rule="nonzero"></path></g><g clip-path="url(#SvgjsClipPath1000eb832bca-bc40-4d77-9f2c-3fb7ac46b0d1)"><path d=" M 4.369185435050197 -2.9774523131281985 L 4.6447735304728415 -2.778663979478454 L 4.906359459384406 -2.976603696976012 L 4.598948258254757 -3.1736947983213835 L 4.369185435050197 -2.9774523131281985 Z" fill="#3f170e" transform="matrix(1,0,0,1,0,0)" fill-rule="nonzero"></path></g><g clip-path="url(#SvgjsClipPath1000eb832bca-bc40-4d77-9f2c-3fb7ac46b0d1)"><path d=" M 3.8801703773525844 -2.9222922632360593 L 4.119904440345339 -2.7799369037067336 L 4.427103487436941 -2.970663383910704 L 4.126693369562833 -3.15841970758202 L 3.8801703773525844 -2.9222922632360593 Z" fill="#3f170e" transform="matrix(1,0,0,1,0,0)" fill-rule="nonzero"></path></g><g clip-path="url(#SvgjsClipPath1000eb832bca-bc40-4d77-9f2c-3fb7ac46b0d1)"><path d=" M 4.302569067103537 -5.0837176028557 L 4.549516367389879 -5.310085961451515 L 4.836136472790953 -5.140999193128305 L 4.556941758721513 -4.912933602228117 L 4.302569067103537 -5.0837176028557 Z" fill="#3f170e" transform="matrix(1,0,0,1,0,0)" fill-rule="nonzero"></path></g><g clip-path="url(#SvgjsClipPath1000eb832bca-bc40-4d77-9f2c-3fb7ac46b0d1)"><path d=" M 3.7770635148618945 -5.0296183231537945 L 4.024222969186284 -5.255774527711562 L 4.310418766511264 -5.0868999134264 L 4.031648360517918 -4.858622168488166 L 3.7770635148618945 -5.0296183231537945 Z" fill="#3f170e" transform="matrix(1,0,0,1,0,0)" fill-rule="nonzero"></path></g><g clip-path="url(#SvgjsClipPath1000eb832bca-bc40-4d77-9f2c-3fb7ac46b0d1)"><path d=" M 4.447470275089423 -1.5297131574976088 L 4.694629729413813 -1.756081516093424 L 4.98103768077684 -1.5869947477702162 L 4.702055120745447 -1.358929156870028 L 4.447470275089423 -1.5297131574976088 Z" fill="#3f170e" transform="matrix(1,0,0,1,0,0)" fill-rule="nonzero"></path></g><g clip-path="url(#SvgjsClipPath1000eb832bca-bc40-4d77-9f2c-3fb7ac46b0d1)"><path d=" M 3.933633194940349 -1.510831448111455 L 4.180792649264738 -1.7371998067072667 L 4.467412754665812 -1.568113038384059 L 4.1882180405963725 -1.3398352934458266 L 3.933633194940349 -1.510831448111455 Z" fill="#3f170e" transform="matrix(1,0,0,1,0,0)" fill-rule="nonzero"></path></g><g clip-path="url(#SvgjsClipPath1000eb832bca-bc40-4d77-9f2c-3fb7ac46b0d1)"><path d=" M 9.538530726095757 -5.23158896737424 C 9.702313643467793 -5.295235178788245 9.549350582036134 -7.57483031759989 9.548289811845903 -8.25223816108296 L 9.389174283310886 -8.25223816108296 C 9.769778627566641 -10.138287559318 10.534806088762991 -11.954750433073727 10.536291167029322 -13.900839424075983 C 10.542870030535653 -14.417441073630412 10.469005040975567 -14.931919314868654 10.317348199765139 -15.425802649555566 C 10.090767687131276 -15.878751520785237 9.544258885123014 -16.022379804542844 9.077732155458353 -16.035745508939787 C 8.70900843733321 -16.008377638031764 8.300611914093338 -15.93242649241105 8.056634770339654 -15.624590983205309 C 7.468543776874243 -15.03543921954966 7.358860139204108 -14.14672595417209 7.486576870108205 -13.357300778600372 C 7.667332110523982 -12.091801941651887 8.270273886652662 -10.938744744868147 8.567077385879976 -9.70422039747448 C 8.63568266583664 -9.214385410019315 8.735384307026916 -8.729411684144203 8.865578117411655 -8.25223816108299 L 8.759501098388323 -8.25223816108299 C 8.846908562063557 -7.281209128943276 8.918616626923342 -5.195947088982395 8.918616626923342 -5.195947088982395 C 9.125909282458824 -5.179160038000974 9.334528011591678 -5.191154543988079 9.538530726095763 -5.23158896737424 Z M 9.170443470084752 -8.57046921815299 C 9.086854779094354 -9.2835189400279 9.092582938121621 -10.006539901691008 8.991385461973348 -10.718528853375688 C 8.839907478808016 -12.139960908288487 8.592323716407535 -13.577728824130878 8.779231423926664 -15.00807134864164 C 8.80502239802706 -15.297571144219637 8.893252990029692 -15.578041647919566 9.037847196305572 -15.830168246072551 C 9.445182949355207 -15.950459585645019 9.448153105887865 -15.328636100130181 9.468732047578396 -15.054533082973864 C 9.608541558651162 -12.888864662593289 9.322557915364227 -10.726802860859507 9.170443470084752 -8.57046921815299 Z M 8.971655136435002 -8.835661765711347 C 8.668274862028241 -10.874037763263908 8.138526229025668 -12.926840235403645 8.388231531806618 -15.001494573462189 C 8.407961857344954 -15.319725630532218 8.500673171971362 -15.696935510179229 8.83226993343833 -15.8235914708931 C 8.511068719835642 -15.025680133799513 8.54607413611335 -14.141422103220924 8.580443090276912 -13.297473339871205 C 8.654484849555212 -11.730715768896427 8.917343702695057 -10.177111748280545 8.971655136435011 -8.835661765711347 Z M 9.429059242463662 -9.10743108844915 C 9.57756706909634 -10.796177231300774 10.24733736720973 -12.411093768912151 10.218060109959287 -14.119570237302115 C 10.225286675666137 -14.690587118734273 10.06380934132782 -15.251034503087663 9.753867074713149 -15.730668002228633 C 10.109649396517433 -15.609528046503995 10.252641218160896 -15.24038002030276 10.284252169829857 -14.895417554438847 C 10.555809338529613 -13.317415819447595 10.123439408990466 -11.736443927923688 9.720771044777855 -10.221239788194254 C 9.62127080093396 -9.84954591353646 9.52070978689983 -9.481034349449367 9.429059242463667 -9.10743108844915 Z M 8.567077385879976 -10.300797552461763 C 8.19750505160265 -11.498194943197259 7.628295767523386 -12.666527230720362 7.599230664310993 -13.940724383228758 C 7.5573501866296064 -14.636828916737448 7.868858577748305 -15.30721794278552 8.427904336921355 -15.724091227049206 C 8.46184898300882 -15.70902829034789 8.225297230586762 -15.368096751206865 8.25563525802744 -15.193706131932489 C 8.017598427339058 -13.560544347049097 8.287458363734448 -11.910834547198064 8.567077385879976 -10.300797552461763 Z M 9.475520976795892 -10.479855560573165 C 9.617876336325217 -12.120867044864283 9.758322309512122 -13.773759155286017 9.601328321357574 -15.419013720338068 C 9.59920678097711 -15.552882918345528 9.419512310751562 -15.910362472454194 9.62127080093396 -15.644533462781695 C 10.133198494740617 -14.901994329618294 10.10307262133798 -13.942845923609225 9.999117142695107 -13.08531930182452 C 9.885402578302084 -12.205092197968817 9.659670681820412 -11.34565618984169 9.475520976795892 -10.479855560573164 Z" fill="#3f170e" transform="matrix(1,0,0,1,0,0)" fill-rule="nonzero"></path></g><g clip-path="url(#SvgjsClipPath1000eb832bca-bc40-4d77-9f2c-3fb7ac46b0d1)"><path d=" M 9.243424459172818 -0.24999999999999645 C 9.525315311167077 -0.29003410768976856 9.756841911245278 -0.49300492789497063 9.833424838980653 -0.76723154475782 C 9.87697839606244 -0.9143516029799947 9.87697839606244 -1.0709388173848549 9.833424838980653 -1.2180588756070296 C 9.885402578302088 -1.2210290321396826 9.939501858003995 -1.2246356507864764 9.999117142695116 -1.2246356507864764 L 9.780386329468971 -5.3289676708376685 L 8.567077385879976 -5.3289676708376685 L 8.805750678682497 -1.2250599588625661 C 8.859001342232219 -1.2189074917592144 8.890612293901174 -1.2161494892646054 8.938346952461677 -1.2119064085036726 C 8.840756094960202 -0.8631251699549214 8.825268850182798 -0.6089646323749935 8.925193402102783 -0.4560015709433305 C 8.987813778257651 -0.3362870907449107 9.108565545405359 -0.2581204468112954 9.243424459172818 -0.24999999999999645 Z M 9.263366938749204 -0.44900048768779044 C 9.202922325169094 -0.45577161639319996 9.14784394534376 -0.4868728990205753 9.110828185393638 -0.5351350271347464 C 9.038695812457766 -0.6182994100490475 9.05206151685471 -0.8497594655579803 9.15050099050837 -1.1981163960306382 C 9.30958559883085 -1.1896844257839874 9.46905565701411 -1.191881568807844 9.627847576113421 -1.2046931712100886 C 9.677394057501692 -1.0844060701444018 9.682136635075624 -0.9503341549194939 9.641213280510357 -0.8268468294489377 C 9.572899680259322 -0.6344231169405941 9.416542154218913 -0.44072648020396876 9.263366938749204 -0.4494247957638837 Z" fill="#c08c46" transform="matrix(1,0,0,1,0,0)" fill-rule="nonzero"></path></g><g clip-path="url(#SvgjsClipPath1000eb832bca-bc40-4d77-9f2c-3fb7ac46b0d1)"><path d=" M 9.216268742302839 -5.098144077442875 L 9.375172116799805 -1.220604724063591 L 9.441576330708418 -1.2940100212277414 L 9.303039743863934 -5.172822298835307 L 9.216268742302839 -5.098144077442875 Z" fill="#3f170e" transform="matrix(1,0,0,1,0,0)" fill-rule="nonzero"></path></g><g clip-path="url(#SvgjsClipPath1000eb832bca-bc40-4d77-9f2c-3fb7ac46b0d1)"><path d=" M 9.321921453250088 -3.3622997381448876 L 9.569080907574477 -3.588668096740701 L 9.855488858937502 -3.419369174379444 L 9.57650629890611 -3.191515737517303 L 9.321921453250088 -3.3622997381448876 Z" fill="#3f170e" transform="matrix(1,0,0,1,0,0)" fill-rule="nonzero"></path></g><g clip-path="url(#SvgjsClipPath1000eb832bca-bc40-4d77-9f2c-3fb7ac46b0d1)"><path d=" M 8.80829652713906 -3.296319832312367 L 9.055243827425404 -3.522688190908182 L 9.341863932826477 -3.3536014225849744 L 9.062669218757037 -3.1253236776467386 L 8.80829652713906 -3.296319832312367 Z" fill="#3f170e" transform="matrix(1,0,0,1,0,0)" fill-rule="nonzero"></path></g><g clip-path="url(#SvgjsClipPath1000eb832bca-bc40-4d77-9f2c-3fb7ac46b0d1)"><path d=" M 9.28840111523871 -3.864680500239441 L 9.528135178231466 -3.7221129866720677 L 9.835334225323068 -3.9128394668760365 L 9.534924107448958 -4.100807944585403 L 9.28840111523871 -3.864680500239441 Z" fill="#3f170e" transform="matrix(1,0,0,1,0,0)" fill-rule="nonzero"></path></g><g clip-path="url(#SvgjsClipPath1000eb832bca-bc40-4d77-9f2c-3fb7ac46b0d1)"><path d=" M 9.307494978662913 -3.865741270429675 L 9.073064766621325 -4.09571624767228 L 8.757379558007855 -3.865741270429675 L 9.07858077161054 -3.659739699486341 L 9.307494978662913 -3.865741270429675 Z" fill="#3f170e" transform="matrix(1,0,0,1,0,0)" fill-rule="nonzero"></path></g><g clip-path="url(#SvgjsClipPath1000eb832bca-bc40-4d77-9f2c-3fb7ac46b0d1)"><path d=" M 9.247455385895702 -4.473350435395382 L 9.523043481318346 -4.274562101745639 L 9.785053718306003 -4.472713973281243 L 9.47743036313831 -4.669805074626616 L 9.247455385895702 -4.473350435395382 Z" fill="#3f170e" transform="matrix(1,0,0,1,0,0)" fill-rule="nonzero"></path></g><g clip-path="url(#SvgjsClipPath1000eb832bca-bc40-4d77-9f2c-3fb7ac46b0d1)"><path d=" M 8.758652482236135 -4.418614693579338 L 8.998598699266939 -4.276047180011965 L 9.305585592320494 -4.466773660215935 L 9.005175474446386 -4.654529983887253 L 8.758652482236135 -4.418614693579338 Z" fill="#3f170e" transform="matrix(1,0,0,1,0,0)" fill-rule="nonzero"></path></g><g clip-path="url(#SvgjsClipPath1000eb832bca-bc40-4d77-9f2c-3fb7ac46b0d1)"><path d=" M 9.400206293289315 -1.937048910547249 L 9.64715359357566 -2.16362942318111 L 9.933773698976731 -1.9943305008198529 L 9.65457898490729 -1.7662649099196646 L 9.400206293289315 -1.937048910547249 Z" fill="#3f170e" transform="matrix(1,0,0,1,0,0)" fill-rule="nonzero"></path></g><g clip-path="url(#SvgjsClipPath1000eb832bca-bc40-4d77-9f2c-3fb7ac46b0d1)"><path d=" M 8.886369213140242 -1.871281158752776 L 9.133528667464631 -2.0976495173485894 L 9.419936618827657 -1.9285627490253798 L 9.140741904758217 -1.7004971581251933 L 8.886369213140242 -1.871281158752776 Z" fill="#3f170e" transform="matrix(1,0,0,1,0,0)" fill-rule="nonzero"></path></g><g clip-path="url(#SvgjsClipPath1000eb832bca-bc40-4d77-9f2c-3fb7ac46b0d1)"><path d=" M 9.343136857054755 -2.380875158140915 L 9.582658766009466 -2.2385197986115877 L 9.890069967139116 -2.429246278815558 L 9.589447695226959 -2.6170026024868775 L 9.343136857054755 -2.380875158140915 Z" fill="#3f170e" transform="matrix(1,0,0,1,0,0)" fill-rule="nonzero"></path></g><g clip-path="url(#SvgjsClipPath1000eb832bca-bc40-4d77-9f2c-3fb7ac46b0d1)"><path d=" M 9.362018566440911 -2.3819359283311474 L 9.12780050843737 -2.612123059611802 L 8.812115299823901 -2.3819359283311474 L 9.133316513426585 -2.1759343573878187 L 9.362018566440911 -2.3819359283311474 Z" fill="#3f170e" transform="matrix(1,0,0,1,0,0)" fill-rule="nonzero"></path></g><g clip-path="url(#SvgjsClipPath1000eb832bca-bc40-4d77-9f2c-3fb7ac46b0d1)"><path d=" M 9.31407175384236 -2.895773008480223 L 9.589659849265006 -2.696984674830478 L 9.851457932214618 -2.895136546366084 L 9.544046731084968 -3.0922276477114554 L 9.31407175384236 -2.895773008480223 Z" fill="#3f170e" transform="matrix(1,0,0,1,0,0)" fill-rule="nonzero"></path></g><g clip-path="url(#SvgjsClipPath1000eb832bca-bc40-4d77-9f2c-3fb7ac46b0d1)"><path d=" M 8.825056696144749 -2.8408251126261312 L 9.065002913175551 -2.698257599058758 L 9.371989806229106 -2.889196233300776 L 9.071579688354998 -3.076740402934048 L 8.825056696144749 -2.8408251126261312 Z" fill="#3f170e" transform="matrix(1,0,0,1,0,0)" fill-rule="nonzero"></path></g><g clip-path="url(#SvgjsClipPath1000eb832bca-bc40-4d77-9f2c-3fb7ac46b0d1)"><path d=" M 9.247455385895702 -5.002038298207724 L 9.494402686182045 -5.228618810841587 L 9.781022791583117 -5.05931988848033 L 9.502040231551725 -4.831254297580141 L 9.247455385895702 -5.002038298207724 Z" fill="#3f170e" transform="matrix(1,0,0,1,0,0)" fill-rule="nonzero"></path></g><g clip-path="url(#SvgjsClipPath1000eb832bca-bc40-4d77-9f2c-3fb7ac46b0d1)"><path d=" M 8.721949833654058 -4.947939018505821 L 8.969109287978448 -5.174307377101636 L 9.255305085303428 -5.005220608778425 L 8.976534679310081 -4.777155017878238 L 8.721949833654058 -4.947939018505821 Z" fill="#3f170e" transform="matrix(1,0,0,1,0,0)" fill-rule="nonzero"></path></g><g clip-path="url(#SvgjsClipPath1000eb832bca-bc40-4d77-9f2c-3fb7ac46b0d1)"><path d=" M 9.392356593881587 -1.448033852849635 L 9.639516048205977 -1.6744022114454502 L 9.925923999569005 -1.5053154431222424 L 9.646941439537612 -1.2772498522220541 L 9.392356593881587 -1.448033852849635 Z" fill="#3f170e" transform="matrix(1,0,0,1,0,0)" fill-rule="nonzero"></path></g><g clip-path="url(#SvgjsClipPath1000eb832bca-bc40-4d77-9f2c-3fb7ac46b0d1)"><path d=" M 8.87873166777056 -1.4291521434634813 L 9.125678968056903 -1.6555205020592965 L 9.412299073457977 -1.486433733736087 L 9.133104359388536 -1.2583681428358986 L 8.87873166777056 -1.4291521434634813 Z" fill="#3f170e" transform="matrix(1,0,0,1,0,0)" fill-rule="nonzero"></path></g></g></g><defs><clipPath id="SvgjsClipPath1002"><path d=" M 2.3142614225299925 -16.035745508939787 h 13.599285992830639 v 15.785745508939787 h -13.599285992830639 Z"></path></clipPath><clipPath id="SvgjsClipPath1000eb832bca-bc40-4d77-9f2c-3fb7ac46b0d1"><path d=" M 2.3142614225299925 -16.035745508939787 L 15.913547415360632 -16.035745508939787 L 15.913547415360632 -0.25 L 2.3142614225299925 -0.25 Z"></path></clipPath></defs></svg>