<svg xmlns="http://www.w3.org/2000/svg" version="1.1"
     viewBox="0 0 4.846221384024861 5.945180414297733"><g transform="matrix(1,0,0,1,0.4468368883014928,4.11984352599624)"><rect width="5.945180414297733" height="5.945180414297733" x="-0.9963164034379288" y="-4.11984352599624" fill="#4e888f"></rect><g><path d=" M 0.5625 0.02849999999999997 Q 0.6705 0.02849999999999997 0.7545000000000001 0.06899999999999995 Q 0.8385 0.10950000000000004 0.89625 0.18225000000000002 Q 0.9540000000000001 0.255 0.9832500000000001 0.35024999999999995 Q 1.0125 0.4455 1.0125 0.5535 Q 1.0125 0.6990000000000001 0.96 0.81825 Q 0.9075 0.9375 0.80775 1.008 Q 0.708 1.0785 0.5625 1.0785 L 0.20400000000000001 1.0785 Q 0.165 1.0785 0.13875 1.05225 Q 0.1125 1.026 0.1125 0.987 L 0.1125 0.12 Q 0.1125 0.08099999999999996 0.13875 0.054750000000000076 Q 0.165 0.02849999999999997 0.20400000000000001 0.02849999999999997 L 0.5625 0.02849999999999997 M 0.5475 0.906 Q 0.642 0.906 0.7020000000000001 0.8572500000000001 Q 0.762 0.8085 0.7897500000000001 0.7282500000000001 Q 0.8175 0.648 0.8175 0.5535 Q 0.8175 0.483 0.80175 0.41925 Q 0.786 0.35550000000000004 0.753 0.30674999999999997 Q 0.72 0.258 0.669 0.22950000000000004 Q 0.618 0.20099999999999996 0.5475 0.20099999999999996 L 0.28500000000000003 0.20099999999999996 L 0.3 0.1875 L 0.3 0.9225 L 0.291 0.906 L 0.5475 0.906 M 1.834540283203125 0.261 Q 1.8735402832031252 0.261 1.8990402832031252 0.2865 Q 1.924540283203125 0.31199999999999994 1.924540283203125 0.35250000000000004 L 1.924540283203125 0.987 Q 1.924540283203125 1.026 1.8990402832031252 1.05225 Q 1.8735402832031252 1.0785 1.834540283203125 1.0785 Q 1.795540283203125 1.0785 1.7700402832031252 1.05225 Q 1.7445402832031252 1.026 1.7445402832031252 0.987 L 1.7445402832031252 0.9135 L 1.777540283203125 0.927 Q 1.777540283203125 0.9465 1.7565402832031252 0.9742500000000001 Q 1.7355402832031253 1.002 1.6995402832031252 1.029 Q 1.6635402832031252 1.056 1.6147902832031251 1.07475 Q 1.566040283203125 1.0935 1.509040283203125 1.0935 Q 1.4055402832031252 1.0935 1.321540283203125 1.0402500000000001 Q 1.237540283203125 0.987 1.1887902832031252 0.89325 Q 1.1400402832031251 0.7995 1.1400402832031251 0.6779999999999999 Q 1.1400402832031251 0.555 1.1887902832031252 0.46125000000000005 Q 1.237540283203125 0.36750000000000005 1.320040283203125 0.31425000000000003 Q 1.402540283203125 0.261 1.503040283203125 0.261 Q 1.567540283203125 0.261 1.6215402832031252 0.28049999999999997 Q 1.6755402832031252 0.30000000000000004 1.7152902832031252 0.32999999999999996 Q 1.755040283203125 0.36 1.776790283203125 0.39075000000000004 Q 1.798540283203125 0.4215 1.798540283203125 0.4425 L 1.7445402832031252 0.46199999999999997 L 1.7445402832031252 0.35250000000000004 Q 1.7445402832031252 0.3135 1.7700402832031252 0.28725 Q 1.795540283203125 0.261 1.834540283203125 0.261 M 1.531540283203125 0.9285 Q 1.5975402832031251 0.9285 1.647040283203125 0.8955 Q 1.696540283203125 0.8625 1.7242902832031253 0.8055 Q 1.752040283203125 0.7484999999999999 1.752040283203125 0.6779999999999999 Q 1.752040283203125 0.606 1.7242902832031253 0.549 Q 1.696540283203125 0.492 1.647040283203125 0.45899999999999996 Q 1.5975402832031251 0.42600000000000005 1.531540283203125 0.42600000000000005 Q 1.467040283203125 0.42600000000000005 1.4175402832031252 0.45899999999999996 Q 1.368040283203125 0.492 1.3402902832031252 0.549 Q 1.3125402832031252 0.606 1.3125402832031252 0.6779999999999999 Q 1.3125402832031252 0.7484999999999999 1.3402902832031252 0.8055 Q 1.368040283203125 0.8625 1.4175402832031252 0.8955 Q 1.467040283203125 0.9285 1.531540283203125 0.9285 M 2.30401904296875 0.987 Q 2.30401904296875 1.026 2.27851904296875 1.05225 Q 2.2530190429687504 1.0785 2.2140190429687503 1.0785 Q 2.17501904296875 1.0785 2.14951904296875 1.05225 Q 2.1240190429687504 1.026 2.1240190429687504 0.987 L 2.1240190429687504 0.36750000000000005 Q 2.1240190429687504 0.3285 2.14951904296875 0.30225 Q 2.17501904296875 0.276 2.2140190429687503 0.276 Q 2.2530190429687504 0.276 2.27851904296875 0.30225 Q 2.30401904296875 0.3285 2.30401904296875 0.36750000000000005 L 2.30401904296875 0.987 M 2.2125190429687502 0.1785 Q 2.16151904296875 0.1785 2.14051904296875 0.16200000000000003 Q 2.1195190429687503 0.14549999999999996 2.1195190429687503 0.10350000000000004 L 2.1195190429687503 0.07499999999999996 Q 2.1195190429687503 0.031500000000000083 2.1427690429687503 0.01574999999999993 Q 2.1660190429687503 0 2.2140190429687503 0 Q 2.26651904296875 0 2.2875190429687504 0.01649999999999996 Q 2.3085190429687503 0.03299999999999992 2.3085190429687503 0.07499999999999996 L 2.3085190429687503 0.10350000000000004 Q 2.3085190429687503 0.14700000000000002 2.2860190429687504 0.16274999999999995 Q 2.2635190429687504 0.1785 2.2125190429687502 0.1785 M 2.5935534667968754 1.0785 Q 2.5545534667968752 1.0785 2.529053466796875 1.05225 Q 2.5035534667968755 1.026 2.5035534667968755 0.987 L 2.5035534667968755 0.36750000000000005 Q 2.5035534667968755 0.3285 2.529053466796875 0.30225 Q 2.5545534667968752 0.276 2.5935534667968754 0.276 Q 2.6325534667968755 0.276 2.6580534667968756 0.30225 Q 2.6835534667968752 0.3285 2.6835534667968752 0.36750000000000005 L 2.6835534667968752 0.5085 L 2.6730534667968753 0.40800000000000003 Q 2.6895534667968755 0.372 2.7158034667968756 0.34424999999999994 Q 2.7420534667968752 0.3165 2.7750534667968756 0.29774999999999996 Q 2.8080534667968755 0.279 2.8455534667968756 0.27 Q 2.8830534667968752 0.261 2.9205534667968753 0.261 Q 2.9655534667968753 0.261 2.9963034667968755 0.2865 Q 3.0270534667968754 0.31199999999999994 3.0270534667968754 0.34650000000000003 Q 3.0270534667968754 0.396 3.0015534667968753 0.41774999999999995 Q 2.976053466796875 0.4395 2.9460534667968754 0.4395 Q 2.9175534667968757 0.4395 2.8943034667968752 0.42900000000000005 Q 2.8710534667968752 0.4185 2.8410534667968754 0.4185 Q 2.8140534667968753 0.4185 2.7863034667968756 0.43125 Q 2.7585534667968754 0.44399999999999995 2.7353034667968754 0.471 Q 2.7120534667968754 0.498 2.6978034667968753 0.53775 Q 2.6835534667968752 0.5775 2.6835534667968752 0.6315 L 2.6835534667968752 0.987 Q 2.6835534667968752 1.026 2.6580534667968756 1.05225 Q 2.6325534667968755 1.0785 2.5935534667968754 1.0785 M 3.7650849609375006 0.276 Q 3.8040849609375007 0.276 3.829584960937501 0.30225 Q 3.8550849609375004 0.3285 3.8550849609375004 0.36750000000000005 L 3.8550849609375004 1.0050000000000001 Q 3.8550849609375004 1.143 3.8033349609375007 1.22475 Q 3.7515849609375005 1.3065 3.6645849609375007 1.3425 Q 3.5775849609375006 1.3785 3.4695849609375005 1.3785 Q 3.4215849609375004 1.3785 3.3675849609375006 1.371 Q 3.3135849609375003 1.3635000000000002 3.2790849609375003 1.3485 Q 3.2340849609375004 1.329 3.2168349609375007 1.29975 Q 3.1995849609375004 1.2705 3.2100849609375004 1.2375 Q 3.2235849609375005 1.194 3.2535849609375003 1.17825 Q 3.2835849609375005 1.1625 3.3165849609375004 1.1745 Q 3.3405849609375005 1.182 3.3795849609375006 1.19775 Q 3.4185849609375003 1.2135 3.4695849609375005 1.2135 Q 3.5385849609375004 1.2135 3.5843349609375004 1.19475 Q 3.6300849609375003 1.176 3.6533349609375003 1.13175 Q 3.6765849609375003 1.0875 3.6765849609375003 1.0110000000000001 L 3.6765849609375003 0.9105 L 3.7080849609375006 0.9465 Q 3.6825849609375005 0.996 3.6443349609375004 1.02825 Q 3.6060849609375003 1.0605 3.5535849609375005 1.077 Q 3.5010849609375003 1.0935 3.4335849609375004 1.0935 Q 3.3540849609375005 1.0935 3.2948349609375005 1.05675 Q 3.2355849609375005 1.02 3.2025849609375006 0.95475 Q 3.1695849609375006 0.8895 3.1695849609375006 0.8055 L 3.1695849609375006 0.36750000000000005 Q 3.1695849609375006 0.3285 3.1950849609375007 0.30225 Q 3.2205849609375004 0.276 3.2595849609375005 0.276 Q 3.2985849609375006 0.276 3.3240849609375003 0.30225 Q 3.3495849609375004 0.3285 3.3495849609375004 0.36750000000000005 L 3.3495849609375004 0.7515000000000001 Q 3.3495849609375004 0.849 3.3923349609375006 0.88875 Q 3.4350849609375005 0.9285 3.5115849609375003 0.9285 Q 3.5640849609375005 0.9285 3.6000849609375005 0.90825 Q 3.6360849609375006 0.888 3.6555849609375004 0.84825 Q 3.6750849609375003 0.8085 3.6750849609375003 0.7515000000000001 L 3.6750849609375003 0.36750000000000005 Q 3.6750849609375003 0.3285 3.7005849609375003 0.30225 Q 3.7260849609375004 0.276 3.7650849609375006 0.276" fill="#ffffff" fill-rule="nonzero"></path></g><g></g><g clip-path="url(#SvgjsClipPath1002)"><g clip-path="url(#a26fa0cb9-02d9-4592-8bd3-7b5fa9e104da3a84f8a8-49ab-4761-836b-ab59a508c876)"><path d=" M 3.112993863589399 -0.29560666682309256 L 3.112993863589399 -2.6554557537975088 C 3.112993863589399 -2.664507458663161 3.1102783521297033 -2.6733502780319127 3.105195471705145 -2.6809397844192673 L 2.694665841798348 -3.29011952187764 L 2.694665841798348 -3.6274695993705897 C 2.694665841798348 -3.639546772832603 2.6898682033209194 -3.6511292967121745 2.6813283520683635 -3.6596691479647308 C 2.672788500815807 -3.6682089992172866 2.6612059769362357 -3.6730066376947152 2.6491288034742224 -3.6730066376947152 L 1.303279546949719 -3.6730066376947152 C 1.2781188469561946 -3.6730066670178485 1.2577112934090422 -3.6526302700409974 1.2576728801266268 -3.6274695993705888 L 1.2576728801266268 -3.29011952187764 L 0.8473521357167296 -2.6809397844192673 C 0.8467951077249969 -2.680034613932702 0.8469343647229302 -2.6789901864482037 0.8463773367311977 -2.6780850159616385 C 0.8433252648058034 -2.67285002746007 0.8413818682259178 -2.6670435376787056 0.8406677998159403 -2.661026033714834 C 0.8404589143190403 -2.659563835236536 0.8398322578283416 -2.658310522255138 0.8398322578283416 -2.6567786952778736 C 0.8397626293293752 -2.6563609242840744 0.8395537438324756 -2.655943153290275 0.8395537438324756 -2.6554557537975096 L 0.8395537438324756 -0.29560666682309256 C 0.8395537438324756 -0.2704707786961671 0.8599548940296753 -0.25000000000000044 0.8850907821566013 -0.25000000000000044 L 3.067387196766307 -0.25000000000000044 C 3.092592713392199 -0.25000000000000044 3.112993863589399 -0.2704707786961671 3.112993863589399 -0.29560666682309256 M 2.185333371858013 -0.6735501592135429 L 0.9306974489796938 -0.6735501592135429 L 0.9306974489796938 -0.8206751775298691 L 2.185333371858013 -0.8206751775298691 Z M 0.9306974489796938 -0.5824064540663247 L 2.185333371858013 -0.5824064540663247 L 2.185333371858013 -0.34121333364618467 L 0.9306974489796938 -0.34121333364618467 Z M 0.9306974489796938 -2.6098490869744158 L 2.185333371858013 -2.6098490869744158 L 2.185333371858013 -0.9118188826770868 L 0.9306974489796938 -0.9118188826770868 Z M 1.3275102645900794 -3.2306567837602027 L 2.5634161212463957 -3.2306567837602027 L 2.2067093210407442 -2.7010624206206 L 0.970803464384428 -2.7010624206206 Z M 2.6035221366511303 -3.3218701174063874 L 1.3488862137728113 -3.3218701174063874 L 1.3488862137728113 -3.5818629325474967 L 2.6035221366511303 -3.5818629325474967 Z M 3.0218501584421813 -0.9118188826770868 L 2.2764770770052305 -0.9118188826770868 L 2.2764770770052305 -2.641530054004198 L 2.6491288034742224 -3.1946588497944957 L 3.0218501584421813 -2.641530054004198 Z M 3.0218501584421813 -0.6735501592135424 L 2.2765467055041975 -0.6735501592135424 L 2.2765467055041975 -0.8206751775298686 L 3.0218501584421813 -0.8206751775298686 Z M 3.0218501584421813 -0.34121333364618467 L 2.2765467055041975 -0.34121333364618467 L 2.2765467055041975 -0.5824064540663247 L 3.0218501584421813 -0.5824064540663247 Z M 2.2764770770052305 -3.0630609867477103 C 2.2764955620924776 -3.075150219669651 2.2717060852970103 -3.086750639318736 2.2631642296905876 -3.095305555866453 C 2.254622374084165 -3.103860472414169 2.243029285735373 -3.1086676677031404 2.230940038681104 -3.108667653570803 L 2.0175983178475865 -3.108667653570803 C 1.9924296786496454 -3.108667653570803 1.9720264652739776 -3.088264440195135 1.9720264652739776 -3.063095800997194 C 1.9720264652739776 -3.0379271617992525 1.9924296786496452 -3.0175239484235847 2.0175983178475865 -3.0175239484235847 L 2.230940038681105 -3.0175239484235847 C 2.256075926808031 -3.0175239484235847 2.2764770770052305 -3.037925098620785 2.2764770770052305 -3.0630609867477108 M 1.890108536239828 -3.0630609867477108 C 1.8901270213270749 -3.075150219669652 1.8853375445316076 -3.086750639318737 1.8767956889251847 -3.0953055558664535 C 1.868253833318762 -3.10386047241417 1.8566607449699706 -3.1086676677031413 1.8445714979157006 -3.1086676535708033 L 1.3505572977480087 -3.1086676535708033 C 1.3338511610129782 -3.1093207903410445 1.3181267942636927 -3.1007805198250393 1.3095794667431733 -3.08641163731779 C 1.3010321392226543 -3.0720427548105405 1.3010321392226543 -3.054148847183848 1.3095794667431733 -3.039779964676599 C 1.3181267942636927 -3.0254110821693496 1.3338511610129782 -3.0168708116533436 1.3505572977480083 -3.0175239484235856 L 1.8445714979157024 -3.0175239484235856 C 1.8697073860426279 -3.0175239484235856 1.890108536239828 -3.0379250986207857 1.890108536239828 -3.063060986747711 M 1.9531919563035252 -1.842682285360936 C 1.952923329579781 -2.0608288512889597 1.7761272060421653 -2.237593826813275 1.557980596169379 -2.2378240169961243 C 1.3398611774148943 -2.237555467586851 1.163107413943455 -2.0608017041154114 1.1628388645341814 -1.8426822853609355 C 1.1631074139434945 -1.624562866606388 1.3398611774149665 -1.4478091031349805 1.5579805961694422 -1.447540553725747 C 1.776127206042157 -1.4477707439085923 1.9529233295797765 -1.6245357194329042 1.9531919563035252 -1.842682285360936 M 1.8620482511563072 -1.842682285360936 C 1.8618562655633188 -1.6748524882579372 1.7258104636091607 -1.5388689926019428 1.5579805961693252 -1.5387538873719318 C 1.3902051093869319 -1.538945740603789 1.2542440514122233 -1.6749067985784976 1.2540521981803658 -1.842682285360936 C 1.2542056836168758 -2.010484963114436 1.3901779579770972 -2.146488388052984 1.5579805961693611 -2.1466803118489066 C 1.7258058484844683 -2.1464885377155394 1.8618180422976103 -2.0105074893555264 1.8620482511563075 -1.842682285360936" fill="#ffffff" transform="matrix(1,0,0,1,0,0)" fill-rule="nonzero"></path></g></g></g><defs><clipPath id="SvgjsClipPath1002"><path d=" M 0.8395537438324756 -3.673006637694747 h 2.273440119756924 v 3.423006637694747 h -2.273440119756924 Z"></path></clipPath><clipPath id="a26fa0cb9-02d9-4592-8bd3-7b5fa9e104da3a84f8a8-49ab-4761-836b-ab59a508c876"><path d=" M 0.8395537438324756 -0.25000000000000044 L 3.112993863589399 -0.25000000000000044 L 3.112993863589399 -3.6730066376947152 L 0.8395537438324756 -3.6730066376947152 Z"></path></clipPath></defs></svg>