<svg xmlns="http://www.w3.org/2000/svg" version="1.1"
     viewBox="0 0 4.514511049760253 4.915978059487503"><g transform="matrix(1,0,0,1,0.3925095871468245,3.5423311395588777)"><g><path d=" M 0.18572970085581417 0.9676786588067419 Q 0.14804541372564897 0.9676786588067419 0.12449273426929572 0.9441259793503887 Q 0.10094005481294248 0.9205732998940354 0.10094005481294248 0.8855807475588819 L 0.10094005481294248 0.10766939180047197 Q 0.10094005481294248 0.07267683946531855 0.12449273426929572 0.049124160008965356 Q 0.14804541372564897 0.025571480552612047 0.18303796606080236 0.025571480552612047 L 0.6204448702502198 0.025571480552612047 Q 0.6554374225853732 0.025571480552612047 0.6789901020417264 0.047778292611459494 Q 0.7025427814980796 0.06998510467030683 0.7025427814980796 0.10497765700546013 Q 0.7025427814980796 0.13458673975059 0.6789901020417264 0.1574664855081903 Q 0.6554374225853732 0.18034623126579052 0.6204448702502198 0.18034623126579052 L 0.25706067292362683 0.18034623126579052 L 0.2691734795011799 0.16419582249571973 L 0.2691734795011799 0.4347151693944056 L 0.2597524077186386 0.4172188932268289 L 0.5598808373624543 0.4172188932268289 Q 0.5948733896976076 0.4172188932268289 0.6184260691539609 0.43942570528567626 Q 0.6419787486103141 0.4616325173445236 0.6419787486103141 0.49662506967967696 Q 0.6419787486103141 0.5262341524248068 0.6184260691539609 0.5491138981824071 Q 0.5948733896976076 0.5719936439400073 0.5598808373624543 0.5719936439400073 L 0.25706067292362683 0.5719936439400073 L 0.2691734795011799 0.5598808373624542 L 0.2691734795011799 0.8855807475588819 Q 0.2691734795011799 0.9205732998940354 0.24427493264732078 0.9441259793503887 Q 0.21937638579346164 0.9676786588067419 0.18572970085581417 0.9676786588067419 M 0.9260099995910892 0.9676786588067419 Q 0.8910174472559358 0.9676786588067419 0.8681377014983356 0.9441259793503887 Q 0.8452579557407353 0.9205732998940354 0.8452579557407353 0.8855807475588819 L 0.8452579557407353 0.32973751238894544 Q 0.8452579557407353 0.294744960053792 0.8681377014983356 0.27119228059743883 Q 0.8910174472559358 0.24763960114108552 0.9260099995910892 0.24763960114108552 Q 0.9610025519262426 0.24763960114108552 0.9838822976838429 0.27119228059743883 Q 1.0067620434414433 0.294744960053792 1.0067620434414433 0.32973751238894544 L 1.0067620434414433 0.45624904775450004 L 0.9973409716589019 0.3660759321216047 Q 1.012145513031467 0.33377511458146314 1.0356981924878201 0.30887656772760397 Q 1.0592508719441733 0.2839780208737448 1.088859954689303 0.26715467840492113 Q 1.1184690374344328 0.25033133593609735 1.1521157223720804 0.24225613155106196 Q 1.185762407309728 0.23418092716602656 1.2194090922473753 0.23418092716602656 Q 1.2597851141725522 0.23418092716602656 1.2873753958214231 0.2570606729236269 Q 1.3149656774702942 0.2799404186812271 1.3149656774702942 0.3108953688238628 Q 1.3149656774702942 0.3553089929415575 1.2920859317126938 0.3748240702053931 Q 1.2692061859550936 0.3943391474692286 1.2422888380049757 0.3943391474692286 Q 1.2167173574523635 0.3943391474692286 1.195856412791022 0.38491807568668734 Q 1.1749954681296806 0.375497003904146 1.1480781201795627 0.375497003904146 Q 1.1238525070244565 0.375497003904146 1.0989539601705973 0.3869368767829462 Q 1.0740554133167382 0.3983767496617463 1.0531944686553967 0.4226023628168525 Q 1.0323335239940552 0.44682797597195867 1.0195477837177491 0.482493462005865 Q 1.0067620434414433 0.5181589480397714 1.0067620434414433 0.5666101743499838 L 1.0067620434414433 0.8855807475588819 Q 1.0067620434414433 0.9205732998940354 0.9838822976838429 0.9441259793503887 Q 0.9610025519262426 0.9676786588067419 0.9260099995910892 0.9676786588067419 M 1.9771606950012501 0.24763960114108552 Q 2.0121532473364034 0.24763960114108552 2.0350329930940037 0.27119228059743883 Q 2.057912738851604 0.294744960053792 2.057912738851604 0.32973751238894544 L 2.057912738851604 0.671587831355444 Q 2.057912738851604 0.8142497754910694 1.9785065623987559 0.897693554136435 Q 1.899100385945908 0.9811373327818008 1.749709104822753 0.9811373327818008 Q 1.6003178236995983 0.9811373327818008 1.521584580945503 0.897693554136435 Q 1.4428513381914079 0.8142497754910694 1.4428513381914079 0.671587831355444 L 1.4428513381914079 0.32973751238894544 Q 1.4428513381914079 0.294744960053792 1.4657310839490083 0.27119228059743883 Q 1.4886108297066085 0.24763960114108552 1.523603382041762 0.24763960114108552 Q 1.5585959343769153 0.24763960114108552 1.5814756801345156 0.27119228059743883 Q 1.604355425892116 0.294744960053792 1.604355425892116 0.32973751238894544 L 1.604355425892116 0.671587831355444 Q 1.604355425892116 0.7536857426033038 1.6406938456247753 0.7933888308297279 Q 1.6770322653574345 0.8330919190561519 1.749709104822753 0.8330919190561519 Q 1.8237318116855776 0.8330919190561519 1.860070231418237 0.7933888308297279 Q 1.8964086511508962 0.7536857426033038 1.8964086511508962 0.671587831355444 L 1.8964086511508962 0.32973751238894544 Q 1.8964086511508962 0.294744960053792 1.9192883969084966 0.27119228059743883 Q 1.9421681426660968 0.24763960114108552 1.9771606950012501 0.24763960114108552 M 2.3983836751680223 0.8855807475588819 Q 2.3983836751680223 0.9205732998940354 2.3755039294104217 0.9441259793503887 Q 2.3526241836528214 0.9676786588067419 2.317631631317668 0.9676786588067419 Q 2.282639078982515 0.9676786588067419 2.2597593332249146 0.9441259793503887 Q 2.236879587467314 0.9205732998940354 2.236879587467314 0.8855807475588819 L 2.236879587467314 0.32973751238894544 Q 2.236879587467314 0.294744960053792 2.2597593332249146 0.27119228059743883 Q 2.282639078982515 0.24763960114108552 2.317631631317668 0.24763960114108552 Q 2.3526241836528214 0.24763960114108552 2.3755039294104217 0.27119228059743883 Q 2.3983836751680223 0.294744960053792 2.3983836751680223 0.32973751238894544 L 2.3983836751680223 0.8855807475588819 M 2.3162857639201624 0.16015822030320204 Q 2.2705262724049615 0.16015822030320204 2.2516841288398792 0.14535367893063722 Q 2.2328419852747965 0.1305491375580723 2.2328419852747965 0.09286485042790704 L 2.2328419852747965 0.067293369875295 Q 2.2328419852747965 0.028263215347623882 2.253702929936138 0.014131607673811941 Q 2.2745638745974794 0 2.317631631317668 0 Q 2.3647369902303748 0 2.383579133795457 0.014804541372564928 Q 2.40242127736054 0.029609082745129744 2.40242127736054 0.067293369875295 L 2.40242127736054 0.09286485042790704 Q 2.40242127736054 0.13189500495557815 2.382233266397951 0.1460266126293901 Q 2.362045255435363 0.16015822030320204 2.3162857639201624 0.16015822030320204 M 2.5854901300266557 0.2610982751161446 L 2.904460703235554 0.2610982751161446 Q 2.9367615207756956 0.2610982751161446 2.95829539913579 0.28263215347623893 Q 2.9798292774958846 0.3041660318363333 2.9798292774958846 0.336466849376475 Q 2.9798292774958846 0.3674217995191106 2.95829539913579 0.38828274418045206 Q 2.9367615207756956 0.40914368884179353 2.904460703235554 0.40914368884179353 L 2.5854901300266557 0.40914368884179353 Q 2.553189312486514 0.40914368884179353 2.53165543412642 0.38760981048169907 Q 2.5101215557663257 0.3660759321216047 2.5101215557663257 0.33377511458146314 Q 2.5101215557663257 0.3028201644388274 2.53165543412642 0.28195921977748595 Q 2.553189312486514 0.2610982751161446 2.5854901300266557 0.2610982751161446 M 2.7294979415597873 0.09286485042790704 Q 2.7644904938949404 0.09286485042790704 2.786697305953788 0.11641752988426035 Q 2.8089041180126353 0.13997020934061355 2.8089041180126353 0.17496276167576696 L 2.8089041180126353 0.7738737535658923 Q 2.8089041180126353 0.7927158971309749 2.8163063886989175 0.804828703708528 Q 2.8237086593852 0.8169415102860811 2.836494399661506 0.8223249798761048 Q 2.8492801399378123 0.8277084494661283 2.864084681310377 0.8277084494661283 Q 2.880235090080448 0.8277084494661283 2.8936937640555067 0.8216520461773518 Q 2.907152438030566 0.8155956428885752 2.9246487141981428 0.8155956428885752 Q 2.943490857763225 0.8155956428885752 2.958968332834543 0.8330919190561519 Q 2.9744458079058607 0.8505881952237286 2.9744458079058607 0.8815431453663642 Q 2.9744458079058607 0.9192274324965295 2.933396852281931 0.9434530456516357 Q 2.892347896658001 0.9676786588067419 2.8452425377452943 0.9676786588067419 Q 2.8169793223976707 0.9676786588067419 2.7826597037612704 0.9629681229154712 Q 2.7483400851248696 0.9582575870242006 2.7180580686809868 0.940088377157871 Q 2.6877760522371044 0.9219191672915412 2.6675880412745157 0.8842348801613761 Q 2.6474000303119274 0.8465505930312109 2.6474000303119274 0.7806030905534218 L 2.6474000303119274 0.17496276167576696 Q 2.6474000303119274 0.13997020934061355 2.6709527097682804 0.11641752988426035 Q 2.694505389224634 0.09286485042790704 2.7294979415597873 0.09286485042790704 M 3.126550510163929 0.8559716648137522 Q 3.11309183618887 0.8371295212486696 3.114437703586376 0.8075204385035398 Q 3.115783570983882 0.77791135575841 3.1494302559215295 0.7563774773983156 Q 3.1709641342816237 0.7429188034232566 3.19518974743673 0.7449376045195155 Q 3.219415360591836 0.7469564056157743 3.2422951063494363 0.7698361513733746 Q 3.2813252608771073 0.8088663059010457 3.324393017597296 0.8304001842611402 Q 3.367460774317485 0.8519340626212345 3.4320624093977683 0.8519340626212345 Q 3.4522504203603566 0.8505881952237286 3.4764760335154627 0.845877659332458 Q 3.500701646670569 0.8411671234411873 3.518870856536899 0.8243437809723635 Q 3.5370400664032284 0.8075204385035398 3.5370400664032284 0.7725278861683864 Q 3.5370400664032284 0.7429188034232566 3.5168520554406397 0.7254225272556799 Q 3.4966640444780515 0.7079262510881033 3.4636902932391567 0.6958134445105502 Q 3.4307165420002623 0.6837006379329971 3.3903405200750854 0.6729336987529498 Q 3.3486186307524024 0.6608208921753967 3.3048779403334607 0.6460163508028318 Q 3.261137249914519 0.631211809430267 3.2247988301818595 0.6076591299739137 Q 3.1884604104492005 0.5841064505175604 3.1655806646916003 0.5450762959898894 Q 3.1427009189339996 0.5060461414622183 3.1427009189339996 0.44682797597195867 Q 3.1427009189339996 0.3795346060966637 3.180385206064165 0.3324292471839573 Q 3.21806949319433 0.28532388827125077 3.2779605923833426 0.2597524077186386 Q 3.337851691572355 0.23418092716602656 3.403799194050144 0.23418092716602656 Q 3.445521083372827 0.23418092716602656 3.4912805748880276 0.2442749326473208 Q 3.5370400664032284 0.25436893812861505 3.5787619557259114 0.2765757501874624 Q 3.620483845048594 0.2987825622463097 3.648747060396218 0.335120981978969 Q 3.663551601768783 0.3553089929415575 3.6662433365637948 0.38357220828918137 Q 3.6689350713588067 0.41183542363680525 3.6406718560111826 0.4347151693944056 Q 3.620483845048594 0.45086557816447637 3.593566497098476 0.4488467770682175 Q 3.566649149148358 0.44682797597195867 3.5491528729807813 0.4306775672018879 Q 3.526273127223181 0.40106848445675813 3.487915906394263 0.38357220828918137 Q 3.449558685565345 0.3660759321216047 3.3997615918576267 0.3660759321216047 Q 3.379573580895038 0.3660759321216047 3.356020901438685 0.3707864680128754 Q 3.3324682219823316 0.375497003904146 3.314971945814755 0.3909744789754639 Q 3.297475669647178 0.4064519540467817 3.297475669647178 0.44009863898442925 Q 3.297475669647178 0.4710535891270649 3.317663680609767 0.48922279899339455 Q 3.337851691572355 0.5073920088597241 3.372171310208756 0.5188318817385243 Q 3.406490928845156 0.5302717546173245 3.445521083372827 0.5410386937973717 Q 3.485897105298004 0.5518056329774188 3.527618994620687 0.5666101743499838 Q 3.56934088394337 0.5814147157225487 3.604333436278523 0.6056403288776548 Q 3.6393259886136766 0.629865942032761 3.6608598669737713 0.6682231628616793 Q 3.6823937453338655 0.7065803836905973 3.6823937453338655 0.7657985491808569 Q 3.6823937453338655 0.8344377864536578 3.6420177234086886 0.8828890127638702 Q 3.6016417014835116 0.9313402390740826 3.541077668595746 0.9562387859279418 Q 3.4805136357079807 0.9811373327818008 3.4172578680252035 0.9811373327818008 Q 3.337851691572355 0.9811373327818008 3.258445515119507 0.9535470511329299 Q 3.179039338666659 0.9259567694840589 3.126550510163929 0.8559716648137522" fill="#404040" fill-rule="nonzero"></path></g><g></g><g clip-path="url(#SvgjsClipPath1001)"><g clip-path="url(#SvgjsClipPath10008aa85038-52b5-4444-9f34-3714f7e78ef0)"><path d=" M 3.091016009046259 -1.9938646999518892 C 2.6309797329240237 -1.9929497939277812 2.197637185505185 -1.0696481615982245 2.4695257286696153 -0.6546575526629708 C 2.5935171475784 -0.4481479424647188 2.849530806600625 -0.3628405176218683 3.072610252561257 -0.453701135367647 C 3.6596570120302956 -0.6733323991550648 3.6994285150782966 -1.9951025139845076 3.091016009046259 -1.9938646999518892 Z" fill="#ffb3a6" transform="matrix(1,0,0,1,0,0)" fill-rule="nonzero"></path></g><g clip-path="url(#SvgjsClipPath10008aa85038-52b5-4444-9f34-3714f7e78ef0)"><path d=" M 2.581843897629266 -1.3484792269455919 C 2.621615400677267 -1.3334640045499317 2.616987052555309 -1.2494002863348028 2.689964262478302 -1.3062859138337728 C 2.533892058365708 -1.6028769196491248 2.653798565525314 -1.8206783713883261 2.624037210741085 -1.8298274316294085 C 2.6003572901171035 -1.8370390438194386 2.4572014063448595 -1.6014238336108348 2.5091895957147785 -1.3222698602549596 C 2.5235887518181617 -1.3477773104609554 2.5544767940701996 -1.3589198857029872 2.581843897629266 -1.3484792269455919 Z" fill="#1c7377" transform="matrix(1,0,0,1,0,0)" fill-rule="nonzero"></path></g><g clip-path="url(#SvgjsClipPath10008aa85038-52b5-4444-9f34-3714f7e78ef0)"><path d=" M 2.9500128453307415 -1.7500153355263122 C 2.807987139588276 -1.9760509414824865 2.8919970398019896 -2.150690356084342 2.866379671126957 -2.1577405142701167 C 2.8477048246348655 -2.1631223144119303 2.753684776157379 -1.9987083200795226 2.7629952904027166 -1.7999584408423424 C 2.841515754471776 -1.803456610934521 2.8703622032318967 -1.7243979668512783 2.9500128453307415 -1.7500153355263122 Z" fill="#2c858d" transform="matrix(1,0,0,1,0,0)" fill-rule="nonzero"></path></g><g clip-path="url(#SvgjsClipPath10008aa85038-52b5-4444-9f34-3714f7e78ef0)"><path d=" M 3.388898646895649 -1.3845911058971614 C 3.432975590057102 -1.3735045976050257 3.4427166483137857 -1.3991219662800582 3.4857710494482963 -1.3734507796036082 C 3.598788852426385 -1.632961182441864 3.4948662916879583 -1.8979072034233517 3.459507864756245 -1.8948933953439366 C 3.4272170639053607 -1.8922024952730292 3.4505202585194183 -1.686563911854328 3.3108087268379327 -1.4098855665636858 C 3.359244928114253 -1.411553924607649 3.3497191418632446 -1.3944398001566813 3.388898646895649 -1.3845911058971614 Z" fill="#1c7377" transform="matrix(1,0,0,1,0,0)" fill-rule="nonzero"></path></g><g clip-path="url(#SvgjsClipPath10008aa85038-52b5-4444-9f34-3714f7e78ef0)"><path d=" M 3.5335076167061787 -0.9084094293494864 C 3.517792760292086 -0.922509745721038 3.451219892537848 -0.841352199582488 3.287828440232386 -0.8012577885259757 C 3.2840073621316956 -0.7654149995814965 3.2692074117417085 -0.7136959002186676 3.2688306857317815 -0.7090137340952891 C 3.2651172436339286 -0.6605775328189654 3.2948247804167434 -0.6456699464261417 3.284168816135952 -0.6165005896575124 C 3.2776568379643596 -0.5986330131866908 3.3678558083411554 -0.6661746049664528 3.388791010892811 -0.6844727254486194 C 3.4896997635518194 -0.772626611771527 3.551106103169911 -0.8924254829282994 3.5335076167061787 -0.9084094293494864 Z" fill="#1c7377" transform="matrix(1,0,0,1,0,0)" fill-rule="nonzero"></path></g><g clip-path="url(#SvgjsClipPath10008aa85038-52b5-4444-9f34-3714f7e78ef0)"><path d=" M 2.8692320252021184 -0.9647568768342754 C 2.904213726123905 -0.9632499727945678 2.912286426336629 -0.9958636816539586 2.9847792742468577 -0.99236551156178 C 2.9391954270456964 -1.2693667648609317 3.0667440904066803 -1.4316818571380316 3.0385972756649946 -1.4498185236159435 C 3.0083515588680014 -1.4689239141193822 2.796900631296141 -1.2829827192197192 2.7881282970649846 -1.005012741895042 C 2.810678039659183 -1.0017298438085351 2.8295143401555336 -0.9663714168768194 2.8692320252021184 -0.9647568768342754 Z" fill="#2c858d" transform="matrix(1,0,0,1,0,0)" fill-rule="nonzero"></path></g><g clip-path="url(#SvgjsClipPath10008aa85038-52b5-4444-9f34-3714f7e78ef0)"><path d=" M 2.538412770484831 -0.7773087778949055 C 2.562523235120156 -0.7756404198509426 2.5677973992591325 -0.7887720121969681 2.5937914939440945 -0.7892563742097316 C 2.5000943534751188 -0.9349417040486272 2.496434729378682 -1.0449995169487174 2.4693104566639446 -1.0438693389189369 C 2.4243186074783805 -1.0420395268707199 2.42808586757765 -0.8335485893768575 2.4447156300158555 -0.8416212895895785 C 2.459300308400167 -0.848725265776773 2.485563493092218 -0.7810760379941746 2.538412770484831 -0.7773087778949055 Z" fill="#2c858d" transform="matrix(1,0,0,1,0,0)" fill-rule="nonzero"></path></g><g clip-path="url(#SvgjsClipPath10008aa85038-52b5-4444-9f34-3714f7e78ef0)"><path d=" M 3.2362707948738105 -1.397722698243187 C 3.1878345935974903 -1.4494417976060165 3.1264282539793937 -1.283951443245246 3.206078896078239 -1.3066626398436996 C 3.2223202825991697 -1.3145630310716123 3.2346844193213777 -1.3286855939717546 3.2403684375782493 -1.3458288362010398 C 3.2460524558351236 -1.3629720784303236 3.244574926173888 -1.3816839881632739 3.2362707948738105 -1.397722698243187 Z" fill="#ef8e86" transform="matrix(1,0,0,1,0,0)" fill-rule="nonzero"></path></g><g clip-path="url(#SvgjsClipPath10008aa85038-52b5-4444-9f34-3714f7e78ef0)"><path d=" M 3.30440438466917 -1.2309407118483804 C 3.2678081437048383 -1.2246978236838768 3.267108509686403 -1.1660362021381077 3.299560764541539 -1.173301632329556 C 3.3350268274760926 -1.1812666965394412 3.330183207348462 -1.2427268541589536 3.30440438466917 -1.2309407118483804 Z" fill="#ef8e86" transform="matrix(1,0,0,1,0,0)" fill-rule="nonzero"></path></g><g clip-path="url(#SvgjsClipPath10008aa85038-52b5-4444-9f34-3714f7e78ef0)"><path d=" M 3.432652682048594 -1.061091099372741 C 3.4582162327222106 -1.1063520385653942 3.425925431871326 -1.1283097831439939 3.404505867306906 -1.1105498426760088 C 3.31430689693011 -1.0358504567076348 3.404344413302652 -0.9732601210583414 3.432652682048594 -1.061091099372741 Z" fill="#ef8e86" transform="matrix(1,0,0,1,0,0)" fill-rule="nonzero"></path></g><g clip-path="url(#SvgjsClipPath10008aa85038-52b5-4444-9f34-3714f7e78ef0)"><path d=" M 3.2193181244270996 -1.119483630911419 C 3.182129885447168 -1.1535504258090994 3.1524223486643557 -1.0538794871827104 3.1655001230089623 -1.0395100808040674 C 3.1978985598626792 -1.0034520198539165 3.2549456413659046 -1.0868699220520286 3.2193181244270996 -1.119483630911419 Z" fill="#ef8e86" transform="matrix(1,0,0,1,0,0)" fill-rule="nonzero"></path></g><g clip-path="url(#SvgjsClipPath10008aa85038-52b5-4444-9f34-3714f7e78ef0)"><path d=" M 3.2543536433503073 -0.9118537814402474 C 3.23955369296032 -0.9725604870399058 3.1621634069210365 -0.910346877400539 3.165015760996198 -0.8580357800221106 C 3.167545207062851 -0.8107835747769863 3.2661397856608767 -0.8634713981653426 3.2543536433503073 -0.9118537814402474 Z" fill="#ef8e86" transform="matrix(1,0,0,1,0,0)" fill-rule="nonzero"></path></g><g clip-path="url(#SvgjsClipPath10008aa85038-52b5-4444-9f34-3714f7e78ef0)"><path d=" M 3.1513998066374103 -0.7073453760513262 C 3.136599856247423 -0.7415736249532614 3.0899934670193137 -0.7353307367887574 3.07282552456693 -0.678498927291205 C 3.044301983815317 -0.5842636068080478 3.1742186392386977 -0.6542270086516258 3.1513998066374103 -0.7073453760513262 Z" fill="#ef8e86" transform="matrix(1,0,0,1,0,0)" fill-rule="nonzero"></path></g><g clip-path="url(#SvgjsClipPath10008aa85038-52b5-4444-9f34-3714f7e78ef0)"><path d=" M 3.1807306174102954 -0.5896454069498613 C 3.1622710429238743 -0.6311390860432451 3.099680707274583 -0.5729618265102383 3.117333011739729 -0.546591005815352 C 3.1325096881396433 -0.5236645372112254 3.194454207771921 -0.5587000561344322 3.1807306174102954 -0.5896454069498613 Z" fill="#ef8e86" transform="matrix(1,0,0,1,0,0)" fill-rule="nonzero"></path></g><g clip-path="url(#SvgjsClipPath10008aa85038-52b5-4444-9f34-3714f7e78ef0)"><path d=" M 2.933598354898209 -0.5694098384166422 C 2.852871352771002 -0.5781821726477983 2.782907950927424 -0.48303194614053213 2.863042955039031 -0.4856152102086031 C 2.941886327116601 -0.4880908382738367 2.9861247242823086 -0.5636513122649007 2.933598354898209 -0.5694098384166422 Z" fill="#ef8e86" transform="matrix(1,0,0,1,0,0)" fill-rule="nonzero"></path></g><g clip-path="url(#SvgjsClipPath10008aa85038-52b5-4444-9f34-3714f7e78ef0)"><path d=" M 3.083481488847721 -0.8403834755569615 C 3.0614699262677036 -0.9318740779677945 2.967126969781709 -0.8112141187883313 2.9907530724042695 -0.7749407858325075 C 3.0117959109587624 -0.7427038029830428 3.0978508952263626 -0.7803764039757382 3.083481488847721 -0.8403834755569615 Z" fill="#ef8e86" transform="matrix(1,0,0,1,0,0)" fill-rule="nonzero"></path></g><g clip-path="url(#SvgjsClipPath10008aa85038-52b5-4444-9f34-3714f7e78ef0)"><path d=" M 3.329429755328605 -1.9065180836502544 C 3.4216738097592923 -2.2395438764256856 3.687104192753546 -2.4083171288729632 3.663101364121054 -2.442383923770643 C 3.6490548657509203 -2.4623504022967717 3.4938437496610155 -2.4238705312828044 3.343207163691647 -2.286311719658045 C 3.2213632084809882 -1.8530229902406254 3.1998360079137327 -2.0190515246155787 3.329429755328605 -1.9065180836502544 Z" fill="#2c858d" transform="matrix(1,0,0,1,0,0)" fill-rule="nonzero"></path></g><g clip-path="url(#SvgjsClipPath10008aa85038-52b5-4444-9f34-3714f7e78ef0)"><path d=" M 3.197252743845661 -1.9792800215675748 C 3.2110153869567855 -1.9751785483372448 3.2245132210846337 -1.9702359326446228 3.2376700629106803 -1.9644800711775876 C 3.5787685558988347 -2.8861671634645987 3.414462197569262 -3.2662298894794826 3.1472020025267926 -2.3637558236987437 C 3.1953691137960285 -2.227973006120785 3.227014098629892 -2.0793276862038916 3.197252743845661 -1.9792800215675748 Z" fill="#1c7377" transform="matrix(1,0,0,1,0,0)" fill-rule="nonzero"></path></g><g clip-path="url(#SvgjsClipPath10008aa85038-52b5-4444-9f34-3714f7e78ef0)"><path d=" M 3.197252743845661 -1.9792800215675748 C 3.26597833165662 -2.2106974276655635 3.006467928818364 -2.702486324624499 2.973423675947629 -2.692799084369234 C 2.9493670293137226 -2.6858027441848757 3.0491994219443668 -2.4180043691282265 2.980850560143332 -1.9764276674924122 C 3.051121812097212 -1.9987176818482415 3.1264184061831686 -1.9997101512554936 3.197252743845661 -1.9792800215675734 Z" fill="#2c858d" transform="matrix(1,0,0,1,0,0)" fill-rule="nonzero"></path></g><g clip-path="url(#SvgjsClipPath10008aa85038-52b5-4444-9f34-3714f7e78ef0)"><path d=" M 0.9677882170979224 -1.9856305457349146 C 0.9175760217748005 -1.596580213483204 0.7652172597600541 -1.5417396700381212 0.7838382882507293 -1.2448795742156786 C 0.8406700977482816 -0.34003751637254265 2.0567416577925024 -0.5925515790264417 1.8515874363865648 -1.4498723416173624 C 1.807671947229365 -1.633337908451791 1.729582027171649 -1.6451778687637817 1.5903010395015096 -1.9073253536715258 C 1.4735159764241519 -2.1273871614702875 1.4420324455945428 -2.2819524615431774 1.3787962939282306 -2.2778622934353994 C 1.314214692226467 -2.2736644893247844 1.3024823679173114 -2.1089814049852853 1.2199793717433078 -2.1002628887555472 C 1.1407054556543896 -2.09208255253999 1.088824902287306 -2.237821700380305 1.033284724823791 -2.224851562038535 C 0.9854943395644897 -2.214141779756325 0.9821038054751475 -2.0965494466576944 0.9677882170979224 -1.9856305457349146 Z" fill="#ffb3a6" transform="matrix(1,0,0,1,0,0)" fill-rule="nonzero"></path></g><g clip-path="url(#SvgjsClipPath10008aa85038-52b5-4444-9f34-3714f7e78ef0)"><path d=" M 1.683352363953469 -1.0359580927104708 C 1.8324282278817086 -1.3111295339614049 1.6941159642370955 -1.5023987110014634 1.5587636906704816 -1.7414582733008284 C 1.3845548200799718 -2.049135787408316 1.1916172849959517 -2.1438554699042376 1.0673515197214773 -1.811421675144405 C 0.9448079304923783 -1.4834547745022788 0.8836706808813733 -1.3181796921471798 0.8900750230501334 -1.2550511764837065 C 0.9382421343193668 -0.7799458599643931 1.4387495475080359 -0.5846403328179743 1.683352363953469 -1.0359580927104708 Z" fill="#fff7e1" transform="matrix(1,0,0,1,0,0)" fill-rule="nonzero"></path></g><g clip-path="url(#SvgjsClipPath10008aa85038-52b5-4444-9f34-3714f7e78ef0)"><path d=" M 1.0955521524645793 -1.5072423311290957 C 1.0643915296434785 -1.515745575353162 1.0348454468649226 -1.440454191369187 1.0632613516136975 -1.4103699285764493 C 1.1028714006574447 -1.36876861348023 1.1346778394955643 -1.4965325488468868 1.0955521524645793 -1.5072423311290957 Z" fill="#49443a" transform="matrix(1,0,0,1,0,0)" fill-rule="nonzero"></path></g><g clip-path="url(#SvgjsClipPath10008aa85038-52b5-4444-9f34-3714f7e78ef0)"><path d=" M 1.197806355159039 -1.7883337525360243 C 1.1521686899564587 -1.822131457426615 1.1063157527482057 -1.7017944062556598 1.1605104801762696 -1.6689654253905972 C 1.205071785350488 -1.6420564246815288 1.1952769090923883 -1.7332779370852702 1.2051256033519069 -1.7523833275887086 C 1.211952145334801 -1.7645216225112401 1.2088353248257269 -1.7798307114822713 1.197806355159039 -1.7883337525360243 Z" fill="#49443a" transform="matrix(1,0,0,1,0,0)" fill-rule="nonzero"></path></g><g clip-path="url(#SvgjsClipPath10008aa85038-52b5-4444-9f34-3714f7e78ef0)"><path d=" M 1.3029129119286598 -1.8572207943512404 C 1.2984460178109531 -1.7186932587009558 1.384016640065791 -1.7185318046967017 1.3487120311354939 -1.8626025944930535 C 1.3455738444423289 -1.873624145292393 1.3349032914794354 -1.8807411429619993 1.3235219844975057 -1.8794037390863316 C 1.3121406775155762 -1.878066335210664 1.3034106341169918 -1.8686695964880053 1.3029129119286598 -1.8572207943512404 Z" fill="#49443a" transform="matrix(1,0,0,1,0,0)" fill-rule="nonzero"></path></g><g clip-path="url(#SvgjsClipPath10008aa85038-52b5-4444-9f34-3714f7e78ef0)"><path d=" M 1.2882205975415102 -1.528338987685005 C 1.2854220614677652 -1.4099393845651047 1.362489439498538 -1.4159131827225178 1.3305215466561644 -1.5334516978197292 C 1.3277276502943698 -1.5437762063092035 1.317777232633663 -1.550483593263382 1.30715865568836 -1.5492001774748274 C 1.2965400787430548 -1.5479167616862726 1.2884742281381985 -1.5390318359468156 1.288220597541505 -1.528338987685005 Z" fill="#49443a" transform="matrix(1,0,0,1,0,0)" fill-rule="nonzero"></path></g><g clip-path="url(#SvgjsClipPath10008aa85038-52b5-4444-9f34-3714f7e78ef0)"><path d=" M 1.4513967778412993 -1.6193452280830751 C 1.4616221981107447 -1.536196415892054 1.5225441757160767 -1.5063274251049878 1.5213601796848772 -1.5493818262394972 C 1.5178620095926998 -1.6660054353125995 1.4456382516895605 -1.6660054353125995 1.4513967778412993 -1.6193452280830751 Z" fill="#49443a" transform="matrix(1,0,0,1,0,0)" fill-rule="nonzero"></path></g><g clip-path="url(#SvgjsClipPath10008aa85038-52b5-4444-9f34-3714f7e78ef0)"><path d=" M 1.4477909717462842 -1.3091920859103516 C 1.4482560994875031 -1.2789539250019575 1.4548661620036978 -1.2491262467778987 1.4672192702582296 -1.221522561600205 C 1.4713912389924912 -1.2147169187712785 1.4791661429093927 -1.210990031618867 1.48708458637383 -1.2120001556385236 C 1.4950030298382673 -1.2130102796581803 1.5015933197666063 -1.218569676875895 1.5039231472254015 -1.2262047277235846 C 1.5070192194654295 -1.2581285648735039 1.5034454536308368 -1.2903474383976896 1.4934286369488643 -1.3208167742166708 C 1.4877239287985418 -1.3509548550108261 1.443485531632834 -1.3385767146846543 1.4477909717462842 -1.3091920859103516 Z" fill="#49443a" transform="matrix(1,0,0,1,0,0)" fill-rule="nonzero"></path></g><g clip-path="url(#SvgjsClipPath10008aa85038-52b5-4444-9f34-3714f7e78ef0)"><path d=" M 1.2043721513320529 -1.3122597119911856 C 1.2006587092342003 -1.1537118798133548 1.2369858601914427 -1.203493531125131 1.2388156722396584 -1.2100055092967261 C 1.2878438715315808 -1.379747485769529 1.205071785350488 -1.3418596127711615 1.2043721513320529 -1.3122597119911856 Z" fill="#49443a" transform="matrix(1,0,0,1,0,0)" fill-rule="nonzero"></path></g><g clip-path="url(#SvgjsClipPath10008aa85038-52b5-4444-9f34-3714f7e78ef0)"><path d=" M 1.0273647446678007 -1.2152258554342852 C 1.0082055361629447 -1.0896146401243532 1.068858423761185 -1.0770750457939275 1.0730562278717972 -1.1069978545824122 C 1.0775231219895065 -1.1386428394162764 1.0686969697569284 -1.1705030962558143 1.07386349789307 -1.2025248070996055 C 1.0788147540235387 -1.23298579590227 1.0320469107911778 -1.2457944802397865 1.0273647446678007 -1.2152258554342852 Z" fill="#49443a" transform="matrix(1,0,0,1,0,0)" fill-rule="nonzero"></path></g><g clip-path="url(#SvgjsClipPath10008aa85038-52b5-4444-9f34-3714f7e78ef0)"><path d=" M 1.186181666852721 -0.9771350171604469 C 1.1874732988867558 -0.834517313402384 1.2384389462297314 -0.8458729117016115 1.2416680263148197 -0.8742888164503877 C 1.241981264961185 -0.9085838108661122 1.2389713374361055 -0.9428284952831989 1.2326804200779902 -0.9765430191448465 C 1.2303662460170124 -1.0058200119163145 1.1859125768456291 -1.0072730979546036 1.186181666852721 -0.9771350171604469 Z" fill="#49443a" transform="matrix(1,0,0,1,0,0)" fill-rule="nonzero"></path></g><g clip-path="url(#SvgjsClipPath10008aa85038-52b5-4444-9f34-3714f7e78ef0)"><path d=" M 1.3251935645157689 -1.0926284482037691 C 1.3260008345370415 -1.0652889034833555 1.320672852396646 -1.0300919305558938 1.345052407039065 -1.0119014460765636 C 1.352037305161975 -1.0078686311927512 1.3608579816107997 -1.0090153191310987 1.366579607606318 -1.0146999821503062 C 1.3871919021494628 -1.0320831966083648 1.3796035639495083 -1.0685179835684444 1.3789039299310708 -1.0923055401952602 C 1.3777199338998711 -1.126533789097195 1.324171022488826 -1.1271257871127949 1.3251935645157689 -1.0926284482037691 Z" fill="#49443a" transform="matrix(1,0,0,1,0,0)" fill-rule="nonzero"></path></g><g clip-path="url(#SvgjsClipPath10008aa85038-52b5-4444-9f34-3714f7e78ef0)"><path d=" M 1.580667617247664 -1.3527308490576242 C 1.5742094570774874 -1.2581188025645407 1.6275969144842788 -1.2390672300625196 1.632494352613331 -1.2666220467886056 C 1.634689650609582 -1.2973725510377856 1.6318538741681097 -1.3282752430281857 1.624098744392104 -1.35811264919944 C 1.620277666291416 -1.3838914718787265 1.5822283392887904 -1.376356951680187 1.580667617247664 -1.3527308490576242 Z" fill="#49443a" transform="matrix(1,0,0,1,0,0)" fill-rule="nonzero"></path></g><g clip-path="url(#SvgjsClipPath10008aa85038-52b5-4444-9f34-3714f7e78ef0)"><path d=" M 1.5314779639514875 -1.0620060053968494 C 1.4615145621079095 -1.062759457416703 1.534760862037992 -0.8216548110634494 1.5544582505570315 -1.0385413567785413 C 1.5545188806862367 -1.0513372518012156 1.544272340404561 -1.0617997613159922 1.5314779639514875 -1.0620060053968494 Z" fill="#49443a" transform="matrix(1,0,0,1,0,0)" fill-rule="nonzero"></path></g><g clip-path="url(#SvgjsClipPath10008aa85038-52b5-4444-9f34-3714f7e78ef0)"><path d=" M 1.8150450134236518 -1.5553018063954913 C 1.8242143241949624 -1.623952723037361 1.816643991657775 -1.6938028888621874 1.792979632842213 -1.7588953057603038 C 1.7467499696240356 -1.9002213774843322 1.6435808609054656 -1.9966632360256327 1.6308259945693668 -1.9884828998100759 C 1.6217307523297047 -1.9826167376554993 1.6666687835138474 -1.9289063722401987 1.682383639927945 -1.8232078174549782 C 1.6862265774505047 -1.7982889816476337 1.6874531223297782 -1.7730365870742872 1.6860432640243763 -1.7478626154695858 C 1.7334189481040605 -1.686717231352073 1.77652177036774 -1.622377682724852 1.8150450134236518 -1.5553018063954926 Z" fill="#2c858d" transform="matrix(1,0,0,1,0,0)" fill-rule="nonzero"></path></g><g clip-path="url(#SvgjsClipPath10008aa85038-52b5-4444-9f34-3714f7e78ef0)"><path d=" M 0.8619282083084477 -1.8673923966192683 C 0.8437377238291157 -1.870029478688758 0.8111778329711449 -1.7849970364480998 0.7973466066066843 -1.7046467603308224 C 0.7827846251810417 -1.6222996669381453 0.7851283926557373 -1.537850795115524 0.8042353107882064 -1.4564381377903752 C 0.8257625113554566 -1.5328058818027106 0.859936942255978 -1.5989482055456017 0.8928197411224595 -1.6845188278004395 C 0.8908839288068664 -1.7465975718795168 0.8804909888120847 -1.8081223281552434 0.8619282083084477 -1.8673923966192696 Z" fill="#2c858d" transform="matrix(1,0,0,1,0,0)" fill-rule="nonzero"></path></g><g clip-path="url(#SvgjsClipPath10008aa85038-52b5-4444-9f34-3714f7e78ef0)"><path d=" M 0.8025669527442422 -1.1102807526689182 C 0.7326035509006643 -1.1738398123437375 0.715758516456786 -1.2334701579150336 0.7060174582001052 -1.229379989807255 C 0.6921324138342257 -1.2235138276526785 0.7126370723745356 -1.0963957083030382 0.7934717105045775 -0.9871989834256385 C 0.823368604971157 -0.9456548008116035 0.8598750573602487 -0.9092937924559363 0.9015382573521922 -0.8795629805893652 C 0.8531753251541803 -0.9489237749608987 0.8194959593175183 -1.02743570608747 0.8025669527442447 -1.1102807526689182 Z" fill="#2c858d" transform="matrix(1,0,0,1,0,0)" fill-rule="nonzero"></path></g><g clip-path="url(#SvgjsClipPath10008aa85038-52b5-4444-9f34-3714f7e78ef0)"><path d=" M 1.7537463098083927 -0.8937709329637524 C 1.8434337572578017 -0.9493995085101892 1.908455010466676 -1.037217671342784 1.9354897005974434 -1.1392348374318755 C 1.945822756869724 -1.1792216124855515 1.953195823064008 -1.2373450540171391 1.941786406763363 -1.2414890401263363 C 1.9339289785563143 -1.2441799401972424 1.9207435682088725 -1.219961839559081 1.894964745529586 -1.1836885066032574 C 1.8831247852175925 -1.1671125621664709 1.8731684549552414 -1.1544653318332085 1.8643961207240847 -1.1440246395580909 C 1.8485136985817938 -1.052819099358981 1.8105224430844018 -0.9668952967992221 1.7537463098083927 -0.8937709329637524 Z" fill="#2c858d" transform="matrix(1,0,0,1,0,0)" fill-rule="nonzero"></path></g><g clip-path="url(#SvgjsClipPath10008aa85038-52b5-4444-9f34-3714f7e78ef0)"><path d=" M 1.8951800175352589 -1.474736258272541 C 1.8889371293707553 -1.4770504323335214 1.8803800671452715 -1.4561690477832834 1.8567001465212924 -1.4263000569962172 C 1.8655145283871046 -1.38524447948278 1.871181884535972 -1.3435759180834697 1.8736528169680087 -1.3016575657118121 C 1.8962025595621992 -1.3709751515383726 1.9082039738784466 -1.470054092149164 1.8951800175352589 -1.474736258272541 Z" fill="#2c858d" transform="matrix(1,0,0,1,0,0)" fill-rule="nonzero"></path></g><g clip-path="url(#SvgjsClipPath10008aa85038-52b5-4444-9f34-3714f7e78ef0)"><path d=" M 0.9723627472184616 -2.023679872737538 C 0.9331832421860579 -2.0530645015118405 0.92446472595632 -2.075452790101786 0.9180603837875599 -2.072815708032296 C 0.9040138854174266 -2.067057181880556 0.923442183929377 -1.9508641168187986 0.9521271786852411 -1.889350141197868 C 0.9580471588412365 -1.9191114959820965 0.9633213229802158 -1.9509717528216337 0.9677882170979198 -1.9856305457349146 C 0.9694565751418841 -1.998277776068177 0.9709096611801729 -2.0110326424042757 0.9723627472184616 -2.023679872737538 Z" fill="#2c858d" transform="matrix(1,0,0,1,0,0)" fill-rule="nonzero"></path></g><g clip-path="url(#SvgjsClipPath10008aa85038-52b5-4444-9f34-3714f7e78ef0)"><path d=" M 1.378796293928233 -2.2780775654410705 C 1.3919931808963184 -2.2783147640118826 1.4046130480675265 -2.2726752608697485 1.413239814835841 -2.262685617035484 C 1.3928427922983664 -2.692099450350799 1.4322913873378595 -2.907963454038946 1.3884297161820787 -2.9192652343367533 C 1.364749795558097 -2.9254004864984213 1.284453337442236 -2.820293929728799 1.2308506080297743 -2.6368283628943723 C 1.2577596087388416 -2.4969015592072163 1.2830002514039471 -2.339914449070511 1.3010830998804415 -2.181097526885588 C 1.3244939304973313 -2.22700428209526 1.343976047010698 -2.2758172093815094 1.378796293928233 -2.2780775654410705 Z" fill="#2c858d" transform="matrix(1,0,0,1,0,0)" fill-rule="nonzero"></path></g><g clip-path="url(#SvgjsClipPath10008aa85038-52b5-4444-9f34-3714f7e78ef0)"><path d=" M 1.211314673514989 -2.1008010687697283 C 1.2141998118471238 -2.1006119933547405 1.217094233411183 -2.1006119933547405 1.219979371743313 -2.1008010687697283 C 1.2580286987459335 -2.1047297828732514 1.2810089853514774 -2.141918021853184 1.3010830998804415 -2.1812051628884244 C 1.2830002514039471 -2.340022085073347 1.2580286987459335 -2.496955377208634 1.2308506080297743 -2.6369359988972088 C 1.1736958905237116 -2.9334193687097256 1.1081993827978402 -3.153265904502814 1.0834969201469156 -3.149875370413472 C 1.058794457495991 -3.14648483632413 1.0540046553697762 -2.9399851648827373 1.0775769399909203 -2.663037729585006 C 1.1852216136075604 -2.4964686275976593 1.2324312299103863 -2.2979982607905693 1.211314673514989 -2.1008010687697283 Z" fill="#1c7377" transform="matrix(1,0,0,1,0,0)" fill-rule="nonzero"></path></g><g clip-path="url(#SvgjsClipPath10008aa85038-52b5-4444-9f34-3714f7e78ef0)"><path d=" M 1.211314673514989 -2.1008010687697283 C 1.2324060274673594 -2.2979626220176055 1.1851974221949781 -2.496390743574955 1.0775769399909203 -2.6629300935821694 C 0.9920601357374987 -2.7966140091048217 0.8951339151834348 -2.869214493017888 0.8747907106473816 -2.8572668967030608 C 0.8478817099383118 -2.8411214962776183 0.9316763381463528 -2.7008717845819548 1.002231738005528 -2.38092376615113 C 1.0168164163898448 -2.3147276244068227 1.0256425686224178 -2.2640310670709374 1.031724002782667 -2.2248515620385336 C 1.0867260002320038 -2.2377678823788862 1.136884377553707 -2.1035996048434704 1.211314673514989 -2.1008010687697283 Z" fill="#2c858d" transform="matrix(1,0,0,1,0,0)" fill-rule="nonzero"></path></g><g clip-path="url(#SvgjsClipPath10008aa85038-52b5-4444-9f34-3714f7e78ef0)"><path d=" M 0.06590614933278331 -0.924931555784855 C 0.0510618923808243 -1.107248313957387 0.14347983643658302 -1.2815821629716606 0.30270535557258416 -1.3716209675553912 C 0.5315394976025036 -1.4888903926455108 0.8268388713838185 -1.3601577332533286 0.9323759721647877 -1.147522809650269 C 0.9873329069782302 -1.0245731012866228 0.9886198765317751 -0.8842934199502483 0.9359279602583813 -0.7603561074481915 C 0.8886759762411603 -0.6586413029086993 0.8064257249062969 -0.5773079145705995 0.7041876461518894 -0.5311990574097636 C 0.5658670246578181 -0.47309690236872814 0.4082785521561961 -0.4834021439932332 0.27870252694009456 -0.5590229641429416 C 0.1547023895985269 -0.6412401297509551 0.07604316508603676 -0.7764965959776662 0.06590614933278331 -0.924931555784855 Z" fill="#f59628" transform="matrix(1,0,0,1,0,0)" fill-rule="nonzero"></path></g><g clip-path="url(#SvgjsClipPath10008aa85038-52b5-4444-9f34-3714f7e78ef0)"><path d=" M 0.4018381141847933 -1.3151658840677658 C 0.3539400929226517 -1.3366930846350211 0.33149798633128597 -1.3229156762719783 0.3480201127666563 -1.3117753499784224 C 0.3938730499749068 -1.2805609091559038 0.3898366998685485 -1.3094073579160244 0.36416551319209717 -1.2574729865475232 C 0.36054242392970376 -1.2498813305391265 0.36150376167262427 -1.2408963291233843 0.3666509691727699 -1.234243038831845 C 0.3717981766729181 -1.2275897485403058 0.3802536990172858 -1.2244024985374415 0.38851199432789757 -1.2260026783135258 C 0.39677028963851196 -1.2276028580896114 0.40342338910457265 -1.2337176506610357 0.40571301028689505 -1.2418119481348444 C 0.40885151314998996 -1.251752957599426 0.4129991684882263 -1.2613466647296065 0.4180911506130719 -1.2704431248892936 C 0.43132775806544743 -1.2601980512293667 0.4436613890895824 -1.2488367064465473 0.4549564815844954 -1.2364839659944489 C 0.46636589788514043 -1.223998189665442 0.5166857292110976 -1.2391210480639385 0.43552818307254754 -1.2959528575614907 C 0.4460774327254407 -1.3070153613949236 0.45606428807615795 -1.3186008320805598 0.46545099186103517 -1.330665468476188 C 0.4754611401248026 -1.3458421448761033 0.44752959738879233 -1.3658086234022322 0.4018381141847933 -1.3151658840677658 Z" fill="#49443a" transform="matrix(1,0,0,1,0,0)" fill-rule="nonzero"></path></g><g clip-path="url(#SvgjsClipPath10008aa85038-52b5-4444-9f34-3714f7e78ef0)"><path d=" M 0.6421354905167767 -1.3193636881783795 C 0.5829356889568252 -1.3086000878947517 0.6744262913676584 -1.1752390803806094 0.7047258261660704 -1.2278730857675462 C 0.7205483185830006 -1.2555893564978875 0.6719506633024215 -1.3247993063216115 0.6421354905167767 -1.3193636881783795 Z" fill="#ea6911" transform="matrix(1,0,0,1,0,0)" fill-rule="nonzero"></path></g><g clip-path="url(#SvgjsClipPath10008aa85038-52b5-4444-9f34-3714f7e78ef0)"><path d=" M 0.6978909399859645 -1.1325614052560269 C 0.6621557870443243 -1.1358443033425338 0.660541247001779 -1.066203809507464 0.6995592980299288 -1.0482824150352243 C 0.7398151630906945 -1.0298228405488032 0.7328726409077535 -1.1293323251709388 0.6978909399859645 -1.1325614052560269 Z" fill="#ea6911" transform="matrix(1,0,0,1,0,0)" fill-rule="nonzero"></path></g><g clip-path="url(#SvgjsClipPath10008aa85038-52b5-4444-9f34-3714f7e78ef0)"><path d=" M 0.8577304041978303 -1.149729347708412 C 0.8399166457284277 -1.205646251181856 0.7946018885343556 -1.2294338078086726 0.7789408501216795 -1.2224374676243155 C 0.7632798117090007 -1.2154411274399568 0.760911819646604 -1.180351790515332 0.7709219679103766 -1.1568871418970241 C 0.788789544381198 -1.1146400107837873 0.8785041527452317 -1.072931059684731 0.8577304041978303 -1.149729347708412 Z" fill="#ea6911" transform="matrix(1,0,0,1,0,0)" fill-rule="nonzero"></path></g><g clip-path="url(#SvgjsClipPath10008aa85038-52b5-4444-9f34-3714f7e78ef0)"><path d=" M 0.7820084762025136 -0.997801129705012 C 0.8011676847073698 -0.9514100124825782 0.8412082777624651 -0.9596979847009708 0.8226948852746225 -1.013946530130453 C 0.8020825907314776 -1.0748146897343656 0.7613961816593686 -1.0476365990182064 0.7820084762025136 -0.997801129705012 Z" fill="#ea6911" transform="matrix(1,0,0,1,0,0)" fill-rule="nonzero"></path></g><g clip-path="url(#SvgjsClipPath10008aa85038-52b5-4444-9f34-3714f7e78ef0)"><path d=" M 0.8818408688331577 -1.0275086664878237 C 0.8562773181595416 -1.023095590371537 0.8674714624545162 -0.9102392413977034 0.896102639208964 -0.9118537814402474 C 0.9068662394925904 -0.9124995974572654 0.915477119719493 -0.9374173321138621 0.9163920257436009 -0.9568994486272282 C 0.9179527477847274 -0.992742237571707 0.8948648251763456 -1.0297690225473852 0.8818408688331577 -1.0275086664878237 Z" fill="#ea6911" transform="matrix(1,0,0,1,0,0)" fill-rule="nonzero"></path></g><g clip-path="url(#SvgjsClipPath10008aa85038-52b5-4444-9f34-3714f7e78ef0)"><path d=" M 0.8144607310576494 -0.8859673227581233 C 0.7934178925031586 -0.8840298747070703 0.7722135999444114 -0.8109450287812403 0.8033742227655123 -0.8213857210563584 C 0.8455675358773315 -0.835647491432165 0.8384635596901364 -0.8997447311211659 0.8144607310576494 -0.8859673227581233 Z" fill="#ea6911" transform="matrix(1,0,0,1,0,0)" fill-rule="nonzero"></path></g><g clip-path="url(#SvgjsClipPath10008aa85038-52b5-4444-9f34-3714f7e78ef0)"><path d=" M 0.8879223029934071 -0.8141741088663283 C 0.864619108379355 -0.8388227535158346 0.8123080110009255 -0.7735415177956351 0.8375486536660337 -0.7442107070227504 C 0.8649958343892793 -0.7120275421747047 0.907189147501101 -0.7941538123387812 0.8879223029934071 -0.8141741088663283 Z" fill="#ea6911" transform="matrix(1,0,0,1,0,0)" fill-rule="nonzero"></path></g><g clip-path="url(#SvgjsClipPath10008aa85038-52b5-4444-9f34-3714f7e78ef0)"><path d=" M 2.150384980260062 -2.045960525324647 C 2.2083481627980706 -2.2189644609463124 2.359011487379617 -2.3444234964716344 2.539650584517447 -2.3701063478660838 C 2.5492840067712925 -2.371397979900121 2.555419258932961 -2.357028573521478 2.5453014746663505 -2.3529922234151175 C 2.3441297853653547 -2.2727495833006754 2.2815932677174824 -2.195251661258558 2.17352672086986 -2.034066747011239 C 2.1645391146330333 -2.0212042446723033 2.1464562661565387 -2.031967844955931 2.150384980260062 -2.045960525324647 Z" fill="#49443a" transform="matrix(1,0,0,1,0,0)" fill-rule="nonzero"></path></g><g clip-path="url(#SvgjsClipPath10008aa85038-52b5-4444-9f34-3714f7e78ef0)"><path d=" M 2.3323974610562015 -1.8406986679158726 C 2.3337429110916528 -1.9389703385053902 2.3485428614816426 -2.0404172711785784 2.281431813713226 -2.1163006531781514 C 2.1422584620459215 -2.273556853321948 1.9866168019446706 -2.1189915532490575 1.9047058037862667 -1.9282605562231814 C 1.8132152013754335 -1.715787086624377 1.6288347285168971 -1.7153027246116137 1.5083362233416868 -1.4882983946299124 C 1.3607672634531551 -1.2103284173052342 1.47184761838019 -0.9004981831410208 1.6213540263197779 -0.8456576396959385 C 1.6879807120754298 -0.8212242670521053 1.7174729768525692 -0.8573361460036746 1.819350453537102 -0.8302656912903514 C 1.921227930221632 -0.8031952365770292 1.920689750207451 -0.7598179274340104 1.9937207781318655 -0.7441568890213328 C 2.134239579834621 -0.7142340802328491 2.373944958151002 -0.856636511985239 2.439925827889638 -1.1259956090830143 C 2.507198329662309 -1.4010055963296941 2.3275538409285708 -1.4809791464370445 2.3323974610562015 -1.8406986679158726 Z" fill="#ffcd62" transform="matrix(1,0,0,1,0,0)" fill-rule="nonzero"></path></g><g clip-path="url(#SvgjsClipPath10008aa85038-52b5-4444-9f34-3714f7e78ef0)"><path d=" M 1.8317285938632735 -1.7207921607562633 C 1.834365675932762 -1.7324706670639987 1.9124555959904779 -1.8186332873344364 1.9267173663662842 -1.7607251178085208 C 1.938126782666929 -1.7144416365889232 1.8171977334803782 -1.6572869190828616 1.8317285938632735 -1.7207921607562633 Z" fill="#fcae24" transform="matrix(1,0,0,1,0,0)" fill-rule="nonzero"></path></g><g clip-path="url(#SvgjsClipPath10008aa85038-52b5-4444-9f34-3714f7e78ef0)"><path d=" M 1.7446510675687281 -1.5845249811655402 C 1.7793636784834252 -1.6508287589126853 1.8077257652307865 -1.6237583041993628 1.8083177632463836 -1.6085278097980298 C 1.811331571325799 -1.527316445658061 1.696430138298076 -1.4924423807391085 1.7446510675687281 -1.5845249811655402 Z" fill="#fcae24" transform="matrix(1,0,0,1,0,0)" fill-rule="nonzero"></path></g><g clip-path="url(#SvgjsClipPath10008aa85038-52b5-4444-9f34-3714f7e78ef0)"><path d=" M 1.6785087438258381 -1.5720392048365333 C 1.707516646590213 -1.5393178599743058 1.6294267265324995 -1.4529399676981964 1.60133372979223 -1.488728938641257 C 1.5784610791895213 -1.5178444774084692 1.6454644909551002 -1.609227443816466 1.6785087438258381 -1.5720392048365333 Z" fill="#fcae24" transform="matrix(1,0,0,1,0,0)" fill-rule="nonzero"></path></g><g clip-path="url(#SvgjsClipPath10008aa85038-52b5-4444-9f34-3714f7e78ef0)"><path d=" M 1.6905639761435018 -1.4395392853450792 C 1.7476648756481434 -1.4658562880385493 1.7371703653716062 -1.355852293139876 1.7013275764271283 -1.3443352408363944 C 1.6546673691976026 -1.3291585644364803 1.6418586848600851 -1.4170433607522985 1.6905639761435018 -1.4395392853450792 Z" fill="#fcae24" transform="matrix(1,0,0,1,0,0)" fill-rule="nonzero"></path></g><g clip-path="url(#SvgjsClipPath10008aa85038-52b5-4444-9f34-3714f7e78ef0)"><path d=" M 1.5288408818819992 -1.3349170905882217 C 1.5449862823074425 -1.3801780297808737 1.5772770831583216 -1.3869590979595594 1.582658883300136 -1.3640326293554328 C 1.6018719098064111 -1.2775471010764872 1.4763683304993156 -1.234654153946232 1.5288408818819992 -1.3349170905882217 Z" fill="#fcae24" transform="matrix(1,0,0,1,0,0)" fill-rule="nonzero"></path></g><g clip-path="url(#SvgjsClipPath10008aa85038-52b5-4444-9f34-3714f7e78ef0)"><path d=" M 1.6149496841510178 -1.2173247574895913 C 1.6498775670713879 -1.2394439560724466 1.6792083778442732 -1.1603314939877851 1.6464870329820458 -1.1419795555041996 C 1.6137656881198181 -1.123627617020615 1.5849192393596976 -1.198380820990408 1.6149496841510178 -1.2173247574895913 Z" fill="#fcae24" transform="matrix(1,0,0,1,0,0)" fill-rule="nonzero"></path></g><g clip-path="url(#SvgjsClipPath10008aa85038-52b5-4444-9f34-3714f7e78ef0)"><path d=" M 1.8235482576477167 -1.4084862985268147 C 1.7936254488592343 -1.4041270404119457 1.7692997122182363 -1.3495555869739548 1.7835614825940427 -1.3321723725158956 C 1.792279998823778 -1.3214087722322692 1.8163904634591055 -1.3237767642946658 1.8310289598448386 -1.334325092572622 C 1.8585299585695056 -1.354237753097333 1.85750741654256 -1.4133837366558646 1.8235482576477167 -1.4084862985268147 Z" fill="#fcae24" transform="matrix(1,0,0,1,0,0)" fill-rule="nonzero"></path></g><g clip-path="url(#SvgjsClipPath10008aa85038-52b5-4444-9f34-3714f7e78ef0)"><path d=" M 1.9390416886910395 -1.8955930293623715 C 1.9813426378056964 -1.904526817597782 1.9708481275291592 -1.8518928122108447 1.9357049726031137 -1.8477488261016488 C 1.8967945575778016 -1.8432281139825246 1.9127246859975695 -1.890049775216303 1.9390416886910395 -1.8955930293623715 Z" fill="#fcae24" transform="matrix(1,0,0,1,0,0)" fill-rule="nonzero"></path></g><g clip-path="url(#SvgjsClipPath10008aa85038-52b5-4444-9f34-3714f7e78ef0)"><path d=" M 1.4830417626751649 -1.2070455192187284 C 1.5041384192310745 -1.2147953114229408 1.532984867991195 -1.1786296144699515 1.5107042154040884 -1.1395039274389664 C 1.4699101703291393 -1.068356529564189 1.4540338599107903 -1.1964971909407736 1.4830417626751649 -1.2070455192187284 Z" fill="#fcae24" transform="matrix(1,0,0,1,0,0)" fill-rule="nonzero"></path></g><g clip-path="url(#SvgjsClipPath10008aa85038-52b5-4444-9f34-3714f7e78ef0)"><path d=" M 1.5757701791186165 -1.064373997459247 C 1.596328655660345 -1.0876233740718826 1.6249060144133767 -1.0794968558577436 1.6295881805367536 -1.0405864408324312 C 1.6402979628189585 -0.9529169165222857 1.5469775483599122 -0.991934967550435 1.5757701791186165 -1.064373997459247 Z" fill="#fcae24" transform="matrix(1,0,0,1,0,0)" fill-rule="nonzero"></path></g><g clip-path="url(#SvgjsClipPath10008aa85038-52b5-4444-9f34-3714f7e78ef0)"><path d=" M 2.61321979245604 -0.9856382613845134 C 2.3328818230689663 -0.38325337151130645 1.8355496719639615 -0.22142264124696842 1.3357957107951437 -0.4131761802997902 C 0.8253319673441134 -0.6091275234632274 0.5184079052564806 -1.1986499109974986 0.6835215336073232 -1.2837361712395732 C 0.7354020869744067 -1.3236691282918307 1.170090084428699 -1.2598947966113387 1.7544997618282467 -1.4695697301364008 C 2.5473465587202417 -1.7538902316284177 2.535183690399743 -1.8858519711056894 2.620377586644651 -1.84769500810023 C 2.7218245193178383 -1.8070085990281184 2.7661167344849673 -1.3139280700351474 2.61321979245604 -0.9856382613845134 Z" fill="#f47a63" transform="matrix(1,0,0,1,0,0)" fill-rule="nonzero"></path></g><g clip-path="url(#SvgjsClipPath10008aa85038-52b5-4444-9f34-3714f7e78ef0)"><path d=" M 2.565859951208079 -1.0390257187913052 C 2.110667295213477 -0.020842949961572987 1.087748542258952 -0.334009900213712 0.7743663200011377 -0.9642186968200943 C 0.723859712897399 -1.0641514192626507 0.693625406359253 -1.1730900337461256 0.6854051636569577 -1.2847587132665175 C 0.7111514271121779 -1.294586886023001 0.7385855363888105 -1.2992323951938445 0.7661321657841619 -1.2984284856267252 C 0.9843641615347065 -0.6321616280701905 1.5249659857798947 -0.3841144595339969 1.911863597974878 -0.49541008646670415 C 2.2324036144213038 -0.5876003228959723 2.3800802103126677 -0.8924793009297183 2.4613453924540556 -1.0609296453684869 C 2.712621641075336 -1.580434813057763 2.499017993446749 -1.9021050075339667 2.620700494653159 -1.84769500810023 C 2.671343233987627 -1.8274594395670105 2.7277983174752523 -1.4011132323325306 2.565859951208079 -1.0390257187913052 Z" fill="#fff7e1" transform="matrix(1,0,0,1,0,0)" fill-rule="nonzero"></path></g><g clip-path="url(#SvgjsClipPath10008aa85038-52b5-4444-9f34-3714f7e78ef0)"><path d=" M 1.3319746326944533 -1.2243749156753676 C 1.3212110324108268 -1.220661473577516 1.3191121303555196 -1.1275025131227219 1.3490349391440046 -1.1178690908688749 C 1.4246492311364836 -1.093973898239223 1.353071289250363 -1.2316941638682355 1.3319746326944533 -1.2243749156753676 Z" fill="#49443a" transform="matrix(1,0,0,1,0,0)" fill-rule="nonzero"></path></g><g clip-path="url(#SvgjsClipPath10008aa85038-52b5-4444-9f34-3714f7e78ef0)"><path d=" M 1.4826112186638192 -0.7321016567036698 C 1.439879725537819 -0.765199727575824 1.4424091716044698 -0.6581557227551498 1.4838490326964375 -0.6372743382049126 C 1.5252888937884028 -0.6163929536546755 1.5530051645187428 -0.6776916572699334 1.4826112186638192 -0.7321016567036698 Z" fill="#49443a" transform="matrix(1,0,0,1,0,0)" fill-rule="nonzero"></path></g><g clip-path="url(#SvgjsClipPath10008aa85038-52b5-4444-9f34-3714f7e78ef0)"><path d=" M 1.7790407704749174 -1.2807223631601579 C 1.6894337981137186 -1.4555232317662674 1.6998744903888394 -1.1982731849875716 1.7671469921615102 -1.2128578633718874 C 1.8022901470875532 -1.2203923835704256 1.7951861709003607 -1.2491850143291299 1.7790407704749174 -1.2807223631601579 Z" fill="#49443a" transform="matrix(1,0,0,1,0,0)" fill-rule="nonzero"></path></g><g clip-path="url(#SvgjsClipPath10008aa85038-52b5-4444-9f34-3714f7e78ef0)"><path d=" M 1.6679065975464658 -1.0186286962538307 C 1.6541291891834242 -1.0526416731500934 1.62533655842472 -1.0885920980974086 1.6126893280914563 -1.083210297955595 C 1.6044013558730643 -1.0796583098619985 1.601010821783722 -0.9695466789604907 1.6213540263197779 -0.9577605366499182 C 1.6367997927267812 -0.9490958384215977 1.6944926902470225 -0.9530783705265398 1.6679065975464658 -1.0186286962538307 Z" fill="#49443a" transform="matrix(1,0,0,1,0,0)" fill-rule="nonzero"></path></g><g clip-path="url(#SvgjsClipPath10008aa85038-52b5-4444-9f34-3714f7e78ef0)"><path d=" M 2.162709302584815 -0.7796229519558846 C 2.1826219631095247 -0.8157348309074548 2.1147574633212542 -0.8764953545085308 2.0981277008830514 -0.8676153842745391 C 2.078645584369685 -0.8576052360107651 2.085749560556877 -0.7716578877460005 2.121161805490012 -0.7612171954708824 C 2.1375142312356936 -0.757908201587123 2.1541731521525738 -0.7652881898689534 2.162709302584815 -0.7796229519558837 Z" fill="#49443a" transform="matrix(1,0,0,1,0,0)" fill-rule="nonzero"></path></g><g clip-path="url(#SvgjsClipPath10008aa85038-52b5-4444-9f34-3714f7e78ef0)"><path d=" M 1.9830648138510745 -1.0201894182949562 C 1.922035200242907 -1.188316854725216 1.90642797983165 -0.8796167985907832 1.9858633499248193 -0.9434987662741117 C 2.0050763764310915 -0.9588368966782808 1.98839279599147 -1.005335649903551 1.9830648138510745 -1.0201894182949562 Z" fill="#49443a" transform="matrix(1,0,0,1,0,0)" fill-rule="nonzero"></path></g><g clip-path="url(#SvgjsClipPath10008aa85038-52b5-4444-9f34-3714f7e78ef0)"><path d=" M 2.3411159772859422 -1.1079127606065207 C 2.349942129518515 -1.136543937360969 2.2861139798366055 -1.2097902372910532 2.268946037384219 -1.2033858951222958 C 2.2440821207290402 -1.1940753808769582 2.2581824371005927 -1.0822953919314875 2.3047350083272806 -1.0803041258790156 C 2.321419539949445 -1.0810565423392609 2.335901142747167 -1.0920462793736276 2.3411159772859444 -1.1079127606065207 Z" fill="#49443a" transform="matrix(1,0,0,1,0,0)" fill-rule="nonzero"></path></g><g clip-path="url(#SvgjsClipPath10008aa85038-52b5-4444-9f34-3714f7e78ef0)"><path d=" M 2.458439220377478 -1.4727449922200702 C 2.3561850176830186 -1.6355982645113523 2.394341980688477 -1.4126841026374295 2.4228117034386707 -1.4009517783282752 C 2.440302553899565 -1.3937939841396638 2.5002019894779512 -1.4066564864785978 2.458439220377478 -1.4727449922200702 Z" fill="#49443a" transform="matrix(1,0,0,1,0,0)" fill-rule="nonzero"></path></g><g clip-path="url(#SvgjsClipPath10008aa85038-52b5-4444-9f34-3714f7e78ef0)"><path d=" M 2.61321979245604 -0.9856382613845134 C 2.3328818230689663 -0.38325337151130645 1.8355496719639615 -0.22142264124696842 1.3357957107951437 -0.4131761802997902 C 0.825654875352624 -0.6090198874603905 0.5131875591189202 -1.2046237091549117 0.6869658856980841 -1.2856198012892077 C 0.8096709289314372 -0.5729618265102383 2.0046458324197483 0.12209766180499937 2.5320084283160735 -1.059584195333033 C 2.743782263896442 -1.53398987783391 2.577215549507308 -1.8672309426150142 2.6205928586503293 -1.8478026441030664 C 2.740714637815605 -1.799258806823906 2.747118979984365 -1.2731340249602008 2.61321979245604 -0.9856382613845134 Z" fill="#2c858d" transform="matrix(1,0,0,1,0,0)" fill-rule="nonzero"></path></g><g clip-path="url(#SvgjsClipPath10008aa85038-52b5-4444-9f34-3714f7e78ef0)"><path d=" M 1.0905470783326918 -1.1439708215566715 C 1.061915901578244 -1.1898775767663419 1.027149472662128 -1.0885920980974086 1.0587944574959935 -1.0545791212011464 C 1.0904394423298591 -1.0205661443048832 1.1376378295735632 -1.0686256195712804 1.0905470783326918 -1.1439708215566715 Z" fill="#49443a" transform="matrix(1,0,0,1,0,0)" fill-rule="nonzero"></path></g><g clip-path="url(#SvgjsClipPath10008aa85038-52b5-4444-9f34-3714f7e78ef0)"><path d=" M 2.115672369345365 -1.4208644388529865 C 2.0729408762193646 -1.4539625097251407 2.0754703222860154 -1.3469185049044665 2.1169101833779833 -1.3260371203542287 C 2.1583500444699513 -1.305155735803992 2.1860124971988695 -1.3664544394192497 2.115672369345365 -1.4208644388529865 Z" fill="#49443a" transform="matrix(1,0,0,1,0,0)" fill-rule="nonzero"></path></g><g clip-path="url(#SvgjsClipPath10008aa85038-52b5-4444-9f34-3714f7e78ef0)"><path d=" M 1.2754119132039927 -0.8542685199228406 C 1.2953245737287027 -0.8903803988744108 1.2274600739404322 -0.9511409224754872 1.2108303115022292 -0.9423147702429122 C 1.1913481949888625 -0.9323046219791382 1.1984521711760576 -0.8463034557129561 1.2338644161091923 -0.8358627634378375 C 1.2502168418548714 -0.832553769554079 1.266875762771754 -0.8399337578359098 1.2754119132039927 -0.8542685199228401 Z" fill="#49443a" transform="matrix(1,0,0,1,0,0)" fill-rule="nonzero"></path></g><g clip-path="url(#SvgjsClipPath10008aa85038-52b5-4444-9f34-3714f7e78ef0)"><path d=" M 1.8116544793343097 -0.621936207800744 C 1.8204806315668824 -0.6505673845551923 1.756598663883554 -0.7238136844852772 1.7394307214311702 -0.7174093423165191 C 1.7145668047759917 -0.7080988280711806 1.728667121147544 -0.5963188391257108 1.775273510375648 -0.5943275730732389 C 1.7919525506278273 -0.595095158241131 1.8064265135710815 -0.6060790975752859 1.8116544793343097 -0.621936207800744 Z" fill="#49443a" transform="matrix(1,0,0,1,0,0)" fill-rule="nonzero"></path></g><g clip-path="url(#SvgjsClipPath10008aa85038-52b5-4444-9f34-3714f7e78ef0)"><path d=" M 0.8270541433894939 -0.680759283350767 C 0.8086849024545802 -0.678667834281891 0.7927919776630541 -0.6670165261586285 0.7852710098427472 -0.6501275293033251 C 0.7777500420224429 -0.6332385324480212 0.7797229647478721 -0.6136312476963846 0.7904579024251571 -0.5985791951852715 C 0.7718607169410909 -0.5986721332855311 0.7549631541339391 -0.5877744287465374 0.7473765223974138 -0.570794824383841 C 0.7397898906608911 -0.5538152200211441 0.7429456726545056 -0.5339575103584027 0.7554223835019545 -0.5201663671190468 C 0.7146283384270052 -0.47840359801857213 0.7263606627361557 -0.41209982027142766 0.793094984494648 -0.42388596258199973 C 0.8012700049377998 -0.41055609352685085 0.8159094155727246 -0.4025709140342668 0.8315426621748396 -0.402914380118367 C 0.8471759087769495 -0.4032578462024672 0.8614504903609556 -0.4118782728664101 0.869032184495635 -0.4255543206259622 C 0.8785532623885854 -0.4153012907888525 0.8923416160030415 -0.41012241864067 0.9062582756149361 -0.41157229116297467 C 0.9201749352268307 -0.41302216368527755 0.9325996762421053 -0.4209319818138959 0.9398028563604882 -0.4329273868202468 C 0.9502974272009083 -0.4222796033710403 0.9660094341449008 -0.4186741998007175 0.9800963068647249 -0.42368132736861597 C 0.994183179584549 -0.4286884549365144 1.004094789544145 -0.44140167974857025 1.0055146360920348 -0.4562843994357184 C 1.0142330901258636 -0.44644188273000296 1.02745245533789 -0.44185715294634287 1.0403928531958009 -0.44418796377546643 C 1.0533332510537168 -0.44651877460459044 1.06412212745049 -0.45542784357352106 1.0688584237611825 -0.46769381573636304 C 1.0825220876660266 -0.4629613639826382 1.0974830338530217 -0.4698735533690366 1.1027358787611943 -0.48334572584702107 C 1.1079887236693666 -0.49681789832500556 1.1016552279501879 -0.5120328615158516 1.0883943582759654 -0.5177983750566497 C 1.0914514117029321 -0.528656040941959 1.090021981141114 -0.5402864391464219 1.0844267097035758 -0.5500806936699973 C 1.0788314382660373 -0.5598749481935736 1.069538701954076 -0.5670131892907753 1.058633003491737 -0.5698942004294061 C 1.0640858363384815 -0.5828081994629994 1.0624479219727445 -0.5976265961378022 1.0543063448301049 -0.6090379711086209 C 1.0461647676874626 -0.6204493460794387 1.0326855283469907 -0.6268194128203444 1.0187000464394793 -0.625864921904268 C 1.0245841311835782 -0.6413363607103979 1.0209664909016092 -0.6588158734700991 1.0094247498306654 -0.6706807832910289 C 0.9978830087597241 -0.6825456931119596 0.9805100351523003 -0.6866445314305523 0.9648820450213397 -0.6811898273621138 C 0.9716475642003666 -0.6959907774247189 0.9689425832495656 -0.7133994156196257 0.9580048914378444 -0.7254496135578061 C 0.9470671996261256 -0.7374998114959865 0.930001121683908 -0.7418732071350322 0.914616031696799 -0.7365685508213757 C 0.8686016404842944 -0.7798920419629751 0.8131152810221957 -0.7349540107788313 0.8270541433894939 -0.680759283350767 Z" fill="#1d3f75" transform="matrix(1,0,0,1,0,0)" fill-rule="nonzero"></path></g><g clip-path="url(#SvgjsClipPath10008aa85038-52b5-4444-9f34-3714f7e78ef0)"><path d=" M 0.8483660719510764 -0.6499753865395932 C 0.8433609978191888 -0.6372205202034951 0.8723689005835661 -0.6230663858305245 0.8793114227665045 -0.6338299861141521 C 0.8880299389962448 -0.6478226664828672 0.8552009581311797 -0.6673047829962329 0.8483660719510764 -0.6499753865395932 Z" fill="#3363a8" transform="matrix(1,0,0,1,0,0)" fill-rule="nonzero"></path></g><g clip-path="url(#SvgjsClipPath10008aa85038-52b5-4444-9f34-3714f7e78ef0)"><path d=" M 0.9099338655734245 -0.6990574038329336 C 0.8953491871891102 -0.7053002919974376 0.8917971990955139 -0.6970123197790445 0.8937884651479837 -0.6911461576244671 C 0.9033680694004105 -0.6628917068799458 0.951104636658298 -0.6814589173692029 0.9099338655734245 -0.6990574038329336 Z" fill="#3363a8" transform="matrix(1,0,0,1,0,0)" fill-rule="nonzero"></path></g><g clip-path="url(#SvgjsClipPath10008aa85038-52b5-4444-9f34-3714f7e78ef0)"><path d=" M 0.9337214222002413 -0.6380816082261846 C 0.935712688252711 -0.6473921224715231 0.9118174956230616 -0.6635913408983818 0.9086422335393898 -0.6488452085098122 C 0.9054669714557179 -0.6340990761212426 0.9309767041279152 -0.6254343778929226 0.9337214222002413 -0.6380816082261846 Z" fill="#3363a8" transform="matrix(1,0,0,1,0,0)" fill-rule="nonzero"></path></g><g clip-path="url(#SvgjsClipPath10008aa85038-52b5-4444-9f34-3714f7e78ef0)"><path d=" M 0.962406416956108 -0.6527201046119178 C 0.9593387908752712 -0.6454008564190512 0.9717169312014455 -0.6324845360786981 0.9831801655035094 -0.6318387200616797 C 1.014825150337375 -0.6300627260148826 0.972255111215629 -0.6757542092188809 0.962406416956108 -0.6527201046119178 Z" fill="#3363a8" transform="matrix(1,0,0,1,0,0)" fill-rule="nonzero"></path></g><g clip-path="url(#SvgjsClipPath10008aa85038-52b5-4444-9f34-3714f7e78ef0)"><path d=" M 0.9307614321222449 -0.5850170588279013 C 0.9301156161052262 -0.5696789284237327 0.9493286426115037 -0.5638665842705737 0.9498130046242633 -0.5725312824988937 C 0.9502435486356091 -0.5839406987995388 0.9311381581321718 -0.5954039331016014 0.9307614321222449 -0.5850170588279013 Z" fill="#3363a8" transform="matrix(1,0,0,1,0,0)" fill-rule="nonzero"></path></g><g clip-path="url(#SvgjsClipPath10008aa85038-52b5-4444-9f34-3714f7e78ef0)"><path d=" M 1.0108964362338493 -0.6028846352987234 C 1.0051917280835267 -0.5926053970278593 1.0231669405571835 -0.5740381865386022 1.0282258326904898 -0.5870621428817913 C 1.031724002782667 -0.5961573851214559 1.0161706003728261 -0.6124104215497335 1.0108964362338493 -0.6028846352987234 Z" fill="#3363a8" transform="matrix(1,0,0,1,0,0)" fill-rule="nonzero"></path></g><g clip-path="url(#SvgjsClipPath10008aa85038-52b5-4444-9f34-3714f7e78ef0)"><path d=" M 0.9927597697559363 -0.5769981766165992 C 0.9879161496283052 -0.5853937848378292 0.9766143693304954 -0.5823799767584124 0.9766143693304954 -0.5780745366449618 C 0.9762914613219873 -0.5555247940507622 1.0010477419743307 -0.5627364062407931 0.9927597697559363 -0.5769981766165992 Z" fill="#3363a8" transform="matrix(1,0,0,1,0,0)" fill-rule="nonzero"></path></g><g clip-path="url(#SvgjsClipPath10008aa85038-52b5-4444-9f34-3714f7e78ef0)"><path d=" M 1.051206119296034 -0.5565473360777071 C 1.0380745269500085 -0.5591306001457781 1.0395276129882998 -0.5183903730722483 1.0547581073896302 -0.5296383353686385 C 1.0618082655754089 -0.5350739535118705 1.0572337354548644 -0.5553633400465081 1.051206119296034 -0.5565473360777071 Z" fill="#3363a8" transform="matrix(1,0,0,1,0,0)" fill-rule="nonzero"></path></g><g clip-path="url(#SvgjsClipPath10008aa85038-52b5-4444-9f34-3714f7e78ef0)"><path d=" M 0.8766205226955972 -0.7183242483406267 C 0.8748983466502167 -0.7231140504668407 0.8642962003708443 -0.7237060484824402 0.8582147662105949 -0.7216071464271341 C 0.8469668039142039 -0.7141802622314302 0.8824866848501763 -0.702178847915186 0.8766205226955972 -0.7183242483406267 Z" fill="#3363a8" transform="matrix(1,0,0,1,0,0)" fill-rule="nonzero"></path></g><g clip-path="url(#SvgjsClipPath10008aa85038-52b5-4444-9f34-3714f7e78ef0)"><path d=" M 0.7904579024251597 -0.5985791951852715 C 0.7797229647478721 -0.6136312476963846 0.7777500420224429 -0.6332385324480212 0.7852710098427472 -0.6501275293033251 C 0.7927919776630541 -0.6670165261586285 0.8086849024545802 -0.678667834281891 0.8270541433894888 -0.680759283350767 C 0.8220013566112884 -0.698884341238089 0.8254456924401987 -0.7183230641345895 0.8364184756362478 -0.7336085607433773 C 0.8202730752108071 -0.763262279524771 0.8061727588392548 -0.755512487320559 0.8070338468619462 -0.6979810438045706 C 0.7488565873289378 -0.7686440796665845 0.7282442927857928 -0.7374296388440649 0.7608041836437663 -0.6556800946899148 C 0.6298649861934401 -0.7247824085108028 0.6253442740743171 -0.7045468399775832 0.7357249949829148 -0.6077820734277726 C 0.5796527908703182 -0.5626825882393747 0.5830971429610766 -0.5418012036891366 0.7295359248198277 -0.5437924697416077 C 0.6434271225508089 -0.47974904805402474 0.6581732549393773 -0.46936217378032463 0.7377162610353845 -0.49401081842983086 C 0.7419702581393949 -0.503738146329229 0.7479714925266835 -0.5126031916551286 0.7554223835019519 -0.5201663671190455 C 0.7429456726545005 -0.5339575103584022 0.7397898906608859 -0.5538152200211428 0.7473765223974113 -0.570794824383841 C 0.7549631541339366 -0.5877744287465387 0.7718607169410884 -0.5986721332855311 0.7904579024251597 -0.5985791951852715 Z" fill="#2c858d" transform="matrix(1,0,0,1,0,0)" fill-rule="nonzero"></path></g><g clip-path="url(#SvgjsClipPath10008aa85038-52b5-4444-9f34-3714f7e78ef0)"><path d=" M 2.6679526998982848 -0.3814235594630895 C 2.357530467718472 -0.076706035433598 1.8504034403553702 -0.43917027498475036 2.0173468807544284 -0.8297813292775884 C 2.1496315282402105 -1.145208635589289 2.657781097630256 -1.1174385468575303 2.7676774565260938 -0.7806993119842471 C 2.811915749951264 -0.639436375975881 2.773417051251041 -0.48529614626354656 2.6679526998982874 -0.3814235594630899 Z" fill="#f59628" transform="matrix(1,0,0,1,0,0)" fill-rule="nonzero"></path></g><g clip-path="url(#SvgjsClipPath10008aa85038-52b5-4444-9f34-3714f7e78ef0)"><path d=" M 2.6388371611310726 -0.4585985734966975 C 2.563008382990116 -0.3772033813651072 2.4512796531515724 -0.3394810162172419 2.3416314296459664 -0.35825461412903303 C 2.2319832061403577 -0.3770282120408237 2.139168097040458 -0.4497718813630147 2.0947371667937094 -0.5517575339514926 C 2.0392633132131714 -0.6766204068621016 2.072258361526292 -0.8230872278013956 2.175913263210788 -0.9121026580331444 C 2.279568164895286 -1.0011180882648927 2.4293387876699946 -1.0116044319043138 2.544386568642243 -0.9379016941266252 C 2.6264937539514372 -0.8920179756254307 2.684299829170678 -0.8123818771757616 2.7024850040347967 -0.720098590942245 C 2.7206701788989127 -0.627815304708728 2.6973983989771213 -0.5322021530620566 2.63883716113107 -0.4585985734966975 Z" fill="#f9a755" transform="matrix(1,0,0,1,0,0)" fill-rule="nonzero"></path></g><g clip-path="url(#SvgjsClipPath10008aa85038-52b5-4444-9f34-3714f7e78ef0)"><path d=" M 2.691040622506664 -0.7971138024167796 C 2.513441217826812 -1.182396874569222 1.8795727971239988 -0.9481271143960712 2.08887100463913 -0.5220499971686814 C 2.2914957799784172 -0.10969647030291663 2.867294577151065 -0.41495217434658915 2.691040622506664 -0.7971138024167796 Z M 2.6442189612728844 -0.4991235285645548 C 2.5849530137910652 -0.410081785454536 2.4836894181093747 -0.3582170261126443 2.3767999741345904 -0.3621580048932693 C 2.2699105301598057 -0.3660989836738944 2.172741152223889 -0.42527990174318875 2.1201930814644854 -0.5184441910736659 C 2.0780631860641106 -0.5841025656751473 2.0647336880659344 -0.664176923610813 2.083321566478803 -0.739942621772073 C 2.1019094448916715 -0.8157083199333344 2.1507847945819085 -0.8805217329614221 2.2185185700554215 -0.9192268476345316 C 2.4683955506398316 -1.069863433603897 2.8207958239257933 -0.7818833080154466 2.6442189612728844 -0.4991235285645548 Z" fill="#fff7e1" transform="matrix(1,0,0,1,0,0)" fill-rule="nonzero"></path></g><g clip-path="url(#SvgjsClipPath10008aa85038-52b5-4444-9f34-3714f7e78ef0)"><path d=" M 2.3401472532604126 -0.917127945579225 C 2.3192120507087575 -0.8967309230417508 2.3257778468817714 -0.8626103101426521 2.338102169206524 -0.7987283424593237 C 2.3479508634660426 -0.7475474231106758 2.3591450077610148 -0.6894777995805055 2.3832016543949233 -0.6866792635067624 C 2.416730269278421 -0.6826967314018204 2.4514966981945396 -0.7886643761941321 2.462852296493766 -0.8232693511059943 C 2.4783518809021907 -0.8706291923539542 2.4751228008171022 -0.8841913287113252 2.471032632709323 -0.8928022089382273 C 2.441283790576471 -0.9351625238870622 2.3831295774047554 -0.9459707904798318 2.3401472532604126 -0.917127945579225 Z" fill="#fff7e1" transform="matrix(1,0,0,1,0,0)" fill-rule="nonzero"></path></g><g clip-path="url(#SvgjsClipPath10008aa85038-52b5-4444-9f34-3714f7e78ef0)"><path d=" M 2.426686599540777 -0.6743549411820084 C 2.415922999257151 -0.6858181754840715 2.438149833842841 -0.7060537440172916 2.4946587353318828 -0.8276286092208625 C 2.5054223356155094 -0.8510394398377525 2.513495035828231 -0.8691761063156642 2.5314702483018903 -0.8746655424603138 C 2.558917429025138 -0.8831149686829614 2.5914773198831145 -0.8565826939838201 2.6071383582957903 -0.8337638613825296 C 2.624413407802635 -0.8107246630158591 2.629281010273132 -0.7806742576814552 2.6201623146389785 -0.7533597672638335 C 2.610959436396481 -0.7359765528057753 2.5947063999682025 -0.7302718446554524 2.5604243330648484 -0.7176246143221898 C 2.4435854519860745 -0.6745163951862629 2.4336291217237185 -0.6670356929891423 2.426686599540777 -0.6743549411820084 Z" fill="#fff7e1" transform="matrix(1,0,0,1,0,0)" fill-rule="nonzero"></path></g><g clip-path="url(#SvgjsClipPath10008aa85038-52b5-4444-9f34-3714f7e78ef0)"><path d=" M 2.2599584311473895 -0.8978072830701134 C 2.2832078077600255 -0.8889811308375384 2.2892892419202746 -0.8615339501142882 2.3043044643159347 -0.8128824768322929 C 2.334657817115763 -0.7146646242441927 2.350587945535534 -0.6936217856897025 2.3405239792703396 -0.685656721479817 C 2.33132110102784 -0.678283655285532 2.2979539401485938 -0.7004028538683866 2.2315425263986146 -0.744856523039767 C 2.1679834667237943 -0.7875341981643502 2.1597493125068183 -0.7975981644295418 2.1577042284529298 -0.8118061168039299 C 2.15873239833412 -0.8486551480794886 2.1822228112740416 -0.8811146277782909 2.2169040300128815 -0.8936094789594984 C 2.230195127556531 -0.9004477576803955 2.245596743541989 -0.9019494152389784 2.2599584311473895 -0.8978072830701134 Z" fill="#fff7e1" transform="matrix(1,0,0,1,0,0)" fill-rule="nonzero"></path></g><g clip-path="url(#SvgjsClipPath10008aa85038-52b5-4444-9f34-3714f7e78ef0)"><path d=" M 2.4209818913904546 -0.3905188017027541 C 2.435351297769099 -0.4056416601012516 2.4286240475918306 -0.44100008703296734 2.4146313672231163 -0.5111249428807993 C 2.4003695968473098 -0.5824337947598308 2.393104166655861 -0.6180613116986371 2.3791653042885628 -0.6198373057454356 C 2.3586606457482553 -0.6223667518120877 2.3372410811838353 -0.5633822222578098 2.3083408144222957 -0.4837315801589681 C 2.2913881439755848 -0.4370175549280253 2.290580873954312 -0.42415505258909025 2.296231764103216 -0.41231509227710017 C 2.325144821275529 -0.37261561171846935 2.3803201848135664 -0.3629753950519867 2.4209818913904546 -0.3905188017027541 Z" fill="#fff7e1" transform="matrix(1,0,0,1,0,0)" fill-rule="nonzero"></path></g><g clip-path="url(#SvgjsClipPath10008aa85038-52b5-4444-9f34-3714f7e78ef0)"><path d=" M 2.433952029732226 -0.6445935863977792 C 2.435028389760588 -0.6580480867523133 2.463767202517871 -0.6594473547891848 2.5469698327103147 -0.687163625519525 C 2.6160721465312013 -0.7102515481279057 2.6273201088275924 -0.7194544263704068 2.640989881187801 -0.7116508161647777 C 2.6796312062060244 -0.689101073570578 2.6684908799124685 -0.5654273063116997 2.6236066667297417 -0.5491204518820041 C 2.6095063503581923 -0.543738651740191 2.6005725621227818 -0.5526724399756016 2.5357218704139264 -0.5859319648520098 C 2.4565555903278433 -0.6262954659156121 2.4329294877052807 -0.6322154460716076 2.433952029732226 -0.6445935863977792 Z" fill="#fff7e1" transform="matrix(1,0,0,1,0,0)" fill-rule="nonzero"></path></g><g clip-path="url(#SvgjsClipPath10008aa85038-52b5-4444-9f34-3714f7e78ef0)"><path d=" M 2.4170531772869293 -0.6188147637184915 C 2.426040783523756 -0.624788561875905 2.4385803778541817 -0.6117646055327155 2.4908376572311948 -0.5804963467087778 C 2.576246825481776 -0.5292616093587115 2.5995500200958284 -0.5297459713714749 2.6033172801951 -0.5089184048226558 C 2.6112285264035653 -0.46527200567254656 2.52097573802535 -0.39703077987434954 2.480666054963166 -0.4168896223976417 C 2.4699024546795396 -0.4222714225394557 2.4658661045731787 -0.4321201167989748 2.45510250428955 -0.46392655563709395 C 2.4217891614117275 -0.5618753182181035 2.405374670979195 -0.611172607517116 2.4170531772869293 -0.6188147637184915 Z" fill="#fff7e1" transform="matrix(1,0,0,1,0,0)" fill-rule="nonzero"></path></g><g clip-path="url(#SvgjsClipPath10008aa85038-52b5-4444-9f34-3714f7e78ef0)"><path d=" M 2.335895631148379 -0.6273180079425571 C 2.3407930692774315 -0.6222052978078345 2.3396628912476483 -0.6132715095724235 2.2817009037203153 -0.4974551705205932 C 2.25877443511619 -0.4516022333123404 2.252908272961611 -0.44100008703296734 2.240153406625515 -0.43777100694787974 C 2.2024808056328187 -0.42840667470112326 2.140643922003379 -0.4919119163745256 2.151838066298351 -0.5342666834905994 C 2.1538831503522395 -0.5419088396919745 2.159318768495473 -0.5528338939798569 2.2150203999632416 -0.5827028847669231 C 2.281055087703299 -0.6178998576943835 2.323356036817953 -0.6405034182900007 2.335895631148379 -0.6273180079425571 Z" fill="#fff7e1" transform="matrix(1,0,0,1,0,0)" fill-rule="nonzero"></path></g><g clip-path="url(#SvgjsClipPath10008aa85038-52b5-4444-9f34-3714f7e78ef0)"><path d=" M 2.3187815066974142 -0.6566488187154422 C 2.319588776718684 -0.6708567710898299 2.295047768072016 -0.6755389372132079 2.217603664031316 -0.7202616963916797 C 2.1621711225706366 -0.7522295892340525 2.15420605836075 -0.761701557483645 2.140859194009054 -0.7572884813673584 C 2.0991502429099995 -0.7435648910057338 2.0843502925200097 -0.6215056637893994 2.1247137935836107 -0.5961573851214559 C 2.1312795897566246 -0.5921210350150958 2.1403748319962896 -0.5899144969569527 2.200058995569003 -0.6069209854050839 C 2.2786332776394835 -0.6295783640021191 2.317866600673306 -0.6405572362914183 2.3187815066974142 -0.6566488187154422 Z" fill="#fff7e1" transform="matrix(1,0,0,1,0,0)" fill-rule="nonzero"></path></g><g clip-path="url(#SvgjsClipPath10008aa85038-52b5-4444-9f34-3714f7e78ef0)"><path d=" M 1.3908515262458943 -0.470330897805852 C 1.3942073817020084 -0.48920271122787407 1.387334604500503 -0.5084422947059046 1.3727812752770907 -0.5209165768973989 C 1.3582279460536832 -0.5333908590888936 1.3381635799857494 -0.5372402555560978 1.3200270363796298 -0.53103760340551 C 1.325834251963698 -0.5494992291204168 1.3200942547692585 -0.5696457213671433 1.3054289876248435 -0.5822744709671652 C 1.290763720480426 -0.5949032205671863 1.2699884810517166 -0.5975898810071087 1.2525930806027001 -0.5891072269356785 C 1.223154633826982 -0.6420103223297082 1.1538908660018419 -0.6500292045410108 1.1457643477877013 -0.5803348927045233 C 1.1301140488796402 -0.5761449602847897 1.117858290999707 -0.5639717987492312 1.1135626254864583 -0.5483501904007944 C 1.1092669599732121 -0.5327285820523575 1.1135754040153503 -0.5160005584716076 1.1248829632374697 -0.5043976927035323 C 1.1118913994921589 -0.49796075082923696 1.1026775278060592 -0.48579561317389297 1.1000010958958844 -0.4715459934782107 C 1.0973246639857095 -0.45729637378252885 1.101496484180115 -0.44261707128251615 1.1112670088786745 -0.4319048447933014 C 1.0975878688180623 -0.4246377287851404 1.0893542539593197 -0.4101069971138718 1.090150208580306 -0.39463779208855243 C 1.0909461632012976 -0.379168587063234 1.1006276798066097 -0.36555966305119014 1.1149804509765298 -0.35973490489158033 C 1.1027201949036278 -0.3538879387734122 1.0943434026560586 -0.3421300756074954 1.0928217740178012 -0.3286324632983719 C 1.091300145379549 -0.31513485098924976 1.096848957947285 -0.30180711023263695 1.1074997487794078 -0.29337730914301785 C 1.0997468298137694 -0.28120255300537345 1.102524979574516 -0.26512852455500147 1.1139145187300732 -0.25626224927601093 C 1.1253040578856333 -0.2473959739970195 1.141568418004793 -0.2486462126265594 1.1514690559380263 -0.2591490602410831 C 1.1613370674717156 -0.2528759865421586 1.1733135954164766 -0.25083588248098554 1.1847019586459666 -0.25348810573976355 C 1.1960903218754537 -0.2561403289985429 1.2059331909309337 -0.26326192818332794 1.2120143075334315 -0.27324937661263515 C 1.2232252644387505 -0.26402214266060886 1.238416384404521 -0.2612618444563961 1.252156795758991 -0.265955297018019 C 1.2658972071134658 -0.27064874957964236 1.2762251159188471 -0.2821258429267557 1.279448263310356 -0.29628348121959736 C 1.2931014011817863 -0.2858358781327355 1.311575007752845 -0.28425625901726104 1.3268036612540512 -0.2922342723374536 C 1.3420323147552553 -0.30021228565764524 1.3512507233732267 -0.3162992455582736 1.350434207180877 -0.3334717201995301 C 1.3631275699927328 -0.3223498489308314 1.3812272258498408 -0.31986159166887607 1.396450937581741 -0.3271455522052147 C 1.4116746493136363 -0.33442951274155197 1.4210935391013466 -0.35008433568895336 1.4203976090244574 -0.36694651708161086 C 1.4438543666155441 -0.37877420474466517 1.455599554621679 -0.40559922715354935 1.4483808899439137 -0.43085797914987456 C 1.4411622252661513 -0.4561167311462002 1.4170159075255244 -0.47268436851865925 1.3908515262458943 -0.470330897805852 Z" fill="#1d3f75" transform="matrix(1,0,0,1,0,0)" fill-rule="nonzero"></path></g><g clip-path="url(#SvgjsClipPath10008aa85038-52b5-4444-9f34-3714f7e78ef0)"><path d=" M 1.3538785592716356 -0.458275665488189 C 1.3426844149766608 -0.4670479997193451 1.320080854381046 -0.4421302650627479 1.328907006613619 -0.4322815708032288 C 1.3400473329071725 -0.41952670446713025 1.3691090536729684 -0.4463818871747809 1.3538785592716356 -0.458275665488189 Z" fill="#3363a8" transform="matrix(1,0,0,1,0,0)" fill-rule="nonzero"></path></g><g clip-path="url(#SvgjsClipPath10008aa85038-52b5-4444-9f34-3714f7e78ef0)"><path d=" M 1.3844471840771393 -0.38255373749287 C 1.3952107843607657 -0.39520096782613257 1.3877300821636438 -0.40122858398496364 1.381379557996305 -0.4009594939778731 C 1.350434207180877 -0.399775497946675 1.354739647294327 -0.34687240255264573 1.3844471840771393 -0.38255373749287 Z" fill="#3363a8" transform="matrix(1,0,0,1,0,0)" fill-rule="nonzero"></path></g><g clip-path="url(#SvgjsClipPath10008aa85038-52b5-4444-9f34-3714f7e78ef0)"><path d=" M 1.3169594102987932 -0.3770104833468024 C 1.3255702905256983 -0.3722744992220073 1.3487658491369128 -0.3912184357211905 1.3348269867696145 -0.39880677392114805 C 1.3208881244023163 -0.406395112121106 1.305065631985386 -0.383522461518397 1.3169594102987932 -0.3770104833468024 Z" fill="#3363a8" transform="matrix(1,0,0,1,0,0)" fill-rule="nonzero"></path></g><g clip-path="url(#SvgjsClipPath10008aa85038-52b5-4444-9f34-3714f7e78ef0)"><path d=" M 1.3228255724533697 -0.3441815024817392 C 1.316475048286031 -0.3495633026235523 1.3000067398520823 -0.34095242239665113 1.2959165717443024 -0.3297582781016781 C 1.2847762454507465 -0.29902819929192237 1.3431149589880091 -0.32755174004353504 1.3228255724533697 -0.3441815024817392 Z" fill="#3363a8" transform="matrix(1,0,0,1,0,0)" fill-rule="nonzero"></path></g><g clip-path="url(#SvgjsClipPath10008aa85038-52b5-4444-9f34-3714f7e78ef0)"><path d=" M 1.2649712209288744 -0.39590060184456854 C 1.2499559985332143 -0.4012824019863821 1.2384389462297314 -0.3837377335240699 1.246942190453799 -0.3806701074432355 C 1.2580825167473522 -0.3764184853312025 1.2751428231969035 -0.3922409777481355 1.2649712209288744 -0.39590060184456854 Z" fill="#3363a8" transform="matrix(1,0,0,1,0,0)" fill-rule="nonzero"></path></g><g clip-path="url(#SvgjsClipPath10008aa85038-52b5-4444-9f34-3714f7e78ef0)"><path d=" M 1.2589436047700437 -0.31086815960391245 C 1.2504403605459764 -0.3195328578322325 1.2266528039191595 -0.30720853550747895 1.2381160382212235 -0.29832856527348595 C 1.2462425564353614 -0.2921394951104008 1.266854850978509 -0.302741641389773 1.2589436047700437 -0.31086815960391245 Z" fill="#3363a8" transform="matrix(1,0,0,1,0,0)" fill-rule="nonzero"></path></g><g clip-path="url(#SvgjsClipPath10008aa85038-52b5-4444-9f34-3714f7e78ef0)"><path d=" M 1.2386542182354043 -0.3367008002846177 C 1.2483952764920878 -0.3390687923470157 1.2486105484977605 -0.3512854786689328 1.244520380389981 -0.3525232927015498 C 1.2221320918000367 -0.3592505428788173 1.2219706377957826 -0.3325029961740036 1.2386542182354043 -0.3367008002846177 Z" fill="#3363a8" transform="matrix(1,0,0,1,0,0)" fill-rule="nonzero"></path></g><g clip-path="url(#SvgjsClipPath10008aa85038-52b5-4444-9f34-3714f7e78ef0)"><path d=" M 1.2009816172427108 -0.2845511569104433 C 1.207439777412887 -0.29676784323236083 1.1665380963351029 -0.3074776255145695 1.173319164513787 -0.2889104150253128 C 1.1762791545917861 -0.2803533527998283 1.197806355159039 -0.2789002667615388 1.2009816172427108 -0.2845511569104433 Z" fill="#3363a8" transform="matrix(1,0,0,1,0,0)" fill-rule="nonzero"></path></g><g clip-path="url(#SvgjsClipPath10008aa85038-52b5-4444-9f34-3714f7e78ef0)"><path d=" M 1.4134550868415139 -0.4098932822132837 C 1.4188368869833283 -0.4102161902217927 1.4225503290811787 -0.4206568824969117 1.4221736030712517 -0.4272764966713418 C 1.4180834349634746 -0.44062336102304034 1.3956951463735303 -0.4088707401863396 1.4134550868415139 -0.4098932822132837 Z" fill="#3363a8" transform="matrix(1,0,0,1,0,0)" fill-rule="nonzero"></path></g><g clip-path="url(#SvgjsClipPath10008aa85038-52b5-4444-9f34-3714f7e78ef0)"><path d=" M 1.3200270363796298 -0.5310376034055104 C 1.3381635799857494 -0.5372402555560978 1.3582279460536832 -0.5333908590888936 1.3727812752770907 -0.5209165768973989 C 1.387334604500503 -0.5084422947059046 1.3942073817020084 -0.48920271122787407 1.3908515262458943 -0.47033089780585113 C 1.4103283741684276 -0.4699251873982555 1.4285813751992609 -0.4607492475517714 1.4405255415548353 -0.44535934514783637 C 1.4748614264596054 -0.4527862293435394 1.471255620364593 -0.46887781176756205 1.413616540845768 -0.4850770301944216 C 1.5010707931502403 -0.5219423611658449 1.4761530584936402 -0.5516498979486566 1.3853082720998258 -0.543577197735936 C 1.4929442749360997 -0.6530968306218448 1.4740003384369191 -0.6635913408983818 1.345213861043314 -0.5827028847669222 C 1.3467745830844404 -0.7513685012113629 1.3249244745086772 -0.7538441292765978 1.283430795415293 -0.6077820734277735 C 1.2454352864140863 -0.7124042681846321 1.2306891540255178 -0.7007795798783141 1.2316040600496256 -0.6144555056036225 C 1.2400017510368824 -0.607343316635252 1.2470244679335973 -0.5987518889512242 1.2523239905956083 -0.5891072269356799 C 1.2697412966775092 -0.5977592522818793 1.2906445209679265 -0.5951548379387952 1.3054063110578225 -0.5824934933386401 C 1.3201681011477155 -0.5698321487384845 1.3259255793067155 -0.5495693946054798 1.3200270363796247 -0.53103760340551 Z" fill="#2c858d" transform="matrix(1,0,0,1,0,0)" fill-rule="nonzero"></path></g></g></g><defs><clipPath id="SvgjsClipPath1001"><path d=" M 0.06488360730584031 -3.149821552412053 h 3.599724660854924 v 2.899821552412053 h -3.599724660854924 Z"></path></clipPath><clipPath id="SvgjsClipPath10008aa85038-52b5-4444-9f34-3714f7e78ef0"><path d=" M 0.06488360730584031 -3.149821552412053 L 3.664608268160764 -3.149821552412053 L 3.664608268160764 -0.25 L 0.06488360730584031 -0.25 Z"></path></clipPath></defs></svg>