<svg xmlns="http://www.w3.org/2000/svg" version="1.1"
     viewBox="0 0 12.998429155940364 13.071711499693627"><g transform="matrix(1,0,0,1,1.0862507107826822,10.711779148285945)"><rect width="13.071711499693627" height="13.071711499693627" x="-1.1228918826593137" y="-10.711779148285945" fill="#fffcf7"></rect><g><path d=" M 0.10693359375 0.010986328125 L 0.296630859375 0.010986328125 Q 0.33251953125 0.010986328125 0.3753662109375 0.0142822265625 Q 0.418212890625 0.017578125 0.4610595703125 0.0296630859375 Q 0.50390625 0.041748046875 0.5438232421875 0.066650390625 Q 0.583740234375 0.091552734375 0.614501953125 0.1343994140625 Q 0.645263671875 0.17724609375 0.6639404296875 0.24169921875 Q 0.6826171875 0.30615234375 0.6826171875 0.3984375 L 0.6826171875 0.4423828125 Q 0.6826171875 0.542724609375 0.6654052734375 0.6141357421875 Q 0.648193359375 0.685546875 0.61962890625 0.7342529296875 Q 0.591064453125 0.782958984375 0.5533447265625 0.812255859375 Q 0.515625 0.841552734375 0.4749755859375 0.8565673828125 Q 0.434326171875 0.87158203125 0.3929443359375 0.8763427734375 Q 0.3515625 0.881103515625 0.31494140625 0.881103515625 L 0.296630859375 0.881103515625 L 0.296630859375 1.261962890625 L 0.10693359375 1.261962890625 L 0.10693359375 0.010986328125 M 0.30615234375 0.741943359375 Q 0.357421875 0.741943359375 0.392578125 0.7269287109375 Q 0.427734375 0.7119140625 0.4486083984375 0.6800537109375 Q 0.469482421875 0.648193359375 0.4786376953125 0.5980224609375 Q 0.48779296875 0.5478515625 0.48779296875 0.4775390625 L 0.48779296875 0.36474609375 Q 0.48779296875 0.30908203125 0.479736328125 0.2684326171875 Q 0.4716796875 0.227783203125 0.4508056640625 0.201416015625 Q 0.429931640625 0.175048828125 0.394775390625 0.1622314453125 Q 0.359619140625 0.1494140625 0.30615234375 0.1494140625 L 0.296630859375 0.1494140625 L 0.296630859375 0.741943359375 L 0.30615234375 0.741943359375 M 0.8334960937499999 0.010986328125 L 1.297119140625 0.010986328125 L 1.297119140625 0.160400390625 L 1.023193359375 0.160400390625 L 1.023193359375 0.53466796875 L 1.23486328125 0.53466796875 L 1.23486328125 0.68408203125 L 1.023193359375 0.68408203125 L 1.023193359375 1.112548828125 L 1.304443359375 1.112548828125 L 1.304443359375 1.261962890625 L 0.8334960937499999 1.261962890625 L 0.8334960937499999 0.010986328125 M 1.44873046875 0.010986328125 L 1.654541015625 0.010986328125 Q 1.689697265625 0.010986328125 1.7318115234375 0.013916015625 Q 1.77392578125 0.016845703125 1.8160400390625 0.0281982421875 Q 1.858154296875 0.03955078125 1.8973388671875 0.062255859375 Q 1.9365234375 0.0849609375 1.9669189453125 0.12451171875 Q 1.997314453125 0.1640625 2.015625 0.2237548828125 Q 2.033935546875 0.283447265625 2.033935546875 0.368408203125 L 2.033935546875 0.39990234375 Q 2.033935546875 0.542724609375 1.992919921875 0.6324462890625 Q 1.951904296875 0.72216796875 1.8720703125 0.76171875 L 2.07275390625 1.261962890625 L 1.8720703125 1.261962890625 L 1.705810546875 0.7939453125 L 1.634765625 0.7939453125 L 1.634765625 1.261962890625 L 1.44873046875 1.261962890625 L 1.44873046875 0.010986328125 M 1.663330078125 0.656982421875 Q 1.713134765625 0.656982421875 1.74755859375 0.64599609375 Q 1.781982421875 0.635009765625 1.80322265625 0.6090087890625 Q 1.824462890625 0.5830078125 1.833984375 0.5401611328125 Q 1.843505859375 0.497314453125 1.843505859375 0.434326171875 L 1.843505859375 0.33544921875 Q 1.843505859375 0.287109375 1.834716796875 0.251953125 Q 1.825927734375 0.216796875 1.8050537109375 0.194091796875 Q 1.7841796875 0.17138671875 1.749755859375 0.160400390625 Q 1.71533203125 0.1494140625 1.663330078125 0.1494140625 L 1.634765625 0.1494140625 L 1.634765625 0.656982421875 L 1.663330078125 0.656982421875 M 2.17529296875 1.008544921875 Q 2.17529296875 0.96826171875 2.1800537109375 0.9342041015625 Q 2.184814453125 0.900146484375 2.1943359375 0.860595703125 L 2.341552734375 0.860595703125 L 2.341552734375 0.92138671875 Q 2.341552734375 0.971923828125 2.3477783203125 1.0107421875 Q 2.35400390625 1.049560546875 2.3682861328125 1.0762939453125 Q 2.382568359375 1.10302734375 2.4063720703125 1.1165771484375 Q 2.43017578125 1.130126953125 2.464599609375 1.130126953125 Q 2.518798828125 1.130126953125 2.54736328125 1.1004638671875 Q 2.575927734375 1.07080078125 2.575927734375 1.013671875 Q 2.575927734375 0.984375 2.5718994140625 0.9598388671875 Q 2.56787109375 0.935302734375 2.5579833984375 0.9111328125 Q 2.548095703125 0.886962890625 2.53125 0.8602294921875 Q 2.514404296875 0.83349609375 2.488037109375 0.800537109375 L 2.290283203125 0.5654296875 Q 2.237548828125 0.498046875 2.208984375 0.4295654296875 Q 2.180419921875 0.361083984375 2.180419921875 0.283447265625 Q 2.180419921875 0.22119140625 2.1998291015625 0.169189453125 Q 2.21923828125 0.1171875 2.255859375 0.0794677734375 Q 2.29248046875 0.041748046875 2.3463134765625 0.0208740234375 Q 2.400146484375 0 2.46826171875 0 Q 2.551025390625 0 2.6063232421875 0.0234375 Q 2.66162109375 0.046875 2.694580078125 0.0849609375 Q 2.7275390625 0.123046875 2.7410888671875 0.1702880859375 Q 2.754638671875 0.217529296875 2.754638671875 0.26513671875 Q 2.754638671875 0.305419921875 2.7484130859375 0.3394775390625 Q 2.7421875 0.37353515625 2.734130859375 0.41455078125 L 2.587646484375 0.41455078125 L 2.587646484375 0.355224609375 Q 2.587646484375 0.255615234375 2.55908203125 0.2025146484375 Q 2.530517578125 0.1494140625 2.466064453125 0.1494140625 Q 2.41259765625 0.1494140625 2.38623046875 0.1790771484375 Q 2.35986328125 0.208740234375 2.35986328125 0.258544921875 Q 2.35986328125 0.284912109375 2.3638916015625 0.30615234375 Q 2.367919921875 0.327392578125 2.3756103515625 0.3453369140625 Q 2.38330078125 0.36328125 2.394287109375 0.380126953125 Q 2.4052734375 0.39697265625 2.419189453125 0.415283203125 L 2.6396484375 0.681884765625 Q 2.69970703125 0.76025390625 2.73193359375 0.8323974609375 Q 2.76416015625 0.904541015625 2.76416015625 0.985107421875 Q 2.76416015625 1.0517578125 2.7432861328125 1.105224609375 Q 2.722412109375 1.15869140625 2.68359375 1.196044921875 Q 2.644775390625 1.2333984375 2.58984375 1.2535400390625 Q 2.534912109375 1.273681640625 2.466064453125 1.273681640625 Q 2.381103515625 1.273681640625 2.3250732421875 1.2509765625 Q 2.26904296875 1.228271484375 2.2357177734375 1.19091796875 Q 2.202392578125 1.153564453125 2.1888427734375 1.10595703125 Q 2.17529296875 1.058349609375 2.17529296875 1.008544921875 M 3.2080078125 1.27294921875 Q 3.177978515625 1.27294921875 3.142822265625 1.2681884765625 Q 3.107666015625 1.263427734375 3.0732421875 1.248046875 Q 3.038818359375 1.232666015625 3.0069580078125 1.2044677734375 Q 2.97509765625 1.17626953125 2.9505615234375 1.130126953125 Q 2.926025390625 1.083984375 2.911376953125 1.0162353515625 Q 2.896728515625 0.948486328125 2.896728515625 0.854736328125 L 2.896728515625 0.41162109375 Q 2.896728515625 0.317138671875 2.9117431640625 0.2501220703125 Q 2.9267578125 0.18310546875 2.95166015625 0.1373291015625 Q 2.9765625 0.091552734375 3.0084228515625 0.064453125 Q 3.040283203125 0.037353515625 3.0750732421875 0.0230712890625 Q 3.10986328125 0.0087890625 3.144287109375 0.00439453125 Q 3.1787109375 0 3.2080078125 0 Q 3.23583984375 0 3.2698974609375 0.0040283203125 Q 3.303955078125 0.008056640625 3.3380126953125 0.0216064453125 Q 3.3720703125 0.03515625 3.404296875 0.0618896484375 Q 3.4365234375 0.088623046875 3.46142578125 0.1343994140625 Q 3.486328125 0.18017578125 3.5013427734375 0.2479248046875 Q 3.516357421875 0.315673828125 3.516357421875 0.41162109375 L 3.516357421875 0.854736328125 Q 3.516357421875 0.94775390625 3.5009765625 1.0147705078125 Q 3.485595703125 1.081787109375 3.460693359375 1.1282958984375 Q 3.435791015625 1.1748046875 3.4031982421875 1.2030029296875 Q 3.37060546875 1.231201171875 3.3365478515625 1.2469482421875 Q 3.302490234375 1.2626953125 3.268798828125 1.267822265625 Q 3.235107421875 1.27294921875 3.2080078125 1.27294921875 M 3.2080078125 1.130126953125 Q 3.23583984375 1.130126953125 3.2567138671875 1.12060546875 Q 3.277587890625 1.111083984375 3.2911376953125 1.087646484375 Q 3.3046875 1.064208984375 3.3116455078125 1.0257568359375 Q 3.318603515625 0.9873046875 3.318603515625 0.9287109375 L 3.318603515625 0.359619140625 Q 3.318603515625 0.299560546875 3.3116455078125 0.25927734375 Q 3.3046875 0.218994140625 3.2911376953125 0.1944580078125 Q 3.277587890625 0.169921875 3.2567138671875 0.15966796875 Q 3.23583984375 0.1494140625 3.2080078125 0.1494140625 Q 3.179443359375 0.1494140625 3.158203125 0.15966796875 Q 3.136962890625 0.169921875 3.123046875 0.1944580078125 Q 3.109130859375 0.218994140625 3.1021728515625 0.25927734375 Q 3.09521484375 0.299560546875 3.09521484375 0.359619140625 L 3.09521484375 0.9287109375 Q 3.09521484375 0.9873046875 3.1021728515625 1.0257568359375 Q 3.109130859375 1.064208984375 3.123046875 1.087646484375 Q 3.136962890625 1.111083984375 3.158203125 1.12060546875 Q 3.179443359375 1.130126953125 3.2080078125 1.130126953125 M 3.703125 0.010986328125 L 3.85693359375 0.010986328125 L 4.16015625 0.84814453125 L 4.16455078125 0.84814453125 Q 4.162353515625 0.81884765625 4.15869140625 0.782958984375 Q 4.155029296875 0.7470703125 4.152099609375 0.7012939453125 Q 4.149169921875 0.655517578125 4.14697265625 0.59765625 Q 4.144775390625 0.539794921875 4.144775390625 0.46728515625 L 4.144775390625 0.010986328125 L 4.314697265625 0.010986328125 L 4.314697265625 1.261962890625 L 4.159423828125 1.261962890625 L 3.857666015625 0.44677734375 L 3.851806640625 0.44677734375 Q 3.85400390625 0.479736328125 3.857666015625 0.5181884765625 Q 3.861328125 0.556640625 3.8642578125 0.608642578125 Q 3.8671875 0.66064453125 3.869384765625 0.7298583984375 Q 3.87158203125 0.799072265625 3.87158203125 0.894287109375 L 3.87158203125 1.261962890625 L 3.703125 1.261962890625 L 3.703125 0.010986328125 M 4.673583984375 0.010986328125 L 4.891845703125 0.010986328125 L 5.123291015625 1.261962890625 L 4.931396484375 1.261962890625 L 4.89697265625 1.037841796875 L 4.66845703125 1.037841796875 L 4.635498046875 1.261962890625 L 4.44287109375 1.261962890625 L 4.673583984375 0.010986328125 M 4.875 0.89501953125 L 4.787109375 0.271728515625 L 4.779052734375 0.271728515625 L 4.6904296875 0.89501953125 L 4.875 0.89501953125 M 5.25146484375 0.010986328125 L 5.441162109375 0.010986328125 L 5.441162109375 1.112548828125 L 5.69970703125 1.112548828125 L 5.69970703125 1.261962890625 L 5.25146484375 1.261962890625 L 5.25146484375 0.010986328125 M 6.1552734375 0.010986328125 L 6.344970703125 0.010986328125 L 6.344970703125 0.53466796875 L 6.56982421875 0.53466796875 L 6.56982421875 0.010986328125 L 6.759521484375 0.010986328125 L 6.759521484375 1.261962890625 L 6.56982421875 1.261962890625 L 6.56982421875 0.68408203125 L 6.344970703125 0.68408203125 L 6.344970703125 1.261962890625 L 6.1552734375 1.261962890625 L 6.1552734375 0.010986328125 M 7.130859375 0.84521484375 L 6.87890625 0.010986328125 L 7.070068359375 0.010986328125 L 7.22314453125 0.609375 L 7.23193359375 0.609375 L 7.383544921875 0.010986328125 L 7.573974609375 0.010986328125 L 7.320556640625 0.84521484375 L 7.320556640625 1.261962890625 L 7.130859375 1.261962890625 L 7.130859375 0.84521484375 M 7.944580078125 1.273681640625 Q 7.922607421875 1.273681640625 7.893310546875 1.2689208984375 Q 7.864013671875 1.26416015625 7.8328857421875 1.248779296875 Q 7.8017578125 1.2333984375 7.771728515625 1.2052001953125 Q 7.74169921875 1.177001953125 7.7178955078125 1.1304931640625 Q 7.694091796875 1.083984375 7.679443359375 1.0162353515625 Q 7.664794921875 0.948486328125 7.664794921875 0.854736328125 L 7.664794921875 0.41162109375 Q 7.664794921875 0.317138671875 7.68017578125 0.2501220703125 Q 7.695556640625 0.18310546875 7.72119140625 0.1373291015625 Q 7.746826171875 0.091552734375 7.7801513671875 0.064453125 Q 7.8134765625 0.037353515625 7.849365234375 0.0230712890625 Q 7.88525390625 0.0087890625 7.92041015625 0.00439453125 Q 7.95556640625 0 7.985595703125 0 Q 8.061767578125 0 8.1141357421875 0.0208740234375 Q 8.16650390625 0.041748046875 8.1990966796875 0.0780029296875 Q 8.231689453125 0.1142578125 8.2459716796875 0.16259765625 Q 8.26025390625 0.2109375 8.26025390625 0.26513671875 Q 8.26025390625 0.305419921875 8.2554931640625 0.3394775390625 Q 8.250732421875 0.37353515625 8.24267578125 0.41455078125 L 8.091064453125 0.41455078125 L 8.091064453125 0.355224609375 Q 8.091064453125 0.1494140625 7.98046875 0.1494140625 Q 7.950439453125 0.1494140625 7.928466796875 0.15966796875 Q 7.906494140625 0.169921875 7.891845703125 0.1944580078125 Q 7.877197265625 0.218994140625 7.8702392578125 0.25927734375 Q 7.86328125 0.299560546875 7.86328125 0.359619140625 L 7.86328125 0.926513671875 Q 7.86328125 0.985107421875 7.8702392578125 1.02392578125 Q 7.877197265625 1.062744140625 7.8914794921875 1.086181640625 Q 7.90576171875 1.109619140625 7.9273681640625 1.1195068359375 Q 7.948974609375 1.12939453125 7.97900390625 1.12939453125 Q 8.010498046875 1.12939453125 8.033203125 1.1129150390625 Q 8.055908203125 1.096435546875 8.070556640625 1.06787109375 Q 8.085205078125 1.039306640625 8.0921630859375 1.00048828125 Q 8.09912109375 0.961669921875 8.09912109375 0.916259765625 L 8.09912109375 0.7529296875 L 8.001708984375 0.7529296875 L 8.001708984375 0.62841796875 L 8.28369140625 0.62841796875 L 8.28369140625 1.261962890625 L 8.15771484375 1.261962890625 L 8.13720703125 1.143310546875 Q 8.101318359375 1.212890625 8.0548095703125 1.2432861328125 Q 8.00830078125 1.273681640625 7.944580078125 1.273681640625 M 8.466064453125 0.010986328125 L 8.65576171875 0.010986328125 L 8.65576171875 1.261962890625 L 8.466064453125 1.261962890625 L 8.466064453125 0.010986328125 M 8.876953125 0.010986328125 L 9.340576171875 0.010986328125 L 9.340576171875 0.160400390625 L 9.066650390625 0.160400390625 L 9.066650390625 0.53466796875 L 9.2783203125 0.53466796875 L 9.2783203125 0.68408203125 L 9.066650390625 0.68408203125 L 9.066650390625 1.112548828125 L 9.347900390625 1.112548828125 L 9.347900390625 1.261962890625 L 8.876953125 1.261962890625 L 8.876953125 0.010986328125 M 9.4921875 0.010986328125 L 9.64599609375 0.010986328125 L 9.94921875 0.84814453125 L 9.95361328125 0.84814453125 Q 9.951416015625 0.81884765625 9.94775390625 0.782958984375 Q 9.944091796875 0.7470703125 9.941162109375 0.7012939453125 Q 9.938232421875 0.655517578125 9.93603515625 0.59765625 Q 9.933837890625 0.539794921875 9.933837890625 0.46728515625 L 9.933837890625 0.010986328125 L 10.103759765625 0.010986328125 L 10.103759765625 1.261962890625 L 9.948486328125 1.261962890625 L 9.646728515625 0.44677734375 L 9.640869140625 0.44677734375 Q 9.64306640625 0.479736328125 9.646728515625 0.5181884765625 Q 9.650390625 0.556640625 9.6533203125 0.608642578125 Q 9.65625 0.66064453125 9.658447265625 0.7298583984375 Q 9.66064453125 0.799072265625 9.66064453125 0.894287109375 L 9.66064453125 1.261962890625 L 9.4921875 1.261962890625 L 9.4921875 0.010986328125 M 10.324951171875 0.010986328125 L 10.78857421875 0.010986328125 L 10.78857421875 0.160400390625 L 10.5146484375 0.160400390625 L 10.5146484375 0.53466796875 L 10.726318359375 0.53466796875 L 10.726318359375 0.68408203125 L 10.5146484375 0.68408203125 L 10.5146484375 1.112548828125 L 10.7958984375 1.112548828125 L 10.7958984375 1.261962890625 L 10.324951171875 1.261962890625 L 10.324951171875 0.010986328125" fill="#431a10" fill-rule="nonzero"></path></g><g></g><g clip-path="url(#SvgjsClipPath1002)"><g clip-path="url(#a78cf601b-56ea-44b4-be0e-fa962d22307bc7091621-bedf-4a03-8386-eecdfb31d1ec)"><path d=" M 9.686011406110094 -1.8769557465053106 L 9.686011406110094 -7.128654401066672 C 9.686011406110094 -7.232415637805779 9.642820152393568 -7.324676244857054 9.57841662614171 -7.359689273017787 C 8.881480988105439 -7.740275139171661 8.13777393909405 -8.028100764655505 7.36620661330006 -8.215847260889728 C 7.3291490287503755 -8.83228101215753 6.835388660819451 -9.323996823699506 6.227899843753299 -9.323996823699506 C 5.698104169467168 -9.323996823699506 5.255202141711324 -8.949076295876182 5.125117241464513 -8.4448375764519 C 3.8102119138223793 -8.398323918603335 2.4993956989581423 -8.039759841891591 1.247871619373394 -7.359689273017789 C 1.1829569540242983 -7.324676244857055 1.1397657003077732 -7.23241563780578 1.1397657003077732 -7.128654401066673 L 1.1397657003077732 -1.8769557465053106 C 1.1397657003077732 -1.7734500793148218 1.1829569540242968 -1.6809339027149282 1.247871619373394 -1.6459208745541947 C 3.933907575353729 -0.18687432149123318 6.8923806701613755 -0.18687432149123318 9.57841662614171 -1.6459208745541947 C 9.642820152393568 -1.6809339027149282 9.686011406110094 -1.7734500793148218 9.686011406110094 -1.8769557465053106" fill="#b88059" transform="matrix(1,0,0,1,0,0)" fill-rule="nonzero"></path></g><g clip-path="url(#a78cf601b-56ea-44b4-be0e-fa962d22307bc7091621-bedf-4a03-8386-eecdfb31d1ec)"><path d=" M 9.779549860904464 -1.8074408292810817 L 9.779549860904464 -7.17823489349866 C 9.779549860904464 -7.284296256175333 9.735336328993464 -7.378856989164175 9.669654954998512 -7.414636725970764 C 8.95737849311011 -7.803633939825819 8.197367357286186 -8.097981458628981 7.40888672791936 -8.290217999537706 C 7.371318004272427 -8.92045250643091 6.866568145750908 -9.42315780856348 6.245789712156595 -9.42315780856348 C 5.704493408182632 -9.42315780856348 5.251879737579285 -9.039803485635744 5.118983572297671 -8.52431970607225 C 3.775454455210266 -8.47678377002921 2.436014450900757 -8.110041467761675 1.1568888600652123 -7.414636725970764 C 1.0906963469730229 -7.378856989164175 1.0464828150620238 -7.284296256175333 1.0464828150620238 -7.17823489349866 L 1.0464828150620238 -1.8074408292810817 C 1.0464828150620238 -1.7016350361530268 1.0906963469730229 -1.607074303164186 1.1568888600652123 -1.5712945663575955 C 3.9017058122278 -0.07902397197423028 6.924838002835923 -0.07902397197423028 9.66965495499851 -1.5712945663575955 C 9.735336328993462 -1.607074303164186 9.779549860904462 -1.7016350361530268 9.779549860904462 -1.8074408292810817 Z" fill="none" transform="matrix(1,0,0,1,0,0)" fill-rule="nonzero" stroke-dasharray="none" stroke-miterlimit="10" stroke-linejoin="miter" stroke-linecap="butt" stroke-width="0.404311025914452" stroke="#b88059"></path></g><g clip-path="url(#a78cf601b-56ea-44b4-be0e-fa962d22307bc7091621-bedf-4a03-8386-eecdfb31d1ec)"><path d=" M 5.070680927608773 -8.213802704500782 C 5.070680927608773 -8.285873317211198 5.07962586181042 -8.355643803984046 5.091382061046871 -8.424647582111039 C 3.804333814204153 -8.373278102838722 2.521630249687949 -8.018291999807637 1.296174264062287 -7.351255477913378 C 1.2325374464562835 -7.316498019301263 1.1898573318369954 -7.224748551347226 1.1898573318369954 -7.12226516235121 L 1.1898573318369954 -1.9656383798759274 C 1.1898573318369954 -1.862899421331294 1.2325374464562835 -1.7714055229258738 1.296174264062287 -1.7366480643137585 C 1.7488811485383098 -1.4896939140768097 2.221562914243262 -1.281265962405861 2.7092182983739135 -1.113569504781882 L 2.7092182983739135 -1.7095576921602005 C 2.709218298373921 -1.8181747503230588 2.7723439768826883 -1.9122243442146623 2.8643490143853447 -1.958482432514609 L 2.8643490143853447 -2.602517695033206 C 2.8643490143853447 -3.2861662375876683 3.4291577168322087 -4.096321706708282 3.4291577168322087 -4.506766401789579 L 2.6655159055601594 -4.506766401789579 C 2.6148016953866264 -4.506482897404551 2.573421561559927 -4.547291482421489 2.5729997289602653 -4.598004730646379 C 2.5729997289602657 -4.648351931724221 2.6144019958364613 -4.688987489954562 2.6655159055601594 -4.688987489954562 L 3.4291577168322083 -4.688987489954562 L 3.4291577168322083 -4.805782773673212 L 2.6655159055601594 -4.805782773673212 C 2.6144019958364613 -4.805782773673212 2.5729997289602657 -4.8464183319035525 2.5729997289602657 -4.896765532981395 C 2.5734215615599263 -4.947478781206284 2.6148016953866247 -4.988287366223224 2.6655159055601567 -4.988003861838196 L 3.4291577168322083 -4.988003861838196 L 3.4291577168322083 -5.104543576008228 L 2.6655159055601594 -5.104543576008228 C 2.6144019958364613 -5.104543576008228 2.5729997289602657 -5.1451791342385675 2.5729997289602657 -5.19552633531641 C 2.5734215615599263 -5.246239583541299 2.6148016953866247 -5.287048168558238 2.6655159055601567 -5.286764664173211 L 3.4291577168322083 -5.286764664173211 L 3.4291577168322083 -5.403304378343242 L 2.6655159055601594 -5.403304378343242 C 2.6148016953866264 -5.403020873958214 2.573421561559927 -5.443829458975153 2.5729997289602653 -5.4945427072000435 C 2.5729997289602657 -5.544889908277886 2.6144019958364613 -5.585525466508226 2.6655159055601594 -5.585525466508226 L 3.4291577168322083 -5.585525466508226 L 3.4291577168322083 -5.7023207502268765 L 2.6655159055601594 -5.7023207502268765 C 2.6144019958364613 -5.7023207502268765 2.5729997289602657 -5.742956308457217 2.5729997289602657 -5.793303509535059 C 2.5734215615599263 -5.844016757759948 2.6148016953866247 -5.884825342776887 2.6655159055601567 -5.884541838391861 L 3.4291577168322083 -5.884541838391861 L 3.4291577168322083 -6.001081552561892 L 2.6655159055601594 -6.001081552561892 C 2.6148016953866264 -6.000798048176863 2.573421561559927 -6.041606633193801 2.5729997289602653 -6.0923198814186925 C 2.5735613332090237 -6.142933015506413 2.614900454309444 -6.183586957804064 2.6655159055601585 -6.183302640726875 L 3.4291577168322083 -6.183302640726875 L 3.4291577168322083 -6.2998423548969065 L 2.6655159055601594 -6.2998423548969065 C 2.6148016953866264 -6.299558850511879 2.573421561559927 -6.340367435528818 2.5729997289602653 -6.391080683753708 C 2.5729997289602657 -6.441427884831551 2.6144019958364613 -6.482063443061891 2.6655159055601594 -6.482063443061891 L 3.4291577168322083 -6.482063443061891 L 3.4291577168322083 -6.598858726780541 L 2.6655159055601594 -6.598858726780541 C 2.6144019958364613 -6.598858726780541 2.5729997289602657 -6.639494285010881 2.5729997289602657 -6.689841486088724 C 2.5734215615599263 -6.740554734313613 2.6148016953866255 -6.781363319330552 2.665515905560157 -6.7810798149455245 L 3.4291577168322083 -6.7810798149455245 L 3.4291577168322083 -6.797436266057108 C 3.4291577168322083 -6.867462322378575 3.486660865271369 -6.923943192623261 3.5574536302386908 -6.923943192623261 C 3.591252995851655 -6.924215288998898 3.6237724240507685 -6.911031509140118 3.647840173070866 -6.887299366182053 C 3.671907922090964 -6.863567223223988 3.685547021627648 -6.831236120156037 3.6857495436451733 -6.797436266057108 L 3.6857495436451733 -4.568869802103871 C 3.685749543645173 -3.999205278233256 3.1209408411983093 -3.2692986473788457 3.1209408411983093 -2.602517695033205 L 3.1209408411983093 -1.95822686296599 C 3.2129458787009653 -1.9122243442146623 3.2760715572097325 -1.818174750323057 3.2760715572097325 -1.7095576921602005 L 3.2760715572097325 -0.9428490463047297 C 3.8602030859271452 -0.7850604870660227 4.459843366738001 -0.6916478950860547 5.064291688893304 -0.6642782383105725 L 5.064291688893304 -3.385071652903023 C 5.064291688893311 -3.481932511829431 5.117194585457338 -3.562948058741493 5.192587602299793 -3.609206147041439 L 5.192587602299793 -6.43478307656747 C 5.192587602299793 -6.745811217236173 5.441512342654202 -7.0696178353358 5.57236395154687 -7.218359312631762 C 5.256111810198819 -7.451311251101746 5.069788101224739 -7.821016216182768 5.070680927608773 -8.213802704500782" fill="#431a10" transform="matrix(1,0,0,1,0,0)" fill-rule="nonzero"></path></g><g clip-path="url(#a78cf601b-56ea-44b4-be0e-fa962d22307bc7091621-bedf-4a03-8386-eecdfb31d1ec)"><path d=" M 9.63591977458087 -1.9656383798759274 L 9.63591977458087 -7.12226516235121 C 9.63591977458087 -7.225004120895843 9.5934952295102 -7.316498019301262 9.529602842355576 -7.351255477913377 C 8.870873787255297 -7.711852362768294 8.169825199799174 -7.989061019258108 7.442621908336985 -8.176489550402483 C 7.42294305309336 -7.519164671355726 6.901070034814403 -6.989880136166831 6.258568189587518 -6.989880136166831 C 6.101559445003221 -6.989912408523335 5.946220112178441 -7.022093569298906 5.802120975754894 -7.084440869155674 C 5.685325692036243 -6.95972292942985 5.449434998661376 -6.661217696643453 5.449434998661376 -6.434783076567471 L 5.449434998661376 -3.60920614704144 C 5.524572445955213 -3.563203628290111 5.577730912067859 -3.481932511829431 5.577730912067859 -3.385071652903024 L 5.577730912067859 -0.6584001386923486 C 6.17346352989756 -0.6704119074774173 6.768685008630024 -0.7516830239380976 7.358283957292882 -0.8950575407130703 L 7.358283957292882 -2.3111684096081255 C 7.358283957292882 -2.4103293944721003 7.411697992954147 -2.496456332356532 7.490157844380024 -2.543225559753715 L 7.490157844380024 -4.703810523774434 C 7.490157844380024 -5.0115162603110965 7.078690871104254 -5.367269071988036 7.078690871104254 -5.6752303780733175 C 7.078690871104254 -6.115321140794357 8.15106069710744 -5.9737356108597135 8.15106069710744 -5.889397659815611 C 8.15106069710744 -5.804804139222892 7.342949784375773 -5.855406909849352 7.342949784375773 -5.6752303780733175 C 7.342949784375773 -5.418894120808971 7.754416757651543 -5.0541963749303855 7.754416757651543 -4.725022796309769 L 7.754416757651543 -2.543225559753715 C 7.8331321786260375 -2.496456332356532 7.886546214287303 -2.4105849640207184 7.886546214287303 -2.3111684096081255 L 7.886546214287303 -1.0414988920714663 C 8.45566767972144 -1.2188691918822823 9.005994410612725 -1.451703024208351 9.529602842355574 -1.7366480643137585 C 9.5934952295102 -1.7714055229258738 9.63591977458087 -1.863154990879912 9.63591977458087 -1.9656383798759274" fill="#3e7742" transform="matrix(1,0,0,1,0,0)" fill-rule="nonzero"></path></g><g clip-path="url(#a78cf601b-56ea-44b4-be0e-fa962d22307bc7091621-bedf-4a03-8386-eecdfb31d1ec)"><path d=" M 6.262146163268177 -9.24502583317639 C 5.722127707037307 -9.24502583317639 5.282803652962121 -8.792156593024426 5.282803652962121 -8.235781685681973 C 5.282803652962121 -7.679406778339518 5.722127707037307 -7.226537538187554 6.262146163268177 -7.226537538187554 C 6.802164619499047 -7.226537538187554 7.241488673574233 -7.679406778339518 7.241488673574233 -8.235781685681973 C 7.241488673574233 -8.792156593024426 6.802164619499047 -9.24502583317639 6.262146163268177 -9.24502583317639" fill="#3e7742" transform="matrix(1,0,0,1,0,0)" fill-rule="nonzero"></path></g></g></g><defs><clipPath id="SvgjsClipPath1002"><path d=" M 0.8443273021047961 -9.625528437503263 h 9.137273130165408 v 9.375528437503263 h -9.137273130165408 Z"></path></clipPath><clipPath id="a78cf601b-56ea-44b4-be0e-fa962d22307bc7091621-bedf-4a03-8386-eecdfb31d1ec"><path d=" M 0.8443273021047969 -0.25 L 9.981705373861686 -0.25 L 9.981705373861686 -9.625568891069324 L 0.8443273021047969 -9.625568891069324 Z"></path></clipPath></defs></svg>